<?xml version="1.0" encoding="UTF-8"?><svg id="Calque_2" xmlns="http://www.w3.org/2000/svg" viewBox="0 0 320.5 516.7"><defs><style>.cls-1{fill:#231f20;}</style></defs><g id="silhouettes"><path class="cls-1" d="m292.3,482.5c-5.9,0-19.3-8.8-22-14.4l2.9-5.4c-16.9-27.9-20.4-64-23.1-101.7,2.9-.3,4.5-.4,4.5-.4,0,0-14.9-101.1-14.9-113.8s3.4-43-4.2-61.1c-7.6-18.1-6.8-19.8-6.8-19.8,12.7,12.6,60.5,35.2,54-14.4,0-13.7-1.2-12.5-1.2-12.5l5.6-6.6-5.1-17.3s-5.7.7-12.3,1.6c-1.3-7.1-2.1-17.7-.9-21.4.6-1.9-.2-6.8-1.3-12.1-3.1-6.3-5.3-15.5-12.4-18.2-5.1-.3-12.7,1.1-12.5,7.5-.4,4.8,5.6,10.5,2.8,15-2.8,2.8-.7,9.3,3.7,13.7,2.6,2.6,4.4,10.9,5.5,17.3-1.9.2-3.4.3-4,.3-3.4,0,1.5,15.4,1.5,15.4,0,0-11-4.4-13.9-7.3-2.9-2.9-13.7-16.9-19.8-19.3-8.1-3-21.1-5.4-23-12.3,2.5-2.5,8.7-12.1,7.4-21.8-1.4-9.8-3.7-18.5-4.3-22.9-.4-3.3-3-9.2-6.1-12.8-2.3-3.2,6.2-9.8,1.8-19.7-4.6-10.3-20.3-25.2-41.5-14.4-48.3,20.5-23.2,77.3-1.5,63.4,2,7.6,5.3,16.1,10.3,20.1,3.1,3.1,2.9,6.9-.7,8-3.6,1.1-26.7,6-41.5,20.8-14.8,14.8-48.2,37.5-54,43.2-5.8,5.8-6.8,22.9,7.8,31.3,14.6,8.4,16.7,8.6,16.7,8.6l1.8,12h17.6s1.5-2.6,3.5-6.2c9.9,8.6,13.5,10.4,25.8,8.6-6.3,11.5-2.4,83.3-2.6,90.6,0,0-13.7,50.3-13.7,50.3,0,0,4.9,1.6,12.7,3.6-4.1,30.1-.8,82.8-2.7,100.2-2.2,20.3,1.1,16-13.9,31-15,15,9.5,15.9,20.5,11.2,11-4.6,8.3-1.5,17.8-6.8,9.5-5.4,5.9-25.7,7.6-36.2,1.4-8.8,9.5-71.6,12.1-92.3,10.1.9,20.1,0,30-.6,5.3,35.7,19,113.6,21.4,122.2,2.7,9.8,11.2,5.1,21.7,5.1s26.6,4.2,43,1.1c16.4-3.1,5.9-10.6,0-10.6ZM122.7,186.9c1-1.8,1.6-3,1.5-3-.4,0-13.4-8.3-13.4-8.3,0,0-4.9-3.1-3.1-4.9,1.8-1.8,3.9-3.8,8.3-3.8,6.2-.3,14.1-13.1,18.4-14.1.5,4.4,2.9,32.9,3.6,39.2-5-1-11.1-3.4-15.3-5Z"/><ellipse class="cls-1" cx="160.2" cy="500.3" rx="160.2" ry="16.4"/></g></svg>