<?xml version="1.0" encoding="UTF-8"?><svg id="Calque_2" xmlns="http://www.w3.org/2000/svg" viewBox="0 0 242.9 508.3"><defs><style>.cls-1{fill:#231f20;}</style></defs><g id="silhouettes"><path class="cls-1" d="m138.5,62.2c0,5.8-4.6,10.5-10.3,10.7v-5.2c2.9-.2,5.2-2.6,5.2-5.5s-2.3-5.3-5.2-5.5v-5.2c5.7.2,10.3,4.9,10.3,10.7Z"/><path class="cls-1" d="m5.2,62.2c0,3.1,2.5,5.5,5.5,5.5v5.2c-5.9,0-10.7-4.8-10.7-10.7s4.8-10.7,10.7-10.7v5.2c-3.1,0-5.5,2.5-5.5,5.5Z"/><path class="cls-1" d="m242.8,186.3c-1.5-20-20.7-56.9-24.8-61.1-4.1-4.1-15.3-6.8-19.5-6.8s-4-8.6,0-9.7c4-1.1,17.5,0,17.5,0,7-9.4-.7-36.3-6.2-48.8l11.9-53.9c-17.8-9.4-48.1-5-48.1-5l-5.8,56.8c-6.1,9.7-20.7,34.6-11.7,48.8,7.8-.7,18.1.2,18.1.2,0,0,3.7.9,2.5,9.2-1.2,8.3-27,11.9-34.8,13.4-7.8,1.5-27.7,28.3-27.7,29.1s-3.6,11.3-6.3.6c-2.7-10.7-13-35.5-21.6-45-3.4-3.8-6-5.2-7.9-5.5h44.8c2.8,0,5.1-2.3,5.1-5.1v-63.7c0-1.8-1.6-3.2-3.4-2.9-34.5,4.7-70.7,5.1-108.9.2s-5.2,1.8-5.2,4.6v61.3c0,3.1,2.5,5.6,5.6,5.6h32c1.5,2.2,6.9,6,10.3,9.4,4.8,4.9,13.1,3.9,20.5,7.4,7.4,3.4,15.8,43.5,18.9,54.2,3.1,10.7,7.8,10.8,16.8,6.6-7.4,7.4-26.2,30.9-33.4,61.2-9.1,37.8-11.8,82.1-2.7,154.7,7.5.3,19.3,0,32.4-.5,5.1,19,14.3,52.2,13.3,66.7-1.1,16-8.5,24.8-4.9,34.8,3.6,10,16.5,4.1,18.5-8.7,1.3-8.3.2-22.3,3.6-27.4s.4-10-3.3-16.3c-3.2-5.5-5.3-32.7-5.9-50.2,7.5-.4,15-.9,22-1.4,9.8,14.1,30.9,47.7,37.2,67.6,7.2,22.8,10.1,24.5,9.1,31.7-1.1,7.3-.5,12,7.2,8.8,9.3-3.8,8.9-11.7,8.9-23.5s-5.8-20.5-4.9-26.3c.9-5.8-3.3-14.3-10-16-5.9-1.4-12.3-26.9-20.8-44.4,4.8-.4,7.7-.6,7.7-.6-6.3-28.3-14.6-73.5-18.4-98-3.8-24.5-2.2-58.8,0-61.1,2.2-2.2,5-6.7,6.7-12.8,1.6-6.1-.2-20.3,7.6-20.3s36.2-2.2,43.9-3.8c7.7-1.6,15.3,0,14.2-14.2ZM74.2,110.3c-1-.6-3-1.1-5.5-1.7h8.1c-1.8.3-2.6,1.7-2.6,1.7Zm102.2,85c1.4-13.7,31.6-35.7,31.6-35.7,0,0,5-5.1,9.8,2.6,4.8,7.7,6.7,19.1,6.7,19.1-4,1.1-41,12-48.2,14Z"/></g></svg>