<?xml version="1.0" encoding="UTF-8"?><svg id="Calque_2" xmlns="http://www.w3.org/2000/svg" viewBox="0 0 253.6 508.9"><defs><style>.cls-1{fill:none;stroke:#231f20;stroke-linecap:round;stroke-linejoin:round;stroke-width:3.4px;}.cls-2{fill:#231f20;}</style></defs><g id="silhouettes"><path class="cls-2" d="m200.7,119.6c-47-2.4-62.1-5.3-52.8,4,3.2,3.2,25.7,3.7,25.7,3.7,0,0,3.7,1.8-4,9.3-5.8,5.7-9.5,15.6-14.6,26.5-5,10.9-9.8,20.2-14.1,24.4,0,0-7.4-15.7-9.8-24.4-2.4-8.8-10.1-26.8-14.9-31.6-4.8-4.8-10.9-4.8-13.5-7.4-2.7-2.7-4-5.8-10.1-5.8,0,0,10.1-12.6,11.9-18,3.2-9.6.4-15.4.2-20.7,0-1.4,0-3.5-.3-5.9L98.3,2.8s-21.9-8.7-50.8,4.7l8.6,75.3h0c-.2,6.8,1.2,11.3,3.4,13.6,3.2,3.2,5.7,3,4.1,6.3-1.6,3.4-3.5,11.2-5.2,12.9-1.7,1.7-2.9-1.7-5.6,4.8-2.7,6.6-4.4,10.7-9.8,13.8-5.5,3.1-13.7,10.2-16,23-2.4,12.8-14.3,24.9-19.4,36.1-5.1,11.2-9.6,22.9-6.8,25.7,2.8,2.8,42.5,36.8,51.5,42.1,8.2,4.9,12,3.2,12,3.2,0,0,.2,17.3,2.7,36.6,2.6,19.3,12.2,50.2,7.1,83.2-5.1,33-10.1,74.4-14.7,85.1-5.3,12.4-10.9,28.7-5.9,33.7,3,3,15.3,1.8,20.4,3.3,7.3,2.1,25.6,4.6,29.1-1.1,3-.2,6.2-.8,10.6-.8,9.6,0,26.3,2.7,27.6-5,1.6-9.4-27.3-5.3-27.3-16.2s5.8-48.6,7.2-60c1.6-13,11.7-22.6,15.7-43.3,4-20.7,6.4-73.2,2.7-101.1-3.7-27.9-4.8-54.7-10.6-67.7,0,0,9.8,13.3,16.2,9,6.4-4.2,13.5-15.9,18.6-30.3,5-14.3,10.6-44.3,23.6-51.7,13-7.4,18-8.8,18-8.8,0,0,31.3,1.9,34.8-1.6,3.4-3.4,7.7-6.1-39.3-8.5Zm-133,118.9c0,5-2.7,10.1-6.6,10.1s-37.4-38.2-37.4-38.2c2.1-2.1,14.9-23.6,20.4-32.4,4,6.6,13.8,26.3,17.5,30,3.7,3.7,6.1,12.7,6.1,16.5v14.1Zm25.7,236.7c-1.1,3.5-5.1,10.9-6.2,17.4-4-1.6-7.2-3.2-7.2-5.3,0-6.1,12.6-34.7,15.7-43.9,0,0-.4,26-2.3,31.9Zm87.8-341.8v-6.4l9,1.3-9,5Z"/><path class="cls-2" d="m203.7,8c-27.5,0-49.9,22.3-49.9,49.9s22.3,49.9,49.9,49.9,49.9-22.3,49.9-49.9-22.3-49.9-49.9-49.9Zm0,93.9c-24.3,0-44-19.7-44-44s19.7-44,44-44,44,19.7,44,44-19.7,44-44,44Z"/><path class="cls-2" d="m210,57.9c0,3.5-2.8,6.3-6.3,6.3s-6.3-2.8-6.3-6.3,2.8-6.3,6.3-6.3,6.3,2.8,6.3,6.3Z"/><line class="cls-1" x1="203.7" y1="57.4" x2="203.7" y2="33.5"/><line class="cls-1" x1="203.9" y1="57.8" x2="229.1" y2="83.1"/></g></svg>