<?xml version="1.0" encoding="UTF-8"?><svg id="Calque_2" xmlns="http://www.w3.org/2000/svg" viewBox="0 0 146.7 740.5"><defs><style>.cls-1{fill:#231f20;}</style></defs><g id="silhouettes"><path class="cls-1" d="m108.1,476.2c-1.2-8.5.6-51.3,2.1-55.7,1.5-4.4,18.5-28.8,12.3-45.4-6.2-16.5-15.2-22.8-20.8-25.6-5.6-2.9-7.4-11.7-8.8-13-1.4-1.4,1.1-6.4,2.3-7.6,1.2-1.2,11.4-7.3,7.3-14.4.5-2.3,1-4.9,1.3-7.6.1-.6,8.7-42.5,8.7-53.4,0-20.9-44.5-23.4-46.1-12.7-1.6,10.7-4.9,40.9-7.2,54.4h0c-2,5.8-1.4,10.9-2.6,15.2-1.5,5.6-1.4,8.8.9,9.4,0,0,0,10.2,3.9,14.1,0,0,.5,7.1.5,8.6s-.2,8.2-3,9.6c-2.9,1.4-20.6,3.2-27.3,13.5-6.7,10.3-7.6,19.4-20.3,32.2-12.7,12.7-14.1,29.9-7.1,36.9,7,7,15.2,14.6,30,5.8,0,0-6.1,7-3.9,16.6,2.1,9.6,1.2,22.2,1.2,31.9s1.7,26.3,1.7,30.3,1.7,6.1,1.7,6.1c0,0,.3,30.2.3,36.3s1.1,15.9-.3,30c-1.4,14.1,1.2,27.2,3,41.6,1.8,14.4,4.6,41.9,6.2,47.8,1.7,5.9-.3,23.8-3.6,27.2-3.3,3.3-28.7,8.5-28.7,13.8s19.4,7.6,36.7,3.6c0,0-8.5,5.6-11.8,7.6-3.3,2-.2,6.1,9.7,7,9.9.9,35.2-.6,44.9-3.6,9.7-3,9.7-2.7,9.7-9.7s-2.6-18.7,0-25.6c2.6-7,5.5-37.5,5.5-53s7.3-66.9,7.3-81.2-2.6-36.2-2.6-45.6-1.8-36.8-3-45.3Z"/><path class="cls-1" d="m74.8,151.2v-17.1c0-8.9,1.2-16,3.5-21.3,2.3-5.3,5.4-9.8,9.1-13.4,3.7-3.6,7.6-7.1,11.8-10.6,5.6-4.7,10.5-9.6,14.5-14.8,4.1-5.2,6.1-11.9,6.1-20.2s-1.4-11.2-4.2-15.6c-2.8-4.4-6.5-7.9-11.1-10.5-4.6-2.5-9.5-3.8-14.5-3.8s-11.2,1.3-15.7,3.8c-4.5,2.5-8.4,5.9-11.5,10.2-3.2,4.3-5.7,8.9-7.5,14l-21.2-9.8c1.4-3.8,3.7-8.1,6.7-12.9s6.8-9.4,11.5-13.9c4.7-4.4,10.4-8.1,17.1-11,6.7-2.9,14.4-4.3,23.1-4.3s19.5,2,27.7,6c8.2,4,14.6,9.8,19.4,17.5,4.8,7.7,7.2,17.1,7.2,28.1s-1.3,15.7-3.8,21.7c-2.5,6-5.8,11.1-9.6,15.3s-8.1,8.5-12.6,12.6c-3.6,3.3-7.1,6.5-10.3,9.6s-5.8,7-7.6,11.4c-1.8,4.4-2.7,10.3-2.7,17.5v11.4h-25.3Zm13,49.2c-4.7,0-8.7-1.3-11.8-3.9-3.2-2.6-4.8-6.2-4.8-10.7s1.6-7.4,4.8-10.3c3.2-2.9,7.1-4.4,11.8-4.4s8.3,1.5,11.3,4.4c3,2.9,4.5,6.3,4.5,10.3s-1.4,8.1-4.3,10.7c-2.9,2.6-6.7,3.9-11.4,3.9Z"/></g></svg>