<?xml version="1.0" encoding="utf-8"?>
<!-- Generator: $$$/GeneralStr/196=Adobe Illustrator 27.6.0, SVG Export Plug-In . SVG Version: 6.00 Build 0)  -->
<svg version="1.1" id="Layer_1" xmlns="http://www.w3.org/2000/svg" xmlns:xlink="http://www.w3.org/1999/xlink" x="0px" y="0px"
	 viewBox="0 0 1420 4388" style="enable-background:new 0 0 1420 4388;" xml:space="preserve">
<style type="text/css">
	.st0{opacity:2.000000e-02;}
	.st1{fill:none;stroke:#000000;stroke-width:7.53;stroke-miterlimit:10;}
	.st2{opacity:0.52;fill:none;stroke:#000000;stroke-width:7.53;stroke-miterlimit:10;enable-background:new    ;}
	.st3{fill:none;stroke:#000000;stroke-width:4.89;stroke-miterlimit:10;}
	.st4{opacity:0.4;fill:none;stroke:#000000;stroke-width:4.89;stroke-miterlimit:10;enable-background:new    ;}
	.st5{opacity:0.24;fill:none;stroke:#000000;stroke-width:4.89;stroke-miterlimit:10;enable-background:new    ;}
	.st6{fill:none;stroke:#000000;stroke-width:4.86;stroke-miterlimit:10;}
	.st7{opacity:0.46;}
	.st8{opacity:0.78;fill:none;stroke:#000000;stroke-width:4.86;stroke-miterlimit:10;enable-background:new    ;}
	.st9{fill:none;stroke:#000000;stroke-width:6.1;stroke-miterlimit:10;}
	.st10{fill:none;stroke:#000000;stroke-width:5.24;stroke-miterlimit:10;}
	.st11{opacity:0.55;fill:none;stroke:#000000;stroke-width:5.24;stroke-miterlimit:10;enable-background:new    ;}
	.st12{fill:none;stroke:#000000;stroke-width:7.38;stroke-miterlimit:10;}
	.st13{opacity:0.23;fill:none;stroke:#000000;stroke-width:7.38;stroke-miterlimit:10;enable-background:new    ;}
	.st14{fill:none;stroke:#000000;stroke-width:6.55;stroke-miterlimit:10;}
	.st15{fill:none;stroke:#000000;stroke-width:6.56;stroke-miterlimit:10;}
	.st16{opacity:0.23;fill:none;stroke:#000000;stroke-width:6.56;stroke-miterlimit:10;enable-background:new    ;}
	.st17{fill:none;stroke:#000000;stroke-width:4.81;stroke-miterlimit:10;}
	.st18{fill:none;stroke:#000000;stroke-width:5.43;stroke-miterlimit:10;}
	.st19{fill:none;stroke:#000000;stroke-width:8.55;stroke-miterlimit:10;}
	.st20{fill:none;stroke:#000000;stroke-width:7.57;stroke-miterlimit:10;}
	.st21{fill:none;stroke:#000000;stroke-width:4.66;stroke-miterlimit:10;}
</style>
<g id="scapula" class="st0">
	<path class="st1" d="M891.4,4268.3c33.6-70.4,67.2-140.7,100.8-211c48.2-100.8,96.3-201.7,144.5-302.5c6.6-13.7,1-30.2-12.5-37.1
		c-13.6-6.9-30.2-1.9-37.5,11.5l-162.2,296.3l-111.3,203.2c-7.7,14-2.2,31.5,12.1,38.6c9.4,4.7,18.8,9.4,28.2,14
		C867.6,4288.3,884.6,4282.4,891.4,4268.3L891.4,4268.3z M863.7,4192.1c11.8-23,27-38.8,33.8-35.3c6.8,3.5,2.8,25-9,48
		s-27,38.8-33.8,35.3C847.9,4236.6,851.9,4215.1,863.7,4192.1L863.7,4192.1z"/>
	<path class="st1" d="M903.8,4171.3c6.8,3.5,2.8,25-9,48s-27,38.8-33.8,35.3c-3.1-1.6-4-6.8-2.9-14.2c7.7-1.5,20.3-15.9,30.4-35.7
		c6.5-12.7,10.6-24.9,11.9-33.9C901.7,4170.7,902.8,4170.8,903.8,4171.3L903.8,4171.3z"/>
	<path class="st1" d="M1130.5,3732.2c-13.6-6.9-30.2-1.9-37.5,11.5L930.8,4040l-111.3,203.2c-3,5.4-4,11.4-3.2,17
		c-7.2-8.6-8.8-21.1-3.1-31.5l111.3-203.2l162.2-296.3c7.3-13.4,23.9-18.4,37.5-11.5c8.6,4.4,13.9,12.6,15.1,21.5
		C1136.9,3736.3,1134,3733.9,1130.5,3732.2L1130.5,3732.2z"/>
	<path class="st1" d="M1251,3710.7l-34-12.5h0l-14.9-5.5l-44.8-16.5l-28-10.3l-67.7-24.9l-3-1.1v0l1.9,17.8l10.8,100.6
		c6.1,0.1,18.3,1,31.4,8.2c9,5,15.2,11.2,19.1,15.9c0.9,1.1,1.6,2,2.2,2.9c9.1-5.4,18.2-10.7,27.2-16.1
		c15.9-9.4,31.7-18.7,47.6-28.1c5.3-3.1,10.6-6.2,15.9-9.4c3.2-1.8,6.3-3.7,9.4-5.6h0C1233.2,3721.2,1242.1,3716,1251,3710.7
		L1251,3710.7z"/>
	<path class="st1" d="M891.4,4268.3c33.6-70.4,67.2-140.7,100.8-211c-6.6-3.4-13.3-6.8-20.2-10.2c-16.2-7.9-32.1-15.1-47.5-21.6
		l-111.3,203.2c-7.7,14-2.2,31.5,12.1,38.6c9.4,4.7,18.8,9.4,28.2,14C867.6,4288.3,884.6,4282.4,891.4,4268.3L891.4,4268.3z
		 M888.5,4204.8c-11.8,23-27,38.8-33.8,35.3c-6.8-3.5-2.8-25,9-48s27-38.8,33.8-35.3C904.3,4160.3,900.3,4181.8,888.5,4204.8
		L888.5,4204.8z"/>
	<path class="st1" d="M1006.9,3957.1c17-33.7,26.1-54.2,38.9-54.2c1.3,0,3.1,0,4.4,1.2c6.5,5.7-7.2,27.5-27.5,68.6
		c-20.2,40.7-28.2,62.6-40.5,62c-1.1-0.1-3.5-0.2-5.4-1.9C969.7,4026.1,982.2,4006.1,1006.9,3957.1L1006.9,3957.1z"/>
	<path class="st1" d="M940.3,4094.2c12.9-25.6,19.8-41.2,29.6-41.2c1,0,2.3,0,3.4,0.9c4.9,4.3-5.5,20.9-20.9,52.2
		c-15.3,31-21.4,47.6-30.8,47.1c-0.8,0-2.7-0.1-4.1-1.5C912,4146.7,921.6,4131.5,940.3,4094.2L940.3,4094.2z"/>
	<path class="st1" d="M1086.7,3840.7c13.4-26,21.5-48.5,18.2-50.2s-16.8,18.1-30.2,44.1c-13.4,26-21.5,48.5-18.2,50.2
		S1073.3,3866.7,1086.7,3840.7z"/>
	<path class="st1" d="M908.4,4162.4c6.8,3.5,2.8,25-9,48s-27,38.8-33.8,35.3c-2-1-3-3.5-3.3-7c7.6-4.7,17.7-17.4,26.2-33.9
		s12.9-32.1,12.3-41C903.8,4161.9,906.5,4161.4,908.4,4162.4L908.4,4162.4z"/>
	<path class="st1" d="M982.9,4052.6c-16.2-7.9-32.1-15.1-47.5-21.6l-111.3,203.2c-7.2,13.1-2.8,29.4,9.5,37.2
		c-2.8-1.4-5.6-2.8-8.3-4.1c-14.3-7.1-19.8-24.6-12.1-38.6l111.3-203.2c15.4,6.5,31.3,13.7,47.5,21.6c6.9,3.4,13.6,6.8,20.2,10.2
		c0,0,0,0,0,0C989.2,4055.7,986.1,4054.2,982.9,4052.6L982.9,4052.6z"/>
	<path class="st1" d="M1318.6,3470c-7.4-3.7-14.9-7.4-22.3-11.1c-20.7-10.3-41.4-20.6-62.1-30.8c-4.9-2.4-9.9-4.9-14.8-7.4
		c-3-1.5-6-3-9-4.5c-11.6-5.8-24-8.2-36-7.7c-10.2,0.4-20.1,3-29.1,7.5c-15,7.4-27.5,20.1-34.3,36.9l-44.2,108.1l-9.2,22.4
		c-7.7,18.8-6.8,39.1,1.1,56.5v0c0.8,1.8,1.7,3.6,2.7,5.4c6.8,12.4,17.3,22.9,30.8,29.9l85.8,44.1c7,3.6,14.4,6,21.8,7.2
		c5.1,0.8,10.2,1.1,15.2,0.9c3.1-0.1,6.1-0.5,9.1-1h0c19.6-3.4,37.5-14.7,48.6-32.6c3.1-5,6.2-10,9.4-15
		c22.1-35.3,44.2-70.6,66.3-105.9C1371.1,3537,1357.2,3489.2,1318.6,3470L1318.6,3470z M1157.3,3444.1c6.7,2.7,10,10.2,7.3,16.9
		l-26.4,66.4l-36.3,91.2c-0.2,0.4-0.3,0.8-0.5,1.1c-3,5.9-10.1,8.7-16.4,6.2c-6.7-2.7-10-10.2-7.3-16.9l62.7-157.6
		c0.7-1.7,1.7-3.2,3-4.4C1146.8,3443.4,1152.3,3442.1,1157.3,3444.1L1157.3,3444.1z M1216,3474.2c4.4,3.7,6.1,10,3.6,15.4l-5.3,11.6
		l-53.3,117l-11.8,25.8c-0.1,0.2-0.2,0.4-0.3,0.6c-3.2,6.2-10.7,8.8-17,5.9c-0.6-0.2-1.1-0.5-1.6-0.9c-5.4-3.4-7.6-10.4-4.9-16.4
		l6.9-15.1l33.3-73.1l0,0l30.1-66.2c3-6.6,10.7-9.5,17.3-6.5C1214.2,3472.9,1215.1,3473.5,1216,3474.2L1216,3474.2z M1273.9,3503.6
		c6.2,3.6,8.4,11.6,4.8,17.8l-56.9,99.1v0l-17.2,29.9v0l-10.4,18.1c-3.6,6.2-11.6,8.4-17.8,4.8c-6.1-3.5-8.3-11.1-5.1-17.3
		c0.1-0.2,0.2-0.4,0.3-0.5l36.8-64.1v0l17.2-29.9v0l30.5-53C1259.7,3502.2,1267.7,3500,1273.9,3503.6L1273.9,3503.6z M1333.4,3550.5
		l-47.7,74.4l-43.8,68.4c-3.9,6.1-12,7.8-18,3.9c-5.7-3.7-7.6-11-4.6-16.9c0.2-0.4,0.4-0.7,0.6-1.1l69.2-108.1v0l22.3-34.8
		c3.9-6.1,12-7.8,18-3.9C1335.5,3536.4,1337.3,3544.5,1333.4,3550.5L1333.4,3550.5z"/>
	<path class="st2" d="M1130.3,3649.7l2-31.5l5.8-90.6l-36.3,91.2c-0.2,0.4-0.3,0.8-0.5,1.1c-3,5.9-10.1,8.7-16.4,6.2
		c-6.7-2.7-10-10.2-7.3-16.9l62.7-157.6c0.7-1.7,1.7-3.2,3-4.4l2-30.9c-15,7.4-27.5,20.1-34.3,36.9l-44.2,108.1l-5.1,80l-0.3,4.3
		l-0.8,12.4l10.8,100.6c6.1,0.1,18.3,1,31.4,8.2c9,5,15.2,11.2,19.1,15.9l5.7-89.1l1.7-27.5"/>
	<path class="st1" d="M1213.1,3472.4c1.1,0.5,2.1,1.1,2.9,1.8l3.4-53.5c-3-1.5-6-3-9-4.5c-11.6-5.8-24-8.2-36-7.7l-8.7,136.4
		l30.1-66.2C1198.8,3472.3,1206.5,3469.4,1213.1,3472.4L1213.1,3472.4z"/>
	<path class="st1" d="M1198.9,3741.4l1-14.8l2.2-33.9l2.7-42.2l-10.4,18.1c-3.6,6.2-11.6,8.4-17.8,4.8c-6.1-3.5-8.3-11.1-5.1-17.3
		c0.1-0.2,0.2-0.4,0.3-0.5l36.8-64.1v0l5.8-90.2l-53.3,117l-3.7,58l-2,31.4l-3.9,61.8C1167.2,3760.1,1183.1,3750.7,1198.9,3741.4
		L1198.9,3741.4z"/>
	<path class="st1" d="M1282.3,3678.9l3.4-54l-43.8,68.4c-3.9,6.1-12,7.8-18,3.9c-5.7-3.7-7.6-11-4.6-16.9c0.2-0.4,0.4-0.7,0.6-1.1
		l69.2-108.1v0l7.2-112.3c-20.7-10.3-41.4-20.6-62.1-30.8l-8.5,133.4l30.4-53c3.6-6.2,11.6-8.4,17.8-4.8c6.2,3.6,8.4,11.6,4.8,17.8
		l-56.9,99.1v0l-5,77.7h0l-1.9,29.3l-0.3,4.6c3.2-1.8,6.3-3.7,9.4-5.6h0c19.6-3.4,37.5-14.7,48.6-32.6
		C1276,3688.9,1279.1,3684,1282.3,3678.9L1282.3,3678.9z"/>
</g>
<g id="microwave" class="st0">
	<path class="st3" d="M1054.9,2902.9l-26.4,292.5c0.9,0.1,1.8,0.1,2.7,0.2c16.8,1.3,37.4,1.5,60.7-1.7c17.7-2.4,33.3-6.2,46.4-10.2
		c0,0,0,0,0,0l98.3-21.9c21.6-4.8,37.8-22.9,40.2-44.9l20.7-192.9c0-16.1-4.5-39-25.8-55.2l-8.4,1.9l-112.7,25.1
		c-1.9-1.1-3.8-2.1-5.8-2.8c-18.4-6.9-52.2-1.4-54-1C1071.3,2896.4,1054.9,2902.9,1054.9,2902.9L1054.9,2902.9z"/>
	<path class="st4" d="M1031.1,3195.6c16.8,1.3,37.4,1.5,60.7-1.7c17.7-2.4,33.3-6.2,46.4-10.2c0,0,0,0,0,0l98.3-21.9
		c21.6-4.8,37.8-22.9,40.2-44.9l20.7-192.9c0-16.1-4.5-39-25.8-55.2l-8.4,1.9c0.6,48.6-8.5,211.1-57.4,252.1
		c-56.8,47.6-152.9,18.7-152.9,18.7L1031.1,3195.6L1031.1,3195.6z"/>
	<path class="st3" d="M603.7,2886c0.1,0.1,0.1,0.2,0.2,0.3c7.5,10.5,70.2-23.8,70.2-23.8c0.2-0.2,0.3-0.3,0.4-0.5l303.1,32.6
		c0,0,8.8,0.9,35,3.8l5.9,0.6c65.5,7,102.9,2.6,118-0.2l7.7-1.7c0.1,0,0.1,0,0.1,0l6.1-1.4l65.4-14.6l55.7-12.4
		c7.2,5.5,12.5,11.7,16.3,18.2c-0.7-1.4-12.7-24.8-42.7-31.3c-0.4-0.1-0.8-0.3-1.3-0.4c-0.6-0.2-1.2-0.3-1.8-0.4l-400.4-43.1
		c-26-2.8-52.3-1.3-77.9,4.4l-82.9,18.5c0,0,0,0,0,0l-26.2,5.8c-0.4,0.1-0.8,0.2-1.2,0.4c-0.1,0-0.2,0.1-0.3,0.1
		c-0.9,0.3-1.7,0.7-2.4,1.2c-0.2,0.1-0.4,0.1-0.7,0.2c-1.2,0.4-2.3,0.8-3.4,1.2c-2.7,1-5.3,2.1-7.7,3.2c0,0-24.6,11.6-34.4,31.4
		C604,2879.7,602.2,2883.3,603.7,2886L603.7,2886z"/>
	<path class="st3" d="M590.4,2905.5l-14.9,138.5c-6,56.3,33.3,106.6,87.8,112.5l369.5,39.7c24.1,2.6,45.8-15.5,48.5-40.3l23.4-217.5
		c2.7-24.9-14.7-47.1-38.8-49.7l-418.5-45c-16-1.7-31.7,5.7-40.9,19.4c-6.9,10.3-12.4,22.9-15.5,38.4
		C590.7,2902.7,590.5,2904.1,590.4,2905.5L590.4,2905.5z"/>
	<path class="st3" d="M589.4,2914.2l-14.3,133.4c-5.8,54.2,32.8,102.8,86.3,108.6l362.1,38.9c23.6,2.5,44.9-14.8,47.4-38.8
		l22.5-209.6c2.6-23.9-14.5-45.4-38.1-48l-410.1-44.1c-15.7-1.7-31.1,5.4-40,18.6c-6.7,9.9-12.1,22-15.2,36.9
		C589.8,2911.6,589.6,2912.9,589.4,2914.2L589.4,2914.2z"/>
	<path class="st3" d="M662.4,2927.8l-16.7,155.6c-2.5,23.6,14.5,44.8,38.2,47.4l304.8,32.8c22.5,2.4,42.8-12.9,46.9-34.8
		c0.2-1.1,0.4-2.2,0.5-3.4l16.7-155.6c2.5-23.6-14.6-44.8-38.2-47.4l-304.8-32.8c-16.5-1.8-31.8,6-40.4,18.9
		C665.6,2914.1,663.2,2920.6,662.4,2927.8L662.4,2927.8z"/>
	<path class="st3" d="M614.2,3030.2c-7.9-0.9-15,4.9-15.8,12.8c-0.8,7.9,4.9,15,12.8,15.8s15-4.9,15.8-12.8
		C627.8,3038.2,622.1,3031.1,614.2,3030.2z"/>
	<path class="st3" d="M621.2,2965.1c-10.7-1.1-20.3,6.6-21.5,17.3c-1.2,10.7,6.6,20.4,17.3,21.5c10.7,1.1,20.3-6.6,21.5-17.3
		C639.7,2975.9,631.9,2966.2,621.2,2965.1z"/>
	<path class="st3" d="M649.3,2949.7l-52-5.6c-3.2-0.3-5.6-3.3-5.2-6.5l2.7-25.1c0.3-3.2,3.3-5.6,6.5-5.2l52,5.6
		c3.2,0.3,5.6,3.3,5.2,6.5l-2.7,25.1C655.5,2947.7,652.5,2950.1,649.3,2949.7z"/>
	
		<rect x="595.1" y="2981.4" transform="matrix(0.107 -0.9943 0.9943 0.107 -2414.3904 3280.959)" class="st3" width="48.3" height="6.2"/>
	<path class="st3" d="M645.3,2946.2l-43.3-4.7c-2.7-0.3-4.7-2.7-4.4-5.4l2.2-20.9c0.3-2.7,2.7-4.7,5.4-4.4l43.3,4.7
		c2.7,0.3,4.7,2.7,4.4,5.4l-2.2,20.9C650.4,2944.5,648,2946.5,645.3,2946.2z"/>
	<path class="st3" d="M935.2,2913.9l49.5,249.2l3.9,0.4c22.5,2.4,42.8-12.9,46.9-34.8l-41.4-208.5L935.2,2913.9L935.2,2913.9z"/>
	<polygon class="st3" points="766.2,2895.7 815.7,3144.9 855,3149.1 805.5,2899.9 	"/>
	<polygon class="st3" points="837.2,2903.3 886.6,3152.6 960.7,3160.5 911.3,2911.3 	"/>
	<path class="st3" d="M669.4,2908.5l44.8,225.5l74.1,8l-49.5-249.2l-29-3.1C693.3,2887.8,678,2895.6,669.4,2908.5L669.4,2908.5z"/>
	<path class="st3" d="M1054.3,2983.6c0,0-119.9,50.5-13.9,129.4L1054.3,2983.6z"/>
	<path class="st3" d="M1264.7,2882.7c3.7,3.5,3.8,9.4,2.7,13.3c-3.4,12.6-23.4,16.7-48.9,21.5c-22.4,4.3-49.6,9.5-57.2-2.1
		c-0.5-0.8-2.6-4-1.7-7.5c2.4-8.9,21.7-7,49.7-13.3C1242,2887.2,1257,2875.4,1264.7,2882.7L1264.7,2882.7z"/>
	<path class="st3" d="M1116.7,2919.9c1,6.2,10.2,9.8,20.6,8.1c10.4-1.7,17.9-8.1,16.9-14.2c-1-6.2-10.2-9.8-20.6-8.1
		C1123.2,2907.3,1115.6,2913.7,1116.7,2919.9z"/>
	<path class="st3" d="M1035.1,3008.3c-7.1-2.6-24.4,14.4-27.5,34.3c-2.2,14.1,2.9,29.1,11.4,35.4c2.2,1.6,3.3,1.7,4.1,1.4
		c4.4-1.8-4.3-17.9,1.6-32.9c4.5-11.5,13.5-12.2,14.9-23.2C1040.4,3017.8,1039.1,3009.8,1035.1,3008.3L1035.1,3008.3z"/>
	<path class="st5" d="M646.8,2843.6c65-3.9,171.2-5.7,256.8,14.1c93.6,21.7,212.5,3.2,274.8-9.7l-336.6-36.2
		c-26-2.8-52.3-1.3-77.9,4.4l-82.9,18.5c0,0,0,0,0,0l-26.2,5.8c-0.4,0.1-0.8,0.2-1.2,0.4c-0.1,0-0.2,0.1-0.3,0.1
		c-0.9,0.3-1.7,0.7-2.4,1.2c-0.2,0.1-0.4,0.1-0.7,0.2C649,2842.8,647.9,2843.2,646.8,2843.6L646.8,2843.6z"/>
	<path class="st3" d="M1018,2908.3c0.5-3-26.1-8.1-39.5-10.7c-26.8-5.1-34.3-3.2-38,0.2c-1.1,1-2.3,2.1-2.1,3.3
		C940.2,2910.6,1017.2,2913.3,1018,2908.3L1018,2908.3z"/>
	<path class="st3" d="M923,2898.1c0.4-3-12.7-6.7-19.3-8.5c-13.2-3.7-17.1-1.3-19.2,2.2c-0.6,1.1-1.3,2.2-1.2,3.4
		C883.6,2904.6,922.3,2903.1,923,2898.1L923,2898.1z"/>
	<path class="st3" d="M638.5,2986.6c1.1-10.2-5.9-19.4-15.8-21.2c1.2-0.1,2.4-0.1,3.6,0c10.7,1.1,18.5,10.8,17.3,21.5
		c-1.2,10.7-10.8,18.5-21.5,17.3c-0.5-0.1-1.1-0.1-1.6-0.2C629.8,3003.3,637.5,2996.1,638.5,2986.6L638.5,2986.6z"/>
	<path class="st3" d="M626.9,3046.1c0.8-7.4-4.2-14.1-11.2-15.6c0.5,0,1,0,1.5,0.1c7.9,0.9,13.6,7.9,12.8,15.8
		c-0.8,7.9-7.9,13.6-15.8,12.8c-0.5-0.1-1-0.1-1.5-0.2C619.9,3058.9,626.1,3053.5,626.9,3046.1L626.9,3046.1z"/>
</g>
<g id="refrigerator" class="st0">
	<path class="st6" d="M-5.2,3400.6l114.8,860.7c3.1,23.4,14.8,43.6,31.5,57.8c0,0,0,0,0,0c0,0,0.1,0.1,0.1,0.1s0.1,0.1,0.1,0.1
		c52.9,47,164.8,34,164.8,34l16.4-19.1l8.5-9.9l140.3-18.7c50.1-6.7,85.2-52.8,78.5-103l-114.8-860.7c-0.3-2.4-0.7-4.8-1.2-7.1
		c-0.2-1.1-0.5-2.1-0.7-3.1c-3.3-12.7-9.4-24.2-17.5-33.7c35.9-0.9,68.6-5.1,82.6-14.3c0,0-45.9-22.7-144.7-15.8
		c-1.6-0.1-3.3-0.1-4.9,0c0,0-0.1,0-0.1,0c-0.1,0-0.2,0-0.4,0c-0.1,0-0.3,0-0.4,0h0c-2.7,0.1-5.5,0.3-8.2,0.7l-271.5,36.2
		c-0.4,0.1-0.9,0.1-1.3,0.2c-20.3,3-37.9,13.1-50.7,27.3c-1.9,2.1-3.8,4.4-5.5,6.8C-2,3356.1-8.2,3377.9-5.2,3400.6L-5.2,3400.6z"/>
	<g class="st7">
		<path class="st6" d="M483.8,3289.9c-2.6,0.8-5.4,1.5-8.4,2.1c-0.5-0.6-1-1.2-1.5-1.8C477.2,3290.1,480.5,3290,483.8,3289.9
			L483.8,3289.9z"/>
	</g>
	<path class="st6" d="M42.8,3312.4c-0.4,3.6,36.7,11.4,90.8,20.7c7.4-6.1,16.6-10.3,26.8-11.7l334.8-44.7c4.2-0.6,8.3-0.6,12.3-0.2
		c2.9,0.3,5.7,0.8,8.4,1.5c-18.9-6.4-65.7-18.2-143.6-12.7c-1.8-0.1-3.5-0.1-5.2,0c0,0-0.1,0-0.1,0c-0.1,0-0.2,0-0.4,0
		c-0.1,0-0.3,0-0.4,0h0c-2.9,0.1-5.8,0.4-8.7,0.7l-287.8,38.4c-0.5,0.1-0.9,0.1-1.4,0.2C57.7,3306.4,43.1,3310.2,42.8,3312.4
		L42.8,3312.4z"/>
	<path class="st6" d="M208.7,3620.1l-0.3,0.4C208.5,3620.5,274.6,3609.3,208.7,3620.1z"/>
	<path class="st6" d="M157.8,3704.1l80.4,603c4,30.1,31.6,51.2,61.7,47.2l351.4-46.9c19-2.5,32.3-20,29.8-39l-85.8-643.1
		c-2.5-19-20-32.3-39-29.8l-351.4,46.9C174.9,3646.4,153.8,3674,157.8,3704.1L157.8,3704.1z"/>
	<path class="st6" d="M114.7,3381.2l28.8,215.7c3.9,29.1,30.6,49.6,59.8,45.7l354.8-47.3c18.1-2.4,30.8-19,28.3-37.1l-31.5-235.8
		c-3.3-25-23.5-43.6-47.5-45.9c-4-0.4-8.1-0.3-12.3,0.2l-334.8,44.7C131.3,3325.3,110.8,3352.1,114.7,3381.2L114.7,3381.2z"/>
	<path class="st6" d="M253.2,3844.5c20.2,46.1,27.5,161.4,34.4,218.9c9.3,77,30.6,154.5,11.1,174.5c-1.7,1.7-6.6,6.9-12.1,5.6
		c-11.6-2.7-16-32.3-17.6-41.9c-8.4-52.4-61.1-316.2-42.5-367.6c1-2.9,4-11.1,9.1-11.6C243.2,3821.6,250.7,3838.7,253.2,3844.5
		L253.2,3844.5z"/>
	<path class="st6" d="M211.5,3757c2.4,18.1,11.1,32,19.3,30.9c8.2-1.1,12.9-16.7,10.5-34.9c-2.4-18.1-11.1-32-19.3-30.9
		C213.8,3723.3,209.1,3738.9,211.5,3757z"/>
	<path class="st6" d="M180.3,3440.6c15,15.4,14.2,56.7,16.8,77.1c3.4,27.3,17.4,54-1,62.5c-1.6,0.7-6.3,2.9-11,2.8
		c-10.1-0.2-12.1-10.7-12.9-14.1c-4.2-18.5-34.2-110.7-14.7-130.5c1.1-1.1,4.2-4.3,8.7-4.8C172.9,3432.9,178.4,3438.6,180.3,3440.6
		L180.3,3440.6z"/>
	<path class="st6" d="M146,3384.2c1.8,13.8,9.2,24.2,16.6,23.3c7.3-1,11.7-13,9.9-26.8c-1.8-13.8-9.2-24.2-16.6-23.3
		C148.5,3358.4,144.1,3370.4,146,3384.2z"/>
	<path class="st6" d="M136.8,3324.6l23.6-3.1c-29.1,3.9-49.6,30.6-45.7,59.8l28.8,215.7c3.9,29.1,30.6,49.6,59.8,45.7l-23.6,3.1
		c-29.1,3.9-55.9-16.6-59.8-45.7l-28.8-215.7C87.2,3355.3,107.7,3328.5,136.8,3324.6z"/>
	<path class="st6" d="M181.4,3645.6l23.6-3.1c-30.1,4-51.2,31.6-47.2,61.7l80.4,603c4,30.1,31.6,51.2,61.7,47.2l-23.6,3.1
		c-30.1,4-57.7-17.1-61.7-47.2l-80.4-603C130.2,3677.2,151.3,3649.6,181.4,3645.6L181.4,3645.6z"/>
	<path class="st8" d="M201.4,3629l354.8-47.3c18.1-2.4,30.8-19,28.3-37.1l1.8,13.6c2.4,18.1-10.3,34.7-28.3,37.1l-354.8,47.3
		c-29.1,3.9-55.9-16.6-59.8-45.7l-1.8-13.6C145.5,3612.4,172.3,3632.9,201.4,3629z"/>
	<path class="st6" d="M517.4,3535.5c-2.9-4.7-1.5-10.9,3.2-13.8l20.3-12.7c-6.6-61.4-14.9-128.3-18.1-139.6
		c-3.2-2.8-14.2-8.2-24.7-12.1l0,0c-5.2-1.9-7.9-7.7-5.9-12.8c1.9-5.2,7.6-7.9,12.9-5.9c10.6,3.9,29.1,11.6,34.8,20
		c2,3,4.3,6.4,13.4,82.1c4.4,36.3,8.2,72.2,8.3,72.6c0.4,3.8-1.4,7.5-4.6,9.6l-25.6,16c-1.2,0.8-2.6,1.2-4,1.4
		C523.4,3540.6,519.5,3538.9,517.4,3535.5L517.4,3535.5z M522.5,3368.4L522.5,3368.4z"/>
	<path class="st6" d="M539.2,3374.4c3.3,1.3,3.7,7.6,3.8,9.6c1.8,25.4,7.9,50.3,10.1,75.6c0.2,1.8,0.6,6.5-1.7,7.8
		c0,0-0.9,0.5-2.2,0.3c-5.6-1-9.2-30.9-9.8-35.3c-4.3-35-7.8-56.4-2.8-58.1C537,3374.2,538.1,3374,539.2,3374.4L539.2,3374.4z"/>
	<path class="st6" d="M520.5,3521.7l20.3-12.7c-6.6-61.4-14.9-128.3-18.1-139.6c-3.2-2.8-14.2-8.2-24.7-12.1
		c-5.2-1.9-7.9-7.7-5.9-12.8c1.6-4.2,5.7-6.8,10-6.5c-2.8,0.9-5.2,3.1-6.2,6.1c-1.9,5.2,0.8,10.9,5.9,12.8
		c10.5,3.9,21.5,9.3,24.7,12.1c3.2,11.4,11.5,78.2,18.1,139.6l-20.3,12.7c-4.7,2.9-6.1,9.1-3.2,13.8c1.8,2.9,4.8,4.5,8,4.7
		c-0.6,0.2-1.2,0.4-1.9,0.4c-3.8,0.5-7.7-1.2-9.8-4.6C514.4,3530.8,515.9,3524.6,520.5,3521.7z"/>
	<path class="st6" d="M556.1,3825.7c-2.9-4.7-1.5-10.9,3.2-13.8l20.3-12.7c-6.6-61.4-14.9-128.3-18.1-139.6
		c-3.2-2.8-14.2-8.2-24.7-12.1l0,0c-5.2-1.9-7.8-7.7-5.9-12.8c1.9-5.2,7.7-7.9,12.8-5.9c10.5,3.9,29.1,11.6,34.8,20
		c2,3,4.3,6.4,13.4,82.1c4.4,36.3,8.2,72.2,8.3,72.6c0.4,3.8-1.4,7.5-4.6,9.6l-25.6,16c-1.2,0.8-2.6,1.2-4,1.4
		C562.1,3830.8,558.2,3829.1,556.1,3825.7L556.1,3825.7z M561.2,3658.6L561.2,3658.6z"/>
	<path class="st6" d="M577.9,3664.6c3.3,1.3,3.7,7.6,3.8,9.6c1.8,25.4,7.9,50.3,10.1,75.6c0.2,1.8,0.6,6.5-1.7,7.8
		c0,0-0.9,0.5-2.2,0.3c-5.6-1-9.2-30.9-9.8-35.3c-4.3-35-7.8-56.4-2.8-58.1C575.7,3664.4,576.8,3664.2,577.9,3664.6L577.9,3664.6z"
		/>
	<path class="st6" d="M559.3,3811.9l20.3-12.7c-6.6-61.4-14.9-128.3-18.1-139.6c-3.2-2.8-14.2-8.2-24.7-12.1
		c-5.2-1.9-7.8-7.7-5.9-12.8c1.6-4.2,5.7-6.8,10-6.5c-2.8,0.9-5.2,3.1-6.2,6.1c-1.9,5.2,0.8,10.9,5.9,12.8
		c10.5,3.9,21.5,9.3,24.7,12.1c3.2,11.4,11.5,78.2,18.1,139.6l-20.3,12.7c-4.7,2.9-6.1,9.1-3.2,13.8c1.8,2.9,4.8,4.5,8,4.7
		c-0.6,0.2-1.2,0.4-1.9,0.4c-3.8,0.5-7.7-1.2-9.8-4.6C553.2,3821,554.6,3814.8,559.3,3811.9z"/>
</g>
<g id="refrigerator-2" class="st0">
	<path class="st6" d="M1412.8,3400.6l114.8,860.7c3.1,23.4,14.8,43.6,31.5,57.8c0,0,0,0,0,0c0,0,0.1,0.1,0.1,0.1s0.1,0.1,0.1,0.1
		c52.9,47,164.8,34,164.8,34l16.4-19.1l8.5-9.9l140.3-18.7c50.1-6.7,85.2-52.8,78.5-103l-114.8-860.7c-0.3-2.4-0.7-4.8-1.2-7.1
		c-0.2-1.1-0.5-2.1-0.7-3.1c-3.3-12.7-9.4-24.2-17.4-33.7c35.9-0.9,68.6-5.1,82.6-14.3c0,0-45.9-22.7-144.7-15.8
		c-1.7-0.1-3.3-0.1-4.9,0c-0.1,0-0.1,0-0.1,0c-0.1,0-0.2,0-0.4,0c-0.1,0-0.3,0-0.4,0h0c-2.7,0.1-5.5,0.3-8.2,0.7l-271.5,36.2
		c-0.4,0.1-0.9,0.1-1.3,0.2c-20.3,3-37.9,13.1-50.7,27.3c-1.9,2.1-3.8,4.4-5.5,6.8C1416,3356.1,1409.8,3377.9,1412.8,3400.6
		L1412.8,3400.6z"/>
</g>
<g id="hodgepodge" class="st0">
	<path class="st9" d="M521.2,2336.6v304.1h218.9v-304.1c0-25.4-20.6-45.9-45.9-45.9H567.1C541.7,2290.6,521.2,2311.2,521.2,2336.6
		L521.2,2336.6z"/>
	<ellipse class="st9" cx="630.6" cy="2640.7" rx="108.7" ry="20.7"/>
	<path class="st9" d="M533.6,2287.7c0,4,0.5,7.6,1,10.5c0,2.4,1.7,4.8,4.9,7c0.9,0.6,1.9,1.2,3,1.8c6.1,3.2,15.5,6.1,27.3,8.3
		c1,0.2,2,0.4,3,0.5c8.2,1.4,17.4,2.5,27.3,3.3c1,0.1,2,0.1,3,0.2c8.7,0.6,17.8,0.9,27.3,0.9h0.3c0.9,0,1.8,0,2.7,0
		c9.5-0.1,18.7-0.4,27.3-1.1c1-0.1,2-0.1,3-0.2c10-0.8,19.2-2,27.3-3.5c1-0.2,2-0.4,3-0.6c12.2-2.4,21.7-5.6,27.3-9.2
		c1.2-0.8,2.2-1.5,3-2.3c1.7-1.6,2.6-3.3,2.6-5.1h0.4c0.9-2.4,2.1-6.4,2-11.5c-0.1-4.6-1.1-8.2-2-10.5h-14.2c-1.3,0.4-3.1,0.7-5,0.7
		s-3.7-0.2-5-0.7h-37.3c-0.6,0.2-1.2,0.3-1.9,0.4c-0.9,0.1-1.9,0.2-3,0.2h-0.2c-1.9,0-3.7-0.2-5-0.7h-23.5c-0.5,0.1-1,0.3-1.6,0.4
		c-1,0.2-2.2,0.3-3.5,0.3c-1.9,0-3.7-0.2-5-0.7h-21.5c-0.1,0-0.2,0.1-0.3,0.1c-1.3,0.4-3,0.6-4.8,0.6c-1.9,0-3.7-0.2-5-0.7h-32.3
		c-1.3,0.4-3.1,0.7-5,0.7s-3.7-0.2-5-0.7h-13.2C534,2279.3,533.6,2283.2,533.6,2287.7L533.6,2287.7z M677.6,2283.2
		c0-1.4,3.3-2.5,7.4-2.5c2.3,0,4.4,0.4,5.8,0.9c1,0.4,1.7,1,1.7,1.6s-0.6,1.1-1.7,1.6c-1.3,0.6-3.4,0.9-5.8,0.9
		C680.9,2285.7,677.6,2284.6,677.6,2283.2z M641.1,2287.2c0-1.4,3.3-2.5,7.4-2.5s7.4,1.1,7.4,2.5s-3.3,2.5-7.4,2.5
		S641.1,2288.5,641.1,2287.2z M604.6,2288.1c0-1.4,3.3-2.5,7.4-2.5s7.4,1.1,7.4,2.5s-3.3,2.5-7.4,2.5S604.6,2289.5,604.6,2288.1z
		 M567.1,2283.2c0-0.8,1-1.4,2.6-1.9c0.8-0.2,1.8-0.4,3-0.5c0.6-0.1,1.2-0.1,1.8-0.1c4.1,0,7.4,1.1,7.4,2.5s-3.3,2.5-7.4,2.5
		c-0.6,0-1.2,0-1.8-0.1c-1.1-0.1-2.1-0.3-3-0.5C568.2,2284.7,567.1,2284,567.1,2283.2L567.1,2283.2z"/>
	<path class="st9" d="M721,2276.1v29.4c1.2-0.8,2.2-1.5,3-2.3v-27.1L721,2276.1L721,2276.1z"/>
	<path class="st9" d="M692.4,2283.2c0,0.6-0.6,1.1-1.7,1.6v30.6c1-0.2,2-0.4,3-0.6v-38.6h-3v5.5
		C691.8,2282.1,692.4,2282.6,692.4,2283.2z"/>
	<path class="st9" d="M660.5,2276.8v42.3c1-0.1,2-0.1,3-0.2v-42.3C662.5,2276.7,661.5,2276.8,660.5,2276.8z"/>
	<path class="st9" d="M630.2,2276.5v43.7h0.3c0.9,0,1.8,0,2.7,0v-44h-1.4C631.4,2276.3,630.8,2276.4,630.2,2276.5L630.2,2276.5z"/>
	<path class="st9" d="M600,2276.2v42.8c1,0.1,2,0.1,3,0.2v-43.1h-2.7C600.2,2276.2,600.1,2276.2,600,2276.2L600,2276.2z"/>
	<path class="st9" d="M569.8,2276.1v5.2c0.8-0.2,1.8-0.4,3-0.5v-4.7L569.8,2276.1L569.8,2276.1z"/>
	<path class="st9" d="M572.7,2285.6c-1.1-0.1-2.1-0.3-3-0.5v30.1c1,0.2,2,0.4,3,0.5V2285.6L572.7,2285.6z"/>
	<path class="st9" d="M539.5,2276.1v29c0.9,0.6,1.9,1.2,3,1.8v-30.8H539.5z"/>
	<path class="st9" d="M534.6,2276.1c0,2.4,1.7,4.8,4.9,7c0.9,0.6,1.9,1.2,3,1.8c6.1,3.2,15.5,6.1,27.3,8.3c1,0.2,2,0.4,3,0.5
		c8.2,1.4,17.4,2.5,27.3,3.3c1,0.1,2,0.1,3,0.2c8.7,0.6,17.8,0.9,27.3,0.9h0.3c0.9,0,1.8,0,2.7,0c9.5-0.1,18.7-0.4,27.3-1.1
		c1-0.1,2-0.1,3-0.2c10-0.8,19.2-2,27.3-3.5c1-0.2,2-0.4,3-0.6c12.2-2.4,21.7-5.6,27.3-9.2c1.2-0.8,2.2-1.5,3-2.3
		c1.7-1.6,2.6-3.3,2.6-5.1c0-12.2-43-22-96-22S534.6,2264,534.6,2276.1L534.6,2276.1z M700.3,2274.3c0-1.4,3.3-2.5,7.4-2.5
		s7.4,1.1,7.4,2.5c0,0.7-0.9,1.4-2.4,1.8c-1.3,0.4-3.1,0.7-5,0.7s-3.7-0.2-5-0.7C701.2,2275.7,700.3,2275.1,700.3,2274.3z
		 M677.6,2283.2c0-1.4,3.3-2.5,7.4-2.5c2.3,0,4.4,0.4,5.8,0.9c1,0.4,1.7,1,1.7,1.6s-0.6,1.1-1.7,1.6c-1.3,0.6-3.4,0.9-5.8,0.9
		C680.9,2285.7,677.6,2284.6,677.6,2283.2z M675.6,2266.5c0-1.4,3.3-2.5,7.4-2.5s7.4,1.1,7.4,2.5s-3.3,2.5-7.4,2.5
		S675.6,2267.8,675.6,2266.5z M660.3,2276.8c-1.9,0-3.7-0.2-5-0.7c-1.5-0.4-2.4-1.1-2.4-1.8c0-1.4,3.3-2.5,7.4-2.5s7.4,1.1,7.4,2.5
		c0,0.7-0.9,1.4-2.4,1.8c-0.6,0.2-1.2,0.3-1.9,0.4c-0.2,0-0.5,0.1-0.7,0.1c-0.2,0-0.4,0.1-0.6,0.1c-0.5,0-1,0.1-1.6,0.1
		L660.3,2276.8L660.3,2276.8z M641.1,2287.2c0-1.4,3.3-2.5,7.4-2.5s7.4,1.1,7.4,2.5s-3.3,2.5-7.4,2.5S641.1,2288.5,641.1,2287.2z
		 M638.1,2261.5c0-1.4,3.3-2.5,7.4-2.5s7.4,1.1,7.4,2.5s-3.3,2.5-7.4,2.5S638.1,2262.9,638.1,2261.5z M619.4,2274.4
		c0-1.4,3.3-2.5,7.4-2.5s7.4,1.1,7.4,2.5c0,0.7-0.9,1.4-2.4,1.8c-0.5,0.1-1,0.3-1.6,0.4c-1,0.2-2.2,0.3-3.5,0.3
		c-1.9,0-3.7-0.2-5-0.7C620.3,2275.7,619.4,2275.1,619.4,2274.4L619.4,2274.4z M604.6,2288.2c0-1.4,3.3-2.5,7.4-2.5s7.4,1.1,7.4,2.5
		s-3.3,2.5-7.4,2.5S604.6,2289.5,604.6,2288.2z M603.6,2261.5c0-1.4,3.3-2.5,7.4-2.5s7.4,1.1,7.4,2.5s-3.3,2.5-7.4,2.5
		S603.6,2262.9,603.6,2261.5z M587.8,2274.4c0-1.4,3.3-2.5,7.4-2.5s7.4,1.1,7.4,2.5c0,0.7-0.9,1.4-2.4,1.8c-0.1,0-0.2,0.1-0.3,0.1
		c-1.3,0.4-3,0.6-4.8,0.6c-1.9,0-3.7-0.2-5-0.7C588.8,2275.7,587.8,2275.1,587.8,2274.4L587.8,2274.4z M576.5,2268.9
		c-4.1,0-7.4-1.1-7.4-2.5s3.3-2.5,7.4-2.5s7.4,1.1,7.4,2.5S580.6,2268.9,576.5,2268.9z M567.1,2283.2c0-0.8,1-1.4,2.6-1.9
		c0.3-0.1,0.6-0.1,0.9-0.2c0.2,0,0.3-0.1,0.5-0.1c0.3-0.1,0.6-0.1,0.9-0.1c0.2,0,0.4-0.1,0.7-0.1c0.6-0.1,1.2-0.1,1.8-0.1
		c4.1,0,7.4,1.1,7.4,2.5s-3.3,2.5-7.4,2.5c-0.6,0-1.2,0-1.8-0.1c-0.2,0-0.4,0-0.7-0.1c-0.3,0-0.6-0.1-0.9-0.1
		c-0.2,0-0.4-0.1-0.5-0.1c-0.3-0.1-0.6-0.1-0.9-0.2C568.2,2284.7,567.1,2284,567.1,2283.2z M545.4,2274.4c0-1.4,3.3-2.5,7.4-2.5
		s7.4,1.1,7.4,2.5c0,0.7-0.9,1.4-2.4,1.8c-1.3,0.4-3.1,0.7-5,0.7s-3.7-0.2-5-0.7C546.4,2275.7,545.4,2275.1,545.4,2274.4z"/>
	<path class="st9" d="M549.8,2416.3v162.9c0,6.3,2.4,12.1,6.2,16.6c4.6,5.2,11.3,8.5,18.8,8.5H686c13.8,0,25.1-11.2,25.1-25.1
		v-162.9c0-13.8-11.2-25.1-25.1-25.1H574.8C561,2391.2,549.8,2402.4,549.8,2416.3z"/>
	<path class="st9" d="M674.6,2343.9c-25.6,2.9-44.5-2.5-48.3,5.9c-0.9,1.9-1.2,5.2,0,7.9c2,4.5,7.7,6.1,11.8,6.9
		c30.8,6.4,66.1-3,66.1-3c22-5.8,26.5-10.3,27.6-14.8c0.8-3.4-0.1-8-3-10.9C720.8,2327.8,705.2,2340.4,674.6,2343.9L674.6,2343.9z"
		/>
	<path class="st9" d="M575.7,2350.1c-0.7-2.5,0.4-5.3,1.8-6.9c3.5-4,10.4-2.8,18.7-1.4c8,1.4,14,2.6,16.9,7.6c0.6,1,2.4,4.1,1.2,6.6
		C610.6,2363.6,578.5,2360.3,575.7,2350.1z"/>
	<path class="st9" d="M655.9,2391.2c0,0,43.4,1,44.4,26.6c0.5,14.2,4.4,52.2,8.1,89.1c0,0,0,0.1,0,0.1c0,0,0,0,0,0.1
		c0.9,9.3,1.8,18.5,2.7,27.3v-118.1c0-13.8-11.2-25.1-25.1-25.1L655.9,2391.2L655.9,2391.2z"/>
	<path class="st9" d="M556,2595.7c4.6,5.2,11.3,8.5,18.8,8.5H686c13.8,0,25.1-11.2,25.1-25.1v-74.1l-2.7,1.8c0,0,0,0.1,0,0.1
		c0,0,0,0,0,0.1c0.1,3.4,1.4,56.2-8.2,69.5c-9.9,13.8-9.9,16.8-52.3,19.7C613.6,2598.7,581.2,2603,556,2595.7L556,2595.7z"/>
	<path class="st9" d="M549.8,2416.3v56.1c1.7-16.1,3.9-33.4,6.5-47.7c5.1-27.7,40.5-32.8,58.6-33.5h-40
		C561,2391.2,549.8,2402.4,549.8,2416.3L549.8,2416.3z"/>
	<path class="st9" d="M576.6,2572.4c4.7-6.6,3.6-19.9,3.2-25.6c-3.3-51.5,10.5-86.8-1.1-99.7c-1.1-1.3-2.2-2.4-3.6-2.1
		c-12.7,3-19.2,124.5-5.9,131C571.5,2577.3,574.7,2575.2,576.6,2572.4L576.6,2572.4z"/>
	<path class="st9" d="M591.3,2556.9c-8.1-1.8-8.9-79.5,0-82.8c0.2-0.1,0.8-0.3,1.4,0c3.5,1.6,2.5,15.2,2.8,32.5
		c0.6,28.1,4.5,41-1.4,48.3C593.2,2556,592.3,2557.1,591.3,2556.9z"/>
	<path class="st9" d="M679.5,2453.4c8,2.6,7.4,110.6-1.6,115.2c-0.2,0.1-0.8,0.4-1.4,0c-3.5-2.2-2.2-21.2-2.2-45.3
		c-0.1-39.1-3.7-57.1,2.3-67.2C677.6,2454.5,678.5,2453,679.5,2453.4L679.5,2453.4z"/>
	<path class="st9" d="M748.7,2271.7l104.2,285.7l205.7-75l-104.2-285.7c-8.7-23.8-35.1-36.1-58.9-27.4l-119.4,43.5
		C752.2,2221.5,740,2247.9,748.7,2271.7L748.7,2271.7z"/>
	<path class="st9" d="M853.5,2557.2c3.9,10.8,52.8,2.8,109.2-17.8c56.4-20.6,99-45.9,95.1-56.7c-3.9-10.8-52.8-2.8-109.2,17.8
		C892.2,2521.1,849.6,2546.5,853.5,2557.2L853.5,2557.2z"/>
	<path class="st9" d="M743.6,2221.6c1.4,3.8,3,7,4.5,9.5c0.8,2.3,3.3,3.9,7,4.9c1,0.3,2.2,0.5,3.4,0.6c6.9,0.9,16.7,0.4,28.5-1.6
		c1-0.2,2-0.3,3-0.5c8.2-1.5,17.2-3.6,26.8-6.2c0.9-0.3,1.9-0.5,2.8-0.8c8.3-2.4,17-5.2,26-8.5l0.3-0.1c0.8-0.3,1.7-0.6,2.5-0.9
		c8.9-3.3,17.4-6.8,25.3-10.4c0.9-0.4,1.8-0.8,2.7-1.2c9.1-4.2,17.3-8.5,24.4-12.7c0.9-0.5,1.7-1,2.6-1.6
		c10.7-6.5,18.5-12.7,22.5-18c0.8-1.1,1.5-2.2,2-3.2c1-2.1,1.3-4,0.7-5.7l0.3-0.1c0-2.5-0.3-6.7-2.1-11.5c-1.6-4.3-3.9-7.3-5.5-9.2
		l-13.3,4.9c-1.1,0.8-2.7,1.7-4.5,2.3c-1.8,0.7-3.6,1-5,1.1l-35,12.8c-0.5,0.4-1,0.7-1.6,1.1c-0.8,0.4-1.7,0.9-2.7,1.2l-0.2,0.1
		c-1.8,0.7-3.6,1-5,1.1l-22,8c-0.4,0.3-0.8,0.6-1.3,0.9c-0.9,0.5-2,1-3.1,1.4c-1.8,0.7-3.6,1-5,1.1l-20.2,7.4
		c-0.1,0.1-0.2,0.1-0.2,0.2c-1.1,0.8-2.6,1.6-4.3,2.2c-1.8,0.7-3.6,1-5,1.1l-30.4,11.1c-1.1,0.8-2.7,1.7-4.5,2.3
		c-1.8,0.7-3.6,1-5,1.1l-12.4,4.5C741.1,2213.5,742,2217.4,743.6,2221.6L743.6,2221.6z M877.3,2168c-0.5-1.3,2.3-3.4,6.1-4.9
		c2.2-0.8,4.2-1.2,5.7-1.1c1.1,0,1.9,0.3,2.1,0.9c0.2,0.6-0.2,1.3-1,2c-1.1,1-2.9,2-5.1,2.8C881.3,2169.2,877.8,2169.3,877.3,2168
		L877.3,2168z M844.4,2184.2c-0.5-1.3,2.3-3.4,6.1-4.9c3.8-1.4,7.3-1.5,7.8-0.2c0.5,1.3-2.3,3.4-6.1,4.9S844.9,2185.5,844.4,2184.2z
		 M810.5,2197.7c-0.5-1.3,2.3-3.4,6.1-4.9c3.8-1.4,7.3-1.5,7.8-0.2c0.5,1.3-2.3,3.4-6.1,4.9S810.9,2198.9,810.5,2197.7z
		 M773.6,2205.9c-0.3-0.7,0.5-1.7,1.8-2.7c0.7-0.5,1.6-1,2.6-1.5c0.5-0.2,1.1-0.5,1.7-0.7c3.8-1.4,7.3-1.5,7.8-0.2
		c0.5,1.3-2.3,3.4-6.1,4.9c-0.6,0.2-1.2,0.4-1.7,0.5c-1.1,0.3-2.1,0.5-3,0.5C775,2206.8,773.8,2206.6,773.6,2205.9L773.6,2205.9z"/>
	<path class="st9" d="M915.7,2146.5l10.1,27.6c0.8-1.1,1.5-2.2,2-3.2l-9.3-25.5L915.7,2146.5z"/>
	<path class="st9" d="M891.2,2163c0.2,0.6-0.2,1.3-1,2l10.5,28.7c0.9-0.5,1.7-1,2.6-1.6l-13.2-36.3l-2.8,1l1.9,5.2
		C890.3,2162.1,891,2162.4,891.2,2163L891.2,2163z"/>
	<path class="st9" d="M859.1,2167.9l14.5,39.7c0.9-0.4,1.8-0.8,2.7-1.2l-14.5-39.7C861,2167.1,860.1,2167.5,859.1,2167.9
		L859.1,2167.9z"/>
	<path class="st9" d="M830.6,2178l15,41l0.3-0.1c0.8-0.3,1.7-0.6,2.5-0.9l-15.1-41.4l-1.3,0.5C831.5,2177.4,831.1,2177.7,830.6,2178
		L830.6,2178z"/>
	<path class="st9" d="M802.1,2188.1l14.7,40.2c0.9-0.3,1.9-0.5,2.8-0.8l-14.8-40.5l-2.5,0.9C802.2,2187.9,802.1,2188,802.1,2188.1
		L802.1,2188.1z"/>
	<path class="st9" d="M773.6,2198.3l1.8,4.9c0.7-0.5,1.6-1,2.6-1.5l-1.6-4.4L773.6,2198.3L773.6,2198.3z"/>
	<path class="st9" d="M779.7,2206.2c-1.1,0.3-2.1,0.5-3,0.5L787,2235c1-0.2,2-0.3,3-0.5L779.7,2206.2L779.7,2206.2z"/>
	<path class="st9" d="M745.2,2208.7l9.9,27.3c1,0.3,2.2,0.5,3.4,0.6l-10.5-28.9L745.2,2208.7z"/>
	<path class="st9" d="M740.6,2210.4c0.8,2.3,3.3,3.9,7,4.9c1,0.3,2.2,0.5,3.4,0.6c6.9,1,16.7,0.4,28.5-1.5c1-0.2,2-0.3,3-0.5
		c8.2-1.5,17.2-3.6,26.8-6.2c0.9-0.3,1.9-0.5,2.8-0.8c8.3-2.4,17-5.2,26-8.5l0.3-0.1c0.8-0.3,1.7-0.6,2.5-0.9
		c8.9-3.3,17.4-6.8,25.3-10.4c0.9-0.4,1.8-0.8,2.7-1.2c9.1-4.2,17.3-8.5,24.4-12.7c0.9-0.5,1.7-1,2.6-1.6
		c10.7-6.5,18.5-12.7,22.5-18c0.8-1.1,1.5-2.2,2-3.2c1-2.1,1.3-4,0.7-5.7c-4.2-11.4-47.9-6-97.7,12.2
		C773.4,2175,736.4,2199,740.6,2210.4L740.6,2210.4z M895.6,2151.9c-0.5-1.3,2.3-3.4,6.1-4.9c3.8-1.4,7.3-1.5,7.8-0.2
		c0.2,0.7-0.4,1.6-1.6,2.5c-1.1,0.8-2.7,1.7-4.5,2.3c-1.8,0.7-3.6,1-5,1.1C896.9,2152.9,895.8,2152.6,895.6,2151.9L895.6,2151.9z
		 M877.3,2168.1c-0.5-1.3,2.3-3.4,6.1-4.9c2.2-0.8,4.2-1.2,5.7-1.1c1.1,0,1.9,0.3,2.1,0.9c0.2,0.6-0.2,1.3-1,2c-1.1,1-2.9,2-5.1,2.8
		C881.3,2169.2,877.8,2169.3,877.3,2168.1L877.3,2168.1z M869.8,2153c-0.5-1.3,2.3-3.4,6.1-4.9c3.8-1.4,7.3-1.5,7.8-0.2
		c0.5,1.3-2.3,3.4-6.1,4.9C873.7,2154.2,870.2,2154.3,869.8,2153z M858.9,2167.9c-1.8,0.7-3.6,1-5,1.1c-1.5,0.1-2.6-0.2-2.8-0.9
		c-0.5-1.3,2.3-3.4,6.1-4.9c3.8-1.4,7.3-1.5,7.8-0.2c0.2,0.7-0.4,1.6-1.6,2.5c-0.5,0.4-1,0.7-1.6,1.1c-0.2,0.1-0.4,0.2-0.7,0.3
		c-0.2,0.1-0.4,0.2-0.6,0.3c-0.5,0.2-1,0.4-1.5,0.6L858.9,2167.9L858.9,2167.9z M844.4,2184.2c-0.5-1.3,2.3-3.4,6.1-4.9
		c3.8-1.4,7.3-1.5,7.8-0.2c0.5,1.3-2.3,3.4-6.1,4.9S844.9,2185.5,844.4,2184.2z M832.9,2161.2c-0.5-1.3,2.3-3.4,6.1-4.9
		c3.8-1.4,7.3-1.5,7.8-0.2c0.5,1.3-2.3,3.4-6.1,4.9C836.8,2162.3,833.3,2162.4,832.9,2161.2z M819.7,2179.6
		c-0.5-1.3,2.3-3.4,6.1-4.9c3.8-1.4,7.3-1.5,7.8-0.2c0.2,0.7-0.4,1.6-1.6,2.5c-0.4,0.3-0.8,0.6-1.3,0.9c-0.9,0.5-2,1-3.1,1.4
		c-1.8,0.7-3.6,1-5,1.1C821,2180.6,819.9,2180.3,819.7,2179.6L819.7,2179.6z M810.5,2197.7c-0.5-1.3,2.3-3.4,6.1-4.9
		c3.8-1.4,7.3-1.5,7.8-0.2c0.5,1.3-2.3,3.4-6.1,4.9S810.9,2198.9,810.5,2197.7z M800.4,2173c-0.5-1.3,2.3-3.4,6.1-4.9
		c3.8-1.4,7.3-1.5,7.8-0.2c0.5,1.3-2.3,3.4-6.1,4.9C804.4,2174.2,800.9,2174.3,800.4,2173z M790,2190.4c-0.5-1.3,2.3-3.4,6.1-4.9
		c3.8-1.4,7.3-1.5,7.8-0.2c0.2,0.7-0.4,1.6-1.6,2.5c-0.1,0.1-0.2,0.1-0.2,0.2c-1.1,0.8-2.6,1.6-4.3,2.2c-1.8,0.7-3.6,1-5,1.1
		C791.3,2191.4,790.2,2191.1,790,2190.4L790,2190.4z M777.5,2189.2c-3.8,1.4-7.3,1.5-7.8,0.2c-0.5-1.3,2.3-3.4,6.1-4.9
		c3.8-1.4,7.3-1.5,7.8-0.2C784.1,2185.7,781.3,2187.8,777.5,2189.2z M773.6,2205.9c-0.3-0.7,0.5-1.7,1.8-2.7
		c0.2-0.2,0.5-0.3,0.7-0.5c0.1-0.1,0.3-0.2,0.5-0.3c0.2-0.1,0.5-0.3,0.8-0.4c0.2-0.1,0.4-0.2,0.6-0.3c0.5-0.2,1.1-0.5,1.7-0.7
		c3.8-1.4,7.3-1.5,7.8-0.2c0.5,1.3-2.3,3.4-6.1,4.9c-0.6,0.2-1.2,0.4-1.7,0.5c-0.2,0.1-0.4,0.1-0.6,0.2c-0.3,0.1-0.6,0.1-0.9,0.2
		c-0.2,0-0.3,0.1-0.5,0.1c-0.3,0.1-0.6,0.1-0.9,0.1C775,2206.9,773.9,2206.6,773.6,2205.9L773.6,2205.9z M750.2,2205
		c-0.5-1.3,2.3-3.4,6.1-4.9c3.8-1.4,7.3-1.5,7.8-0.2c0.2,0.7-0.4,1.6-1.6,2.5c-1.1,0.8-2.7,1.7-4.5,2.3c-1.8,0.7-3.6,1-5,1.1
		C751.5,2205.9,750.4,2205.6,750.2,2205L750.2,2205z"/>
	<path class="st9" d="M802.8,2336.8l55.8,153c2.2,6,6.4,10.6,11.5,13.4c6.1,3.3,13.5,4.1,20.6,1.6l104.5-38.1
		c13-4.7,19.7-19.1,15-32.1l-55.8-153c-4.7-13-19.1-19.7-32.1-15l-104.5,38.1C804.8,2309.4,798.1,2323.8,802.8,2336.8L802.8,2336.8z
		"/>
	<path class="st9" d="M895.3,2226c-23.1,11.5-42.6,12.9-43.4,22.1c-0.2,2.1,0.6,5.3,2.7,7.4c3.5,3.5,9.3,3,13.5,2.4
		c31.1-4.6,61.1-25.4,61.1-25.4c18.7-13,21.4-18.8,20.9-23.4c-0.4-3.5-2.8-7.4-6.5-9.2C933.3,2195.1,922.8,2212.3,895.3,2226
		L895.3,2226z"/>
	<path class="st9" d="M804.5,2265.7c-1.5-2.1-1.4-5.1-0.7-7.1c1.9-5,8.8-6.2,17.1-7.7c8-1.4,14-2.4,18.5,1.3
		c0.9,0.8,3.7,3.1,3.4,5.8C842,2266.5,810.7,2274.4,804.5,2265.7L804.5,2265.7z"/>
	<path class="st9" d="M894,2276.9c0,0,41.1-13.9,50.8,9.8c5.4,13.2,22,47.5,38.2,80.9c0,0,0,0.1,0,0.1c0,0,0,0,0,0.1
		c4.1,8.4,8.1,16.8,11.9,24.7l-40.4-110.9c-4.7-13-19.1-19.7-32.1-15L894,2276.9L894,2276.9z"/>
	<path class="st9" d="M870.1,2503.3c6.1,3.3,13.5,4.1,20.6,1.6l104.5-38.1c13-4.7,19.7-19.1,15-32.1l-25.4-69.6l-1.9,2.6
		c0,0,0,0.1,0,0.1c0,0,0,0,0,0.1c1.2,3.2,20.5,52.3,16.2,68.1c-4.5,16.4-3.5,19.1-42.3,36.4C925.3,2486.4,896.4,2501.5,870.1,2503.3
		L870.1,2503.3z"/>
	<path class="st9" d="M802.8,2336.8l19.2,52.8c-3.9-15.7-7.8-32.8-10.2-47c-4.7-27.8,26.8-44.6,43.5-51.6l-37.6,13.7
		C804.8,2309.4,798.1,2323.8,802.8,2336.8L802.8,2336.8z"/>
	<path class="st9" d="M881.5,2474.3c2.1-7.8-3.4-19.9-5.7-25.1c-20.8-47.2-19.8-85.1-35.2-93.3c-1.5-0.8-2.9-1.5-4.1-0.7
		c-10.9,7.1,24.6,123.6,39.3,125.1C878.4,2480.6,880.7,2477.6,881.5,2474.3L881.5,2474.3z"/>
	<path class="st9" d="M890,2454.7c-8.2,1.1-35.6-71.6-28.4-77.8c0.2-0.1,0.6-0.5,1.3-0.5c3.9,0.2,7.5,13.4,13.8,29.6
		c10.2,26.2,18.3,37,15.2,45.9C891.5,2453.3,891,2454.6,890,2454.7L890,2454.7z"/>
	<path class="st9" d="M937.4,2327.2c8.4-0.3,44.8,101.4,38,108.7c-0.1,0.1-0.6,0.6-1.3,0.5c-4.1-0.9-9.3-19.1-17.6-41.8
		c-13.5-36.7-23.1-52.4-20.8-63.9C936,2329,936.4,2327.3,937.4,2327.2z"/>
</g>
<g id="pan_2" class="st0">
	<path class="st10" d="M1296.4,1104l28.9,165.9c0.3,1.7,0.5,3.5,0.5,5.2c0.4,12.3-5.1,24.4-14.8,34.6
		c-11.9,12.5-30.2,22.2-51.6,25.9l-227.6,39.7c-41.5,7.2-79.2-10.5-84.3-39.6l-28.9-165.9L1296.4,1104L1296.4,1104z"/>
	<path class="st10" d="M1311.1,1309.8c-11.9,12.5-30.2,22.2-51.6,25.9l-227.6,39.7c-41.5,7.2-79.2-10.5-84.3-39.6l-28.9-165.9
		l28.2-4.9c1.7,12.7,13.4,98.7,30.6,150.8c2.5,7.4,7.3,21,23.8,30c19.4,10.6,44.8,9.4,61.7,7.9
		C1126.9,1348.2,1248.4,1323.3,1311.1,1309.8L1311.1,1309.8z"/>
	
		<rect x="1052.9" y="1026.8" transform="matrix(0.9851 -0.1718 0.1718 0.9851 -165.5749 203.8354)" class="st10" width="84.4" height="64"/>
	<path class="st10" d="M1306.4,1116.5L913,1185.1c-1.3,0.2-2.5-0.6-2.7-1.9l-4.6-26.6c-4.4-25,12.4-48.7,37.3-53.1l307.7-53.7
		c25-4.4,48.7,12.4,53.1,37.3l4.6,26.6C1308.6,1115,1307.7,1116.2,1306.4,1116.5L1306.4,1116.5z"/>
	<path class="st10" d="M1304.8,1129.7l-385.5,67.2c-6.9,1.2-13.5-3.4-14.7-10.3l-0.2-1.4c-1.2-6.9,3.4-13.5,10.3-14.7l385.5-67.2
		c6.9-1.2,13.5,3.4,14.7,10.3l0.2,1.4C1316.3,1121.9,1311.7,1128.5,1304.8,1129.7z"/>
	<path class="st10" d="M1163.2,1015.3c3.7,21.2-26.7,44.2-67.8,51.4s-77.5-4.2-81.2-25.4c-3.7-21.2,26.6-44.2,67.8-51.4
		C1123.2,982.7,1159.5,994.1,1163.2,1015.3L1163.2,1015.3z"/>
	<path class="st10" d="M1230.7,1165.9c-11.4,14.7-6.2,30.1-3.9,37.3c18.4,58.1,11.2,88.4,31.5,89.8c0.4,0,7.4,0.8,12.6-2.8
		c8.1-5.6,3.6-21.6-3.8-63.7c-8.5-48.5-12.9-70.8-23.4-70.6C1238.2,1156.1,1233.3,1162.4,1230.7,1165.9L1230.7,1165.9z"/>
	<path class="st10" d="M1195.8,1189.1c0,0,9.7,106.7,21.2,100.4S1210.1,1162.7,1195.8,1189.1z"/>
	<path class="st10" d="M1279.2,1079.5c0,0-151.5,16.5-143.2,29.1S1315.8,1094.2,1279.2,1079.5z"/>
	<path class="st10" d="M1114.8,1107.2c-17.8-1.7-36.1,4.8-35.7,8.8c0.3,3.1,11.6,4.5,17.2,4.7c15.8,0.6,31.2-6.5,30.6-10.1
		C1126.6,1108.3,1119.4,1107.6,1114.8,1107.2z"/>
	<path class="st10" d="M1000.2,1217.5c0,0,9.7,106.7,21.2,100.4C1032.9,1311.6,1014.4,1191.1,1000.2,1217.5z"/>
	<path class="st10" d="M1294.1,1155.4c0,0,96.6-92,133.9-70.9c37.3,21-82.6,48.3-111.6,118.5c-14.3,8-29.6,10.9-36.4,5.1
		C1271.4,1200.7,1273.7,1177.3,1294.1,1155.4L1294.1,1155.4z"/>
	<path class="st10" d="M1280,1208c6.8,5.9,22.2,2.9,36.4-5.1c29-70.1,149-97.4,111.6-118.5c-0.1-0.1-0.2-0.1-0.3-0.1
		c-37.5-20.5-133.7,71.1-133.7,71.1c-7.4,8-12.5,16.1-15.4,23.6C1273.5,1192.2,1274.5,1203.3,1280,1208L1280,1208z"/>
	<path class="st10" d="M1278.7,1179.1c4.3,1.2,8.9,1,10.7,1c25.7-0.7,37.4-22.5,66.7-48c29-25.1,56.8-37.8,71.7-47.8
		c-37.5-20.5-133.7,71.1-133.7,71.1C1286.7,1163.4,1281.7,1171.6,1278.7,1179.1L1278.7,1179.1z"/>
	<path class="st10" d="M1292.2,1189c0.7,3.7,3.9,6.4,7.6,6.6c0.6,0,1.3,0,1.9-0.1s1.3-0.3,1.8-0.6c3.5-1.4,5.6-5.1,4.9-8.8
		s-3.9-6.4-7.6-6.6c-0.6,0-1.3,0-1.9,0.1s-1.3,0.3-1.8,0.6C1293.7,1181.6,1291.6,1185.2,1292.2,1189z"/>
	<path class="st10" d="M1297.2,1180.2l2.7,15.4c0.6,0,1.3,0,1.9-0.1s1.3-0.3,1.8-0.6l-2.7-15.4c-0.6,0-1.3,0-1.9,0.1
		S1297.7,1179.9,1297.2,1180.2z"/>
	<path class="st10" d="M1104.5,1018.3c0,0-24.5,8.1-57.8,10.1c-5.3,0.3-19.2-1.7-21.5,3.7c-1.2,2.7,1,6,1.3,6.3
		c10.6,16.1,84.1-3.6,83.5-15.1C1109.8,1021.2,1107,1019.5,1104.5,1018.3L1104.5,1018.3z"/>
	<path class="st10" d="M1138.2,1018.9c0.6,3.5-3.7,7.1-9.6,8.1c-5.9,1-11.2-0.9-11.8-4.4c-0.6-3.5,3.7-7.1,9.6-8.2
		C1132.4,1013.5,1137.6,1015.4,1138.2,1018.9L1138.2,1018.9z"/>
	<path class="st11" d="M1159.5,1006.5c-2.3,19.3-30.7,38.8-67.9,45.3c-35,6.1-66.5-1.2-77.4-16.6c-0.2,2-0.2,4.1,0.2,6.1
		c3.7,21.2,40,32.6,81.2,25.4c41.1-7.2,71.5-30.2,67.8-51.4C1162.7,1012.1,1161.4,1009.2,1159.5,1006.5L1159.5,1006.5z"/>
	<path class="st10" d="M1017.4,1044.6c-3.6-20.5,25.8-42.8,65.6-49.7c39.8-7,75,4.1,78.6,24.6c0.6,3.3,0.3,6.7-0.8,10.1
		c2.3-4.7,3.2-9.5,2.4-14.3c-3.7-21.2-40-32.6-81.2-25.4c-41.1,7.2-71.5,30.2-67.8,51.4c0.9,5.2,3.8,9.9,8.3,13.8
		C1019.9,1051.9,1018.1,1048.4,1017.4,1044.6L1017.4,1044.6z"/>
	<path class="st10" d="M1669.2,1007.6c-10.6-19.4-86,2.6-116.6,11.6c-41.1,12-98.2,32.4-164.1,68.8c4.8,11.1,9.6,22.2,14.4,33.4
		c53.8-12.7,252.7-61.2,266.3-101.7C1669.9,1017.4,1671.7,1012.1,1669.2,1007.6L1669.2,1007.6z M1622.7,1023.7
		c-14.3,3.7-26.9,3.1-28-1.4c-1.1-4.4,9.6-11,23.9-14.7c14.3-3.7,26.9-3,28,1.4C1647.7,1013.5,1637,1020,1622.7,1023.7z"/>
	<path class="st10" d="M1669.2,1007.6c-1.6-2.9-4.7-4.9-8.9-6.2c-0.2,0.7-0.4,1.2-0.5,1.6c-13.4,40.1-207.7,87.9-264.2,101.3
		c2.4,5.7,4.9,11.3,7.3,17c53.8-12.7,252.7-61.2,266.3-101.7C1669.9,1017.4,1671.7,1012.1,1669.2,1007.6L1669.2,1007.6z"/>
</g>
<g id="pan_2-2" class="st0">
	<path class="st10" d="M-117.9,1155.4c0,0,96.6-92,133.9-70.9c37.3,21-82.6,48.3-111.6,118.5c-14.3,8-29.6,10.9-36.4,5.1
		C-140.6,1200.7-138.3,1177.3-117.9,1155.4L-117.9,1155.4z"/>
	<path class="st10" d="M-132,1208c6.8,5.9,22.2,2.9,36.4-5.1c29-70.1,149-97.4,111.6-118.5c-0.1-0.1-0.2-0.1-0.3-0.1
		c-37.5-20.5-133.7,71.1-133.7,71.1c-7.4,8-12.5,16.1-15.4,23.6C-138.5,1192.2-137.4,1203.3-132,1208L-132,1208z"/>
	<path class="st10" d="M-133.3,1179.1c4.3,1.2,8.9,1,10.7,1c25.7-0.7,37.4-22.5,66.7-48c29-25.1,56.8-37.8,71.7-47.8
		c-37.5-20.5-133.7,71.1-133.7,71.1C-125.3,1163.4-130.3,1171.6-133.3,1179.1L-133.3,1179.1z"/>
	<path class="st10" d="M257.2,1007.6c-10.6-19.4-86,2.6-116.6,11.6c-41.1,12-98.2,32.4-164.1,68.8c4.8,11.1,9.6,22.2,14.4,33.4
		c53.8-12.7,252.7-61.2,266.3-101.7C257.9,1017.4,259.7,1012.1,257.2,1007.6L257.2,1007.6z M210.7,1023.7c-14.3,3.7-26.9,3.1-28-1.4
		c-1.1-4.4,9.6-11,23.9-14.7c14.3-3.7,26.9-3,28,1.4C235.7,1013.5,225,1020,210.7,1023.7z"/>
	<path class="st10" d="M257.2,1007.6c-1.6-2.9-4.7-4.9-8.9-6.2c-0.2,0.7-0.4,1.2-0.5,1.6c-13.4,40.1-207.7,87.9-264.2,101.3
		c2.4,5.7,4.9,11.3,7.3,17c53.8-12.7,252.7-61.2,266.3-101.7C257.9,1017.4,259.7,1012.1,257.2,1007.6L257.2,1007.6z"/>
	<path class="st10" d="M79.4,1047c0,0,88.1-35.6,93.8-25.4c5.6,10.1-41.3,22.4-75.8,32.4C63,1064,60.6,1057.4,79.4,1047L79.4,1047z"
		/>
	<path class="st10" d="M51.8,1059.2c0,0-34.3,11.2-32.2,16C21.8,1080,80.3,1059.4,51.8,1059.2z"/>
</g>
<g id="wineglass" class="st0">
	
		<rect x="907.9" y="638.7" transform="matrix(0.9897 -0.1433 0.1433 0.9897 -100.564 139.8502)" class="st12" width="25.2" height="258.6"/>
	<path class="st12" d="M775.2,360.5l31.6,218.2c1.7,11.8,6.5,22.4,13.5,31.5c2.8,3.6,6,7,9.5,10.1c7.7,6.8,17,12.1,27.2,15.7
		c3.5,1.2,7.1,2.3,10.9,3c10.7,2.3,22.2,2.8,33.9,1.1c5.3-0.8,10.3-1.9,15.2-3.5c38.4-12,63.8-46.3,58.6-82.4L944.1,336
		c-0.1-0.4-0.2-0.8-0.3-1.2c-1.2-2.9-4.9-5.3-10.7-7.1c-10.3-3.2-27-4.4-46.9-3.3c-9.3,0.5-19.2,1.5-29.6,3
		C810,334.1,773.5,348.9,775.2,360.5L775.2,360.5z"/>
	
		<rect x="920" y="637.9" transform="matrix(0.9897 -0.1433 0.1433 0.9897 -100.3846 140.7064)" class="st12" width="12.9" height="258.6"/>
	<path class="st12" d="M794,343.7l25.8,178.5c5.9,40.6,48.5,68.1,95.1,61.3c25.4-3.7,46.8-16.8,60-34.5l0.8,5.2
		c5.9,40.6-27.2,79.1-73.8,85.8c-46.7,6.8-89.2-20.7-95.1-61.3l-31.6-218.3C774.4,355.2,781.6,349.3,794,343.7L794,343.7z"/>
	<path class="st12" d="M775.2,360.5c1.7,11.5,40.8,15.4,87.5,8.7c46.7-6.8,83.1-21.6,81.4-33.1s-40.8-15.4-87.5-8.7
		C810,334.1,773.5,348.9,775.2,360.5L775.2,360.5z"/>
	<path class="st12" d="M949.6,881.3l90.1,22.3c-21.7,9.8-55.2,22.1-97.9,27.8c-38.9,5.2-71.5,3-94.1,0c25.6-15.5,51.3-31,76.9-46.5
		L949.6,881.3L949.6,881.3z"/>
	<path class="st12" d="M926.1,385.4c0,0,21.5,123.2,13.2,124.1C931,510.4,898.2,343.3,926.1,385.4z"/>
	<path class="st12" d="M937.2,541.7c1.4,9.6,5.3,17,8.8,16.5s5.1-8.7,3.7-18.3c-1.4-9.6-5.3-17-8.8-16.5S935.8,532.1,937.2,541.7z"
		/>
	<path class="st12" d="M921.7,334.4c-6.1,4.1-21.7-0.4-42.7,4.4c-4.6,1-10.8,2.8-15.7,2c-1.8-0.3-3.9-1-3.7-2
		c0.1-0.4,0.7-1.9,12-4.5c19.6-4.5,49.2-6.9,51.6-2.7C923.7,332.4,922.9,333.6,921.7,334.4L921.7,334.4z"/>
	<path class="st12" d="M826.5,345.1c0.3,1.9,6.1,2.7,13,1.7s12.3-3.4,12-5.3s-6.1-2.7-13-1.7C831.6,340.9,826.2,343.2,826.5,345.1
		L826.5,345.1z"/>
	<path class="st12" d="M1000.7,911.6c0,0-23.4,13.5-63.7,10.6c-2.4-0.2-6.4-0.6-6.9-2.4c-0.4-1.6,2.2-3.5,3.1-4.2
		c9.7-7.2,26.8,0.1,44.4-6.4c9.9-3.7,15.3-10,27-9.6c1.8,0.1,6.3,0.2,6.9,2.2C1012.4,904.8,1003.7,909.8,1000.7,911.6L1000.7,911.6z
		"/>
	<path class="st12" d="M872,659.7c1.7,11.6,17.3,19,35,16.4s30.6-14,28.9-25.7c-0.5-3.8-2.6-7.1-5.6-9.7c-2.6-2.2-5.9-4-9.7-5.3
		c-5.7-1.8-12.5-2.4-19.7-1.4c-7.1,1-13.5,3.5-18.4,6.9c-3,2-5.5,4.5-7.3,7C872.6,651.6,871.4,655.7,872,659.7L872,659.7z"/>
	<path class="st12" d="M883.1,687c1.1,7.3,13.1,11.6,26.9,9.6c13.8-2,24.1-9.5,23.1-16.8c-1.1-7.3-13.1-11.6-26.9-9.6
		C892.4,672.2,882,679.7,883.1,687z"/>
	<path class="st12" d="M896,661c5.5-0.8,9.8-3.1,9.5-5.1s-5-3-10.6-2.2c-5.5,0.8-9.8,3.1-9.5,5.1S890.5,661.8,896,661z"/>
	<path class="st12" d="M900.2,691.4c4.9-0.7,8.7-2.8,8.4-4.7c-0.3-1.9-4.5-2.9-9.4-2.2c-4.9,0.7-8.7,2.8-8.4,4.7
		C891.1,691.2,895.3,692.1,900.2,691.4z"/>
	<path class="st12" d="M819.8,522.2l-24.6-169.7c0.4-0.2,0.9-0.4,1.3-0.6l25.8,178.5c0.3,2.2,0.8,4.4,1.3,6.6
		C821.9,532.2,820.6,527.3,819.8,522.2L819.8,522.2z"/>
	<path class="st12" d="M875.2,648c9.4,1.5,19.2,1.7,29.3,0.2c9.2-1.3,17.8-3.9,25.8-7.4c-2.6-2.2-5.9-4-9.7-5.3
		c-5.9,2.1-12.1,3.7-18.7,4.6c-6.6,1-13.1,1.2-19.4,0.9C879.5,643,877,645.4,875.2,648L875.2,648z"/>
	<path class="st13" d="M868,639c10.7,2.3,22.2,2.8,33.9,1.1c5.3-0.8,10.3-1.9,15.2-3.5L968.9,507l-12.8-88.6L868,639L868,639z"/>
	<path class="st13" d="M829.9,620.2c7.7,6.8,17,12.1,27.2,15.7l95.7-239.8l-8.7-60.1c-0.1-0.4-0.2-0.8-0.3-1.2L829.9,620.2
		L829.9,620.2z"/>
	<path class="st13" d="M800.9,538.1l5.9,40.6c1.7,11.8,6.5,22.4,13.5,31.5l102.3-256.3c-13.5,5.7-32.5,10.8-53.9,14.3L800.9,538.1
		L800.9,538.1z"/>
</g>
<g id="corkscrew" class="st0">
	<path class="st14" d="M331.4,204.4c14,9,27.2,19.8,37.1,32.8c4.9,6.5,8.9,13.7,10.5,21.2c0.4,1.9,0.6,3.7,0.6,5.6
		c0,1.8-0.2,3.6-0.6,5.4c-0.8,3.4-2.7,7-4.9,10.1c-2.3,3.1-5,6-8,8c-0.7,0.6-1.5,0.9-2.3,1.4c-0.8,0.3-1.6,0.7-2.4,0.9
		c-1.6,0.5-3.2,0.6-4.8,0.5c-3.2-0.3-6.4-2.2-8.7-4.7c-2.4-2.5-3.4-5.6-3.4-9.1c0-3.5,1.1-7.2,2.9-10.5c1.8-3.4,4.2-6.5,7.1-9
		c2.9-2.5,6.1-4.5,9.6-5.6c3.5-1.1,7.1-1,10.6-0.1c3.6,1,7,2.8,10.3,5.1c3.5,2.4,6.4,4.8,9.3,7.8c5.6,5.8,10.1,12.8,13.2,20.2
		c3.1,7.4,4.8,15.6,3.4,23c-0.4,1.8-0.9,3.6-1.7,5.3c-0.8,1.6-1.8,3.1-3,4.5c-2.4,2.8-5.6,5.1-9.1,6.7c-1.7,0.8-3.5,1.4-5.3,1.7
		c-1.8,0.3-3.5,0.4-5.2,0.1c-1.6-0.3-3.1-0.9-4.4-1.9c-1.3-1-2.4-2.3-3.3-3.8c-1.7-3-2.5-6.9-2.3-10.4c0.2-3.6,1.8-6.7,4.3-9.3
		c5.2-5.1,13.4-7.8,21.2-8.1c7.8-0.2,15.4,2.6,21.4,7.8c3,2.6,5.7,5.6,8,8.9c2.3,3.3,4.3,6.9,5.9,10.6c1.6,3.7,2.8,7.6,3.5,11.6
		c0.7,4,1.1,8.1,1,12.2c-0.1,4-0.7,8-2.1,11.4c-1.4,3.4-3.9,6-7.1,7.3c-1.6,0.7-3.5,1-5.3,1.2c-1.9,0.1-3.8,0-5.6-0.4
		c-3.7-0.7-7.2-2.5-9.3-5c-2.2-2.6-2.6-6-1.6-9.5c1-3.5,3.1-6.9,5.7-9.7c2.7-2.8,5.9-4.7,9.6-5.7c3.7-1,7.7-1.1,11.6-0.6
		c7.8,1.1,15.5,4.6,21.4,10c5.9,5.3,9.4,12.8,10.2,20.8c0.9,8-0.4,16.3-3.3,23.9c-1.5,3.8-3.4,7.4-5.9,10.4c-1.2,1.5-2.6,2.7-4,3.3
		c-0.7,0.3-1.2,0.4-1.9,0.3c-0.6-0.1-1.4-0.3-2.1-0.7c-1.5-0.8-3-2-4.2-3.4c-1.3-1.5-2.4-3-3.4-4.8c-0.9-1.7-1.7-3.5-2.2-5.3
		c-0.4-1.8-0.6-3.6-0.1-5c0.3-1.4,1.4-2.5,2.9-3.5c1.5-1,3.3-1.7,5.2-2.3c3.8-1.1,7.9-1.5,12-1.4c8.1,0.2,16.4,2.2,23.2,6.4
		c6.9,4.1,11.7,11,14.1,18.7c1.2,3.9,1.8,7.9,2,12c0.1,4.1-0.2,8.2-0.9,12.3c-1.5,8.1-4.6,15.9-8.9,23.1l3.7,2.2
		c4.5-7.5,7.9-15.8,9.5-24.5c0.8-4.4,1.1-8.8,1-13.2c-0.2-4.5-0.9-8.9-2.2-13.2c-1.3-4.3-3.4-8.4-6-12.1c-1.3-1.9-2.9-3.5-4.5-5.1
		c-1.7-1.6-3.5-2.9-5.5-4.1c-7.8-4.8-16.7-6.9-25.6-7.2c-4.5-0.1-9,0.3-13.4,1.6c-2.2,0.6-4.4,1.5-6.5,2.9c-1,0.6-2,1.5-2.9,2.5
		c-0.9,1-1.6,2.3-2,3.7c-0.8,2.7-0.5,5.3,0,7.6c0.6,2.4,1.5,4.5,2.6,6.5c2.3,4,5.2,7.7,9.7,10.3c1.1,0.6,2.5,1.1,3.9,1.2
		c1.5,0.2,3.1-0.1,4.4-0.7c2.5-1.2,4.3-2.9,5.9-4.7c3-3.6,5.1-7.6,6.8-11.8c3.2-8.3,4.7-17.4,3.8-26.4c-0.5-4.5-1.6-9-3.6-13.2
		c-1.9-4.2-4.8-7.9-8.1-11.1c-6.7-6.2-15.3-10.2-24.3-11.5c-4.5-0.6-9.2-0.5-13.8,0.7c-4.6,1.2-9,3.8-12.2,7.2
		c-3.3,3.4-5.8,7.4-7.2,12.1c-0.6,2.4-0.9,4.9-0.5,7.5c0.4,2.6,1.6,5.2,3.2,7.1c3.3,4,8,6.2,12.7,7.1c2.3,0.5,4.7,0.7,7.1,0.5
		c2.4-0.2,4.8-0.6,7.1-1.5c1.1-0.5,2.3-1,3.4-1.8l1.6-1.1c0.5-0.4,0.9-0.9,1.4-1.3c1-0.9,1.6-1.9,2.4-3c0.7-1,1.2-2.1,1.7-3.2
		c1.9-4.5,2.5-9.1,2.7-13.6c0.1-4.5-0.3-9-1-13.4c-0.8-4.5-2.1-8.8-3.8-12.9c-3.5-8.3-8.6-15.9-15.5-21.9c-0.9-0.7-1.7-1.5-2.7-2.1
		l-2.9-1.9l-3.1-1.7c-1-0.6-2.1-0.9-3.2-1.4c-4.4-1.6-9.1-2.5-13.8-2.3c-4.6,0.1-9.2,1-13.5,2.5c-4.4,1.6-8.6,3.9-12.1,7.4
		c-1.7,1.8-3.2,3.8-4.3,6.1c-0.3,0.5-0.5,1.2-0.7,1.8c-0.2,0.6-0.5,1.2-0.6,1.8c-0.3,1.2-0.5,2.5-0.6,3.7c-0.4,4.9,0.6,9.9,3,14.3
		c1.2,2.2,2.9,4.2,5,5.9c2.1,1.6,4.7,2.7,7.2,3.2c2.6,0.5,5.2,0.4,7.6,0c2.4-0.4,4.8-1.2,6.9-2.2c2.2-1,4.2-2.2,6.1-3.6
		c1.9-1.4,3.7-3,5.3-4.8c1.6-1.8,3-3.9,4-6.1c1-2.2,1.8-4.5,2.2-6.9c0.9-4.7,0.8-9.4,0.1-14c-0.7-4.5-2-8.9-3.7-13.1
		c-3.4-8.3-8.4-16-14.6-22.5c-1.6-1.6-3.2-3.2-5-4.7c-0.9-0.8-1.8-1.4-2.7-2.1c-0.9-0.6-1.8-1.3-2.7-1.9c-3.7-2.6-7.9-4.9-12.5-6.2
		c-2.3-0.6-4.8-1-7.3-1c-2.5,0-5,0.4-7.4,1.1c-4.8,1.4-8.9,3.9-12.5,7.1c-3.5,3.1-6.5,6.9-8.8,11c-2.2,4.2-3.8,8.9-3.9,14v1.9
		c0.1,0.6,0.2,1.3,0.3,1.9c0.1,1.3,0.5,2.6,1,3.8c0.9,2.5,2.4,4.8,4,6.7c3.4,3.8,8.1,6.5,13.4,7.2c2.6,0.3,5.4,0.1,7.9-0.7
		c1.3-0.3,2.4-0.9,3.6-1.3c1.1-0.6,2.2-1.1,3.2-1.9c4.1-2.7,7.4-6.1,10.1-9.9c2.7-3.8,5-7.9,6.2-12.8c0.6-2.4,0.9-4.9,0.9-7.3
		c0-2.4-0.3-4.8-0.8-7.1c-1-4.6-2.6-9-4.7-13c-2.1-4.1-4.5-7.9-7.1-11.4c-10.8-14.3-24.5-25.5-39.1-35L331.4,204.4L331.4,204.4z"/>
	<path class="st14" d="M258.4,233l18.5,22.4c8.8,10.6,24.5,12.1,35.1,3.4l54.5-45c10.6-8.8,12.1-24.5,3.4-35.1l-18.5-22.4
		c-8.8-10.6-24.5-12.1-35.1-3.4l-54.5,45C251.1,206.6,249.6,222.4,258.4,233L258.4,233z"/>
	<path class="st14" d="M258.4,233l4.4,5.3l93-76.7l-4.4-5.3c-8.8-10.6-24.5-12.1-35.1-3.4l-54.5,45
		C251.1,206.6,249.6,222.4,258.4,233L258.4,233z"/>
	<path class="st14" d="M138.9,281.4c11.9,14.5,33.7,15.6,47.1,2.5c32.6-32,69-65.2,109.5-98.7c41.2-34.1,81.3-64,119.5-90.4
		c15.4-10.7,18.5-32.2,6.5-46.7l0,0c-12-14.5-33.9-15.6-47.2-2.3c-31.9,31.6-67.7,64.6-107.8,97.8c-41.8,34.6-82.5,64.8-121,91.1
		C130,245.2,126.9,266.9,138.9,281.4L138.9,281.4L138.9,281.4z"/>
	<path class="st14" d="M288.9,142.2c-25.2,16-102,65.8-117.6,98c-1.5,3.1-5.2,10.7-2.7,13c2.6,2.4,11.8-1,41.1-23.1
		c36.6-27.7,95.6-78,89.1-87.3C297.8,141.6,295.5,140.7,288.9,142.2L288.9,142.2z"/>
	<path class="st14" d="M177.6,273.8c32.6-32,69-65.2,109.5-98.7c41.2-34.1,81.3-64,119.5-90.4c13.6-9.4,17.6-27.3,10.1-41.3
		c1.7,1.4,3.4,3,4.8,4.7l0,0c11.9,14.5,8.9,36-6.5,46.7c-38.1,26.3-78.3,56.3-119.5,90.4c-40.5,33.5-76.9,66.7-109.5,98.7
		c-13.4,13.1-35.1,12-47.1-2.5l0,0c-1.4-1.7-2.6-3.5-3.6-5.4C147.7,285.9,165.8,285.3,177.6,273.8L177.6,273.8z"/>
</g>
<g id="cutting_board" class="st0">
	<path class="st15" d="M58.8,3096.4l113.7,60.7c51.2,27.4,109.4,16.4,127.3-24c17.2-38.9,36.6-79.1,58.7-120.2
		c20.1-37.4,40.8-72.5,61.7-105.4c23.7-37.3,0.4-91.8-50.9-119.1l-15.1-8.1c14.8-23.4,29.5-46.8,44.3-70.2
		c10.6-16.8,1.7-40.7-19.6-52.3l-19.5-10.6c-1.9-1-3.9-1.9-5.8-2.7c-20.2-8-41.9-1.6-49.2,15.4c-10.9,25.5-21.7,51-32.5,76.5
		l-16.3-8.7c-51.7-27.6-110.3-16.2-127.6,24.8c-15.6,37-33.7,75.5-54.8,115c-21,39.3-42.8,75.6-64.8,109
		C-16,3013.7,7.2,3068.8,58.8,3096.4L58.8,3096.4z M305.1,2673.3c6.4-12,18-18.3,26-14.1s9.2,17.4,2.8,29.4c-6.4,12-18,18.3-26,14.1
		S298.7,2685.3,305.1,2673.3z"/>
	<path class="st15" d="M30.7,3081.3l113.7,60.7c51.2,27.4,109.4,16.4,127.3-24c2.3-5.2,4.7-10.5,7.1-15.8
		c15.4-34,32.5-68.8,51.6-104.4c20.1-37.4,40.8-72.5,61.7-105.4c23.7-37.3,0.4-91.8-50.9-119.1l-15.1-8.1
		c14.8-23.4,29.5-46.8,44.3-70.2c10.1-16,2.5-38.4-16.6-50.6c-1-0.6-1.9-1.2-3-1.7l-19.5-10.6c-21.7-11.8-47-5.9-55,12.7
		c-10.9,25.5-21.7,51-32.6,76.5l-16.3-8.7c-51.7-27.6-110.3-16.2-127.6,24.8c-2.6,6.1-5.2,12.3-8,18.6c-3.3,7.6-6.8,15.3-10.3,23
		c0,0,0,0,0,0c-11,24-23.1,48.5-36.4,73.3c-21,39.3-42.8,75.6-64.8,109C-44.2,2998.6-21,3053.7,30.7,3081.3L30.7,3081.3z
		 M305.1,2673.3c6.4-12,18-18.3,26-14.1s9.2,17.4,2.8,29.4c-6.4,12-18,18.3-26,14.1S298.7,2685.3,305.1,2673.3z"/>
	<path class="st16" d="M30.7,3081.3l113.7,60.7c51.2,27.4,109.4,16.4,127.3-24c2.3-5.2,4.7-10.5,7.1-15.8
		c-69.9,17.6-203.4-34.8-224.5-132.8c-15.4-71.8,11.4-151.9,27.2-190.3c-11,24-23.1,48.5-36.4,73.3c-21,39.3-42.8,75.6-64.8,109
		C-44.2,2998.7-21,3053.7,30.7,3081.3L30.7,3081.3z"/>
	<path class="st15" d="M200.5,2756.3c-6.7-8.8-19.6-8.9-20.9-8.9c-26,0.2-41.8,36.3-72.5,93.4c-55.9,103.8-84.3,133.9-69.3,155.4
		c6.9,10,20.9,14.7,32.5,13.6c31.9-3,36.5-49.2,86.1-142.6C187.9,2807.7,213.9,2773.9,200.5,2756.3L200.5,2756.3z"/>
	<path class="st15" d="M234.7,2793.6c-0.6-4.9-5.9-1.8-6.4-1.4c-10.8,6.6-26.4,37.6-53.4,88.1c-49.1,91.8-68.4,121.4-67.6,133.8
		c0.4,5.7,5,5.8,10.1,2.1c14-10.2,27.4-46,71.3-128.4C216.7,2835.3,235.9,2803.5,234.7,2793.6L234.7,2793.6z"/>
	<path class="st15" d="M359.8,2860.4c-0.6-4.9-5.9-1.8-6.4-1.4c-10.8,6.6-26.4,37.6-53.4,88.1c-49.1,91.8-68.4,121.4-67.6,133.8
		c0.4,5.7,5,5.8,10.1,2.1c14-10.2,27.4-46,71.4-128.4C341.8,2902,360.9,2870.3,359.8,2860.4L359.8,2860.4z"/>
</g>
<g id="cutting_board-2" class="st0">
	<path class="st15" d="M1474.8,3096.4l113.7,60.7c51.2,27.4,109.4,16.4,127.3-24c17.2-38.9,36.6-79.1,58.7-120.2
		c20.1-37.4,40.8-72.5,61.7-105.4c23.7-37.3,0.4-91.8-50.9-119.1l-15.1-8.1c14.8-23.4,29.5-46.8,44.3-70.2
		c10.6-16.8,1.7-40.7-19.6-52.3l-19.4-10.6c-1.9-1-3.8-1.9-5.8-2.7c-20.2-8-41.9-1.6-49.2,15.4c-10.8,25.5-21.7,51-32.6,76.5
		l-16.3-8.7c-51.7-27.6-110.3-16.2-127.6,24.8c-15.6,37-33.7,75.5-54.8,115c-21,39.3-42.8,75.6-64.8,109
		C1400,3013.7,1423.2,3068.8,1474.8,3096.4L1474.8,3096.4z M1721.1,2673.3c6.4-12,18-18.3,26-14.1s9.2,17.4,2.8,29.4
		c-6.4,12-18,18.3-26,14.1S1714.7,2685.3,1721.1,2673.3z"/>
	<path class="st15" d="M1446.7,3081.3l113.7,60.7c51.2,27.4,109.4,16.4,127.3-24c2.3-5.2,4.7-10.5,7.1-15.8
		c15.4-34,32.5-68.8,51.7-104.4c20.1-37.4,40.8-72.5,61.7-105.4c23.7-37.3,0.4-91.8-50.9-119.1l-15.1-8.1
		c14.8-23.4,29.5-46.8,44.3-70.2c10.1-16,2.5-38.4-16.7-50.6c-0.9-0.6-1.9-1.2-2.9-1.7l-19.4-10.6c-21.7-11.8-47-5.9-54.9,12.7
		c-10.8,25.5-21.7,51-32.6,76.5l-16.3-8.7c-51.7-27.6-110.3-16.2-127.6,24.8c-2.6,6.1-5.2,12.3-8,18.6c-3.3,7.6-6.8,15.3-10.3,23
		c0,0,0,0,0,0c-11,24-23.1,48.5-36.4,73.3c-21,39.3-42.8,75.6-64.8,109C1371.8,2998.6,1395,3053.7,1446.7,3081.3z M1721.1,2673.3
		c6.4-12,18-18.3,26-14.1s9.2,17.4,2.8,29.4c-6.4,12-18,18.3-26,14.1S1714.7,2685.3,1721.1,2673.3z"/>
	<path class="st16" d="M1446.7,3081.3l113.7,60.7c51.2,27.4,109.4,16.4,127.3-24c2.3-5.2,4.7-10.5,7.1-15.8
		c-69.9,17.6-203.4-34.8-224.5-132.8c-15.4-71.8,11.4-151.9,27.2-190.3c-11,24-23.1,48.5-36.4,73.3c-21,39.3-42.8,75.6-64.8,109
		C1371.8,2998.7,1395,3053.7,1446.7,3081.3L1446.7,3081.3z"/>
</g>
<g id="whip" class="st0">
	<path class="st17" d="M1192.5,740.2c7.1-3.6,13-8,16.7-10.8c52.4-39.4,53.2-148.5,52.2-181l-3.6,0.1c1,32.1,0.2,139.7-50.8,178.1
		c-8.6,6.4-26.3,19.8-44.2,14.7c-11.6-3.3-21.4-14.3-27.7-30.8c-9-23.6,4.7-58.3,39.3-100.5c27-32.8,58-59.6,64-64.6l-2.3-2.7
		c-13.1,11-126.9,109.7-104.3,169.1c6.7,17.6,17.3,29.3,30,33C1172.7,747.9,1183.6,744.7,1192.5,740.2L1192.5,740.2z"/>
	<path class="st17" d="M1171.9,744.5c-3.6,1.7-7.1,1.8-10.4,0.1c-5.8-2.9-9.5-8.5-10.9-16.7c-7.8-43,47.8-149.1,97.1-202.6l4.4-4.8
		l-1.4,6.4c-1.7,8.2-42.9,199.6-78.5,217.5C1172.1,744.4,1172,744.5,1171.9,744.5L1171.9,744.5z M1180.6,632.8
		c-20.2,41.2-29.9,75.7-26.5,94.5c1.3,7,4.3,11.7,9,14.1c2.3,1.2,4.7,1.1,7.2-0.1c0.1,0,0.2-0.1,0.2-0.1
		c9.8-4.9,26.4-28.6,50.9-113.2c11.7-40.4,20.8-79.9,24.2-95.1C1222.8,559,1198.8,595.8,1180.6,632.8L1180.6,632.8z"/>
	<path class="st17" d="M1403.3,177.9c-21.1,44-42.3,88.1-63.4,132.1c-30.3,63.1-60.6,126.2-90.9,189.4c-4.1,8.6-0.7,18.9,7.8,23.3
		c8.5,4.4,18.9,1.2,23.5-7.2l102-185.5l69.9-127.2c4.8-8.8,1.4-19.8-7.6-24.2c-5.9-2.9-11.8-5.9-17.6-8.8
		C1418.2,165.4,1407.5,169,1403.3,177.9L1403.3,177.9z M1420.5,225.7c-7.4,14.4-16.9,24.3-21.2,22.1c-4.3-2.2-1.7-15.7,5.7-30.1
		c7.4-14.4,16.9-24.3,21.2-22.1C1430.5,197.8,1428,211.2,1420.5,225.7z"/>
	<path class="st17" d="M1395.4,238.6c-4.3-2.2-1.7-15.7,5.7-30.1c7.4-14.4,16.9-24.3,21.2-22.1c1.9,1,2.5,4.3,1.8,8.9
		c-4.8,0.9-12.7,10-19.1,22.3c-4.1,7.9-6.7,15.6-7.5,21.2C1396.7,239,1396,239,1395.4,238.6L1395.4,238.6z"/>
	<path class="st17" d="M1252.8,513.5c8.5,4.4,18.9,1.2,23.5-7.2l102-185.5l69.9-127.2c1.9-3.4,2.5-7.1,2-10.7
		c4.5,5.4,5.5,13.2,1.9,19.8L1382.3,330l-102,185.5c-4.6,8.4-15,11.5-23.5,7.2c-5.4-2.8-8.7-7.9-9.4-13.5
		C1248.8,510.9,1250.7,512.4,1252.8,513.5L1252.8,513.5z"/>
	<path class="st17" d="M1403.3,177.9c-21.1,44-42.3,88.1-63.4,132.1c4.1,2.2,8.3,4.3,12.6,6.4c10.2,5,20.1,9.5,29.8,13.6l69.9-127.2
		c4.8-8.8,1.4-19.8-7.6-24.2c-5.9-2.9-11.8-5.9-17.6-8.8C1418.2,165.4,1407.5,169,1403.3,177.9L1403.3,177.9z M1405,217.7
		c7.4-14.4,16.9-24.3,21.2-22.1c4.3,2.2,1.7,15.7-5.7,30.1c-7.4,14.4-16.9,24.3-21.2,22.1C1395,245.5,1397.6,232.1,1405,217.7z"/>
	<path class="st17" d="M1330.6,372.8c-10.7,21.1-16.4,34-24.4,33.9c-0.8,0-1.9,0-2.8-0.8c-4.1-3.6,4.5-17.2,17.3-43
		c12.7-25.5,17.7-39.2,25.5-38.8c0.7,0,2.2,0.1,3.4,1.2C1354,329.6,1346.1,342,1330.6,372.8L1330.6,372.8z"/>
	<path class="st17" d="M1372.4,286.9c-8.1,16-12.5,25.8-18.6,25.8c-0.6,0-1.5,0-2.1-0.6c-3.1-2.7,3.4-13.1,13.2-32.7
		c9.6-19.4,13.5-29.8,19.4-29.5c0.5,0,1.7,0.1,2.6,0.9C1390.2,254.1,1384.2,263.5,1372.4,286.9L1372.4,286.9z"/>
	<path class="st17" d="M1280.4,445.6c-8.4,16.3-13.6,30.4-11.5,31.4s10.5-11.3,18.9-27.6c8.4-16.3,13.6-30.4,11.5-31.4
		S1288.8,429.3,1280.4,445.6z"/>
	<path class="st17" d="M1392.5,244.2c-4.3-2.2-1.7-15.7,5.7-30.1c7.4-14.4,16.9-24.3,21.2-22.1c1.2,0.6,1.9,2.2,2.1,4.4
		c-4.8,2.9-11.1,10.9-16.4,21.2c-5.3,10.3-8.1,20.1-7.7,25.7C1395.4,244.5,1393.7,244.9,1392.5,244.2L1392.5,244.2z"/>
	<path class="st17" d="M1345.7,312.9c10.2,5,20.1,9.5,29.8,13.6l69.9-127.2c4.5-8.2,1.8-18.4-5.9-23.3c1.7,0.9,3.5,1.7,5.2,2.6
		c8.9,4.5,12.4,15.5,7.6,24.2L1382.3,330c-9.7-4.1-19.6-8.6-29.8-13.6c-4.3-2.1-8.5-4.2-12.6-6.4c0,0,0,0,0,0
		C1341.8,311,1343.7,312,1345.7,312.9L1345.7,312.9z"/>
	<path class="st17" d="M1282.4,511c-7,5.1-16,5.9-23,2c-7.5-4.2-9.6-12-9.9-13.4c-8.5,19.2-17,38.4-25.5,57.6
		c1.6,2.1,5.6,6.7,12.5,8.9c11.7,3.8,21.7-2.7,23-3.6C1267.1,545.4,1274.7,528.2,1282.4,511L1282.4,511z"/>
</g>
<g id="whip-2" class="st0">
	<path class="st17" d="M-16.7,177.9C-37.9,221.9-59,266-80.1,310c-30.3,63.1-60.6,126.2-90.9,189.4c-4.1,8.6-0.7,18.9,7.8,23.3
		c8.5,4.4,18.9,1.2,23.5-7.2l102-185.5l69.9-127.2c4.8-8.8,1.4-19.8-7.5-24.2c-5.9-2.9-11.8-5.9-17.6-8.8
		C-1.8,165.4-12.5,169-16.7,177.9L-16.7,177.9z M0.5,225.7c-7.4,14.4-16.9,24.3-21.2,22.1s-1.7-15.7,5.7-30.1
		c7.4-14.4,16.9-24.3,21.2-22.1S8,211.2,0.5,225.7z"/>
	<path class="st17" d="M-24.6,238.6c-4.3-2.2-1.7-15.7,5.7-30.1c7.4-14.4,16.9-24.3,21.2-22.1c1.9,1,2.5,4.3,1.8,8.9
		c-4.8,0.9-12.7,10-19.1,22.3c-4.1,7.9-6.7,15.6-7.5,21.2C-23.3,239-24,239-24.6,238.6L-24.6,238.6z"/>
	<path class="st17" d="M-167.2,513.5c8.5,4.4,18.9,1.2,23.5-7.2l102-185.5l69.9-127.2c1.9-3.4,2.5-7.1,2-10.7
		c4.5,5.4,5.5,13.2,1.9,19.8L-37.7,330l-102,185.5c-4.6,8.4-15,11.5-23.5,7.2c-5.4-2.8-8.7-7.9-9.4-13.5
		C-171.2,511-169.3,512.5-167.2,513.5L-167.2,513.5z"/>
	<path class="st17" d="M-16.7,177.9C-37.9,221.9-59,266-80.1,310c4.1,2.2,8.3,4.3,12.6,6.4c10.2,5,20.1,9.5,29.8,13.6l69.9-127.2
		c4.8-8.8,1.4-19.8-7.5-24.2c-5.9-2.9-11.8-5.9-17.6-8.8C-1.8,165.4-12.5,169-16.7,177.9L-16.7,177.9z M-15,217.7
		c7.4-14.4,16.9-24.3,21.2-22.1s1.7,15.7-5.7,30.1c-7.4,14.4-16.9,24.3-21.2,22.1S-22.4,232.1-15,217.7z"/>
	<path class="st17" d="M-27.5,244.2c-4.3-2.2-1.7-15.7,5.7-30.1c7.4-14.4,16.9-24.3,21.2-22.1c1.2,0.6,1.9,2.2,2,4.4
		c-4.8,2.9-11.1,10.9-16.4,21.2c-5.3,10.3-8.1,20.1-7.7,25.7C-24.6,244.5-26.3,244.9-27.5,244.2L-27.5,244.2z"/>
	<path class="st17" d="M-74.3,312.9c10.2,5,20.1,9.5,29.8,13.6l69.9-127.2c4.5-8.2,1.8-18.4-5.9-23.3c1.7,0.9,3.5,1.7,5.2,2.6
		c8.9,4.5,12.4,15.5,7.5,24.2L-37.7,330c-9.7-4.1-19.6-8.6-29.8-13.6c-4.3-2.1-8.5-4.2-12.6-6.4c0,0,0,0,0,0
		C-78.2,311-76.3,311.9-74.3,312.9L-74.3,312.9z"/>
</g>
<g class="st0">
	<path class="st18" d="M717.8,1440.5c70,54.2,127.9,123,199.3,175.3c8,5.9,16.9,12.5,19,22.2c1.9,9-2.5,18.1-8.4,25.2
		c-5.6,6.9-12.8,12.7-21.1,15.7c-13.9,5-29.6,1.7-42.5-5.4c-12.9-7.1-23.5-17.6-34-28c-29-28.8-57.9-57.6-86.8-86.4
		c-17.7-17.6-35.6-35.4-56.3-49.4c-7.2-4.8-14.6-9.2-22.1-13.6c-1.2-0.7-2.6-1.7-2.8-3.1c-0.1-1.3,0.8-2.4,1.6-3.3
		C679.7,1471.7,697.4,1455,717.8,1440.5L717.8,1440.5z"/>
	<path class="st18" d="M857.5,1653.3c-25-23.1-51.4-44.7-75.9-68.4c-36.1-35.2-70.5-78.7-59.6-132.6c0.5-2.7,1.9-4.4,3.7-5.4
		c-2.6-2.1-5.2-4.2-7.9-6.3c-20.4,14.5-38.1,31.2-54.2,49.2c-0.8,0.9-1.7,2.1-1.6,3.3c0.2,1.4,1.5,2.4,2.8,3.1
		c7.5,4.4,14.9,8.8,22.1,13.6c20.7,14,38.6,31.8,56.3,49.4l86.8,86.4c10.4,10.4,21.1,20.9,34,28c10.6,5.8,23.1,9.1,34.9,7.3
		C883.7,1673.8,869.5,1664.3,857.5,1653.3L857.5,1653.3z"/>
	<path class="st18" d="M730.9,1449c-36.5-35.7-71.6-72-105.9-109.1c-27.1-29.2-69.8-90.3-95.5-120.7c-12.4-14.7-29.9-34.8-42.3-23.6
		c-31.4,28.5-80.4,59.2-111.8,87.7c-1.1,1-2.2,2.1-2.4,3.6c-0.2,1.7,0.9,3.2,1.9,4.5c61.2,78.7,128.7,152.4,201.7,220.3
		c14.1,13.1,28.8,26.2,46.3,34.2c2.1,0.9,4.3,1.8,6.6,1.4c3.2-0.5,5.3-3.3,7.3-5.8C663.2,1506.2,695.1,1474.9,730.9,1449L730.9,1449
		z M492.3,1241.1c-4-1.4-7.5-3.9-9.5-7.8c-2.1-4.1-2.3-9.1,0-13.2c1.6-2.8,4.5-4.9,7.6-5.9c0.7-0.4,1.5-0.7,2.3-0.9
		c5-0.8,9.8,0.7,13.3,4.5c2.7,2.9,4.2,6.9,4,10.9C509.9,1237.8,501.1,1244.2,492.3,1241.1L492.3,1241.1z"/>
	<path class="st18" d="M630.7,1548.7c-27-10.8-48.8-31.3-69.8-51.4c-64-61.2-127.4-123.7-179.9-195c-4-5.4-8.1-11.7-6.9-18.3
		c9.1,9.3,16.2,20.3,24,30.8c12.9,17.4,27.5,33.4,42.3,49.1C500.9,1428.5,564.7,1490.1,630.7,1548.7L630.7,1548.7z"/>
	<path class="st18" d="M587.5,1296.6c11.7,11.8,22.8,24.1,33.4,36.8c-66.9,0-133.8-0.1-200.7-0.1c-2.2,0-4.5,0-6.5-0.9
		c-2.2-0.9-3.9-2.8-5.4-4.5c-6.6-7.3-13.1-14.6-19.7-21.9C455.7,1304.9,523,1303.2,587.5,1296.6L587.5,1296.6z"/>
	<path class="st18" d="M639.8,1354.6c-68.7,2.1-137.3,4.3-206,6.4c2.1,7.6,11.8,9.3,19.6,9.7c19.6,0.9,39.3,1.9,59,1.2
		c17.5-0.6,34.9-2.4,52.4-3.3c29.7-1.5,59.5-0.2,89.2,1.1C648.4,1364.5,642.7,1359.3,639.8,1354.6L639.8,1354.6z"/>
	<path class="st18" d="M700.5,1418.9c-67.2-1.8-134.3,3.5-201.3,8.8c6.7,7.7,13.9,14.9,21.6,21.6c2.1,1.8,4.4,3.7,7,4.5
		c2.4,0.8,5,0.7,7.6,0.6c63.3-2.1,126.6-5.7,189.8-10.8C716.4,1435.2,707.6,1426.7,700.5,1418.9z"/>
	<path class="st18" d="M730.7,1494.9c4.6-4.6,12-4.6,16.5,0c4.6,4.6,4.6,12,0,16.5c-4.6,4.6-12,4.6-16.5,0
		S726.1,1499.5,730.7,1494.9z"/>
	<path class="st18" d="M869.5,1626.2c4.6-4.6,12-4.6,16.5,0c4.6,4.6,4.6,12,0,16.5c-4.6,4.6-12,4.6-16.5,0
		C865,1638.2,865,1630.8,869.5,1626.2z"/>
	<path class="st18" d="M798.2,1562.5c4.6-4.6,12-4.6,16.5,0s4.6,12,0,16.5s-12,4.6-16.5,0S793.7,1567,798.2,1562.5z"/>
	<path class="st18" d="M920.2,1662.7c5.2-4.1,10.1-9.6,10.5-16.2c0.6-9-6.9-16.3-13.8-22.2c-17.8-15.1-35.6-30.2-53.3-45.4
		c-1.3-1.1-2.8-2.3-4.5-2.6c-1.7-0.3-3.8,0.8-3.9,2.6c11.7,14,24.9,26.8,39.3,38c5.8,4.6,12,8.9,16.5,14.8c4.6,5.8,7.5,13.4,6,20.7
		c-0.4,2-1.2,3.9-1.3,5.9s0.5,4.2,2.2,5.3S922.3,1663.5,920.2,1662.7L920.2,1662.7z"/>
	<path class="st18" d="M841.5,1557.6c-13.2-12.5-26.5-24.9-40-37.1c-0.7-0.7-1.7-1.4-2.6-0.9c-1.2,0.6-0.8,2.4-0.2,3.6
		c4.9,9.3,12.4,16.9,19.8,24.3c6.4,6.4,13.1,13.1,21.6,16c1.9,0.7,4.9,0.4,4.9-1.6c0-0.6-0.3-1.1-0.6-1.6
		C843.4,1558.7,842.2,1557.5,841.5,1557.6L841.5,1557.6z"/>
</g>
<g class="st0">
	<path class="st19" d="M1133,2162.3c25.4,15.7,52.4,29.1,81.5,36.4c1.6,0.5,3.4,0.9,5.1,0.9c0.4,0.3,0.8,0.5,1.3,0.7
		c0.3,0.5,0.7,0.9,1,1.4c0.2,0.3,0.3,0.5,0.4,0.8c0.1,0.1,0.1,0.1,0.2,0.2c0,0.1,0.2,0.4,0.8,1.3c0.2,0.3,0.3,0.6,0.5,0.9
		c0.7,1.2,19.1,29.1,25.1,39c12.7,20.9,41.5,72.9,50.7,83.4c3.1,3.5,9.1-0.4,7.2-4.7c-6.1-13.8-20.1-40-38.8-69.7
		c-8.9-14.2-30.2-49.3-32.4-55.1c-0.6-1.6-1.4-3.1-1.7-3.2c-0.4-0.8-0.8-1.5-1.3-2.2c31.5-62.6,22.4-181-12.6-238.9
		c-16.9-28.6-43.6-50.7-73.6-64.5c-24.8-9.6-53.2-9.2-78,0.1c-19.3,8.1-34.7,23.8-46.5,40.8c-17.8,29.3-22,66.9-11.2,99.4
		C1030.5,2088.9,1082.3,2129.4,1133,2162.3L1133,2162.3z M1054.5,1916.5c25-20.6,84.6,18,107.7,48.1c34.7,42.4,52.1,92.8,58.4,144.8
		c2.9,19.1,2,46.5,0.6,61.2c-0.2,2.6-0.5,5.2-0.7,7.8c-0.5-0.3-1.1-0.7-1.6-1.1c-10.4-6.6-22.7-15.8-35.9-25.1
		c-30.6-21.8-60.2-45.6-85.9-73c-10.8-11.4-24.2-35.3-30.7-52.4C1051.4,1990.5,1034.3,1932.7,1054.5,1916.5L1054.5,1916.5z
		 M1141.1,1899.3c29.3,12.7,46.8,27.2,63.6,52.5c23.8,35.7,31.7,74.6,35.5,118.1c2.2,32.3,0.4,57.7-6.3,88.9
		c-1.2,4.7-2.3,8.6-3.4,12.3c3.1-36.1-0.6-72.9-8.2-108.1c-12.1-47.2-35-93.7-70.3-127.8c-17.2-15.7-45.9-34.6-72.4-36.9
		C1101.2,1892.3,1123.6,1893.3,1141.1,1899.3L1141.1,1899.3z M1038.1,2052.6c-10.9-20-21.5-42.4-21.4-66.8c0.1-16,3.9-31,12.2-46.5
		c1.2-2.2,3.1-4.9,5.3-7.7c-1.2,7.9-0.9,16.2,0.2,23.9c2.5,18.8,6.6,37.5,13,55.3c8.2,23.7,18,47.2,32.8,67.6
		c21.9,28.1,49.1,52,77.8,72.9c15.3,11,31.5,20.6,47.2,30.9c0.5,0.3,1,0.6,1.4,0.9c-15.4-5.7-33.8-13-48.6-21.9
		c-28.6-16.2-51.1-32.6-76.8-56.8C1063,2087.1,1052,2075.3,1038.1,2052.6L1038.1,2052.6z"/>
	<path class="st19" d="M1424.4,2607.5c12.5,6.2,29,2.8,38-7.8c12.1-14.3,9.1-36.3,0.7-53c-8.5-16.7-20.4-31.5-28.6-45.4
		c-34.1-57.8-68.2-115.7-102.4-173.5c-2-3.4-4-6.8-7.1-9.2c-10-7.9-24.5-1.6-35.4,4.9c-4.2,2.5-8.8,5.5-9.9,10.3
		c-0.9,3.9,1,7.9,2.8,11.5c33.5,67.9,67,135.7,100.5,203.6c7,14.2,14.1,28.4,23.2,41.3C1411.2,2597.1,1416.9,2603.7,1424.4,2607.5
		L1424.4,2607.5z M1421,2587.1c-1.1-2.1-2.2-4.4-2.7-6.8c-0.8-4.5-1.1-9.1,0.5-13.5c1.2-3.1,2.4-5.7,4.7-8.1
		c2.2-2.3,4.9-3.6,7.9-4.7c0.9-0.3,1.9-0.6,2.9-0.7c1.5-0.2,3.1-0.5,4.6-0.5c3.1,0,5.9,0.7,8.7,2c2.7,1.2,4.8,3.4,6.4,5.9
		c0.1,0.1,0.2,0.3,0.2,0.5c0,0,0,0,0,0c3.8,3.9,5.8,9.3,5.9,14.7c0,1.5-0.3,3.1-0.5,4.6c-0.1,0.6-0.2,1.1-0.4,1.6
		c-0.7,1.9-1.4,4-2.7,5.8c-1.1,1.6-2.3,3.3-3.8,4.7c-1.4,1.3-3,2.6-4.7,3.5c-1.3,0.7-2.7,1.2-4,1.7c-0.4,0.1-0.8,0.3-1.2,0.4
		c-3,0.6-5.2,0.5-8.2,0.1c-1.8-0.3-3.5-1-5.1-1.9c-0.5-0.2-0.9-0.5-1.3-0.8c-1.1-0.8-2.3-1.6-3.3-2.6
		C1423.5,2591.1,1422.1,2589.1,1421,2587.1L1421,2587.1z"/>
	<path class="st19" d="M1424.4,2607.5c0.3,0.2,0.7,0.3,1,0.4c-1.9-2.8-3.7-5.7-5.4-8.3c-8.3-12.6-14.1-26.7-20-40.5
		c-10.7-25.1-21-50.3-32.5-75.1c-5.4-11.6-11.9-22.1-18.5-33.1c-3.7-6.2-7.4-12.5-10.8-18.8c-2.9-5.5-5.4-11.3-8.8-16.6
		c-7.1-10.9-13.3-22.3-18.8-34.1c-4.6-9.8-11.2-19.3-13.5-30c-2.5-11.7-0.4-24.8,8.5-33.2c0.9-0.9,1.9-1.7,2.9-2.6
		c-6.5,1.3-13.2,4.6-18.9,8c-4.2,2.5-8.8,5.5-9.9,10.3c-0.9,3.9,1,7.9,2.8,11.5c33.5,67.9,67,135.7,100.5,203.6
		c7,14.2,14.1,28.4,23.2,41.3C1411.2,2597.1,1416.9,2603.7,1424.4,2607.5L1424.4,2607.5z"/>
	<path class="st19" d="M1446.5,2537c-23.2-39.4-46.3-78.8-69.5-118.2c-6.2-10.5-12.3-21-19.2-31.1c-4.6-6.8-9.5-13.5-16.1-18.4
		c2.8,8.9,7.3,17.2,11.8,25.3c11.6,20.9,23.2,41.8,34.8,62.7c9.7,17.6,19.5,35.1,30.2,52.1c7.8,12.4,16.2,24.6,27.6,33.7
		C1447.7,2540,1447.6,2535.9,1446.5,2537L1446.5,2537z"/>
	<path class="st19" d="M1302.8,2384c2.2-3.1,4.4-6.2,7.3-8.7c2.8-2.5,5.9-4.5,9-6.5c9.2-6.2,19.4-10.1,30.2-11.9l-17.2-29.1
		c-2-3.4-4-6.8-7.1-9.2c-10-7.9-24.5-1.6-35.4,4.9c-4.2,2.5-8.8,5.5-9.9,10.3c-0.9,3.9,1,7.9,2.8,11.5l19.6,39.8
		C1302.4,2384.8,1302.6,2384.4,1302.8,2384L1302.8,2384z"/>
	<path class="st19" d="M1308.4,2377c-4.3-8.3-9.4-16.5-11.3-25.6c-2.5-11.7-0.4-24.8,8.5-33.2c0.9-0.9,1.9-1.7,2.9-2.6
		c-6.5,1.3-13.2,4.6-18.9,8c-4.2,2.5-8.8,5.5-9.9,10.3c-0.9,3.9,1.7,9.2,3.5,12.9c6.3,12.8,12.7,25.7,19,38.5
		C1304.4,2382.8,1306.1,2379.3,1308.4,2377L1308.4,2377z"/>
	<path class="st19" d="M1231.1,2190.2c7.8-19.1,14.6-38.9,17.7-59.4c3-27.6,1.4-55.6,0.2-83.3c0-1.8-2.6-2.8-3.8-1.3
		c-1,1.2-0.3,3-0.3,4.4c0.9,29.9,4.3,59.8-1,88.5c-3.6,17.7-8.5,33.8-15.3,49.9C1228,2190.5,1230.4,2191.7,1231.1,2190.2
		L1231.1,2190.2z"/>
	<path class="st19" d="M1137.4,2132.9c1.4,1.3,3.5-0.9,2-2.2c-23.9-24.6-47.2-46.7-64.5-75.4c-1.9-1.5-4.9,0.2-4.7,2.6
		c0.5,2.4,2.6,4.2,3.8,6.4c10.6,16.9,24.9,31,38.7,45.3C1120.5,2117.7,1128.9,2125.3,1137.4,2132.9L1137.4,2132.9z"/>
	<path class="st19" d="M1057.6,2098.4c1.4,0.3,2.6-1.3,1.7-2.5c-17.4-23.9-37.3-45.9-43.5-73.8c-0.6-2.1-3.2-3-5-1.8
		c-3.3,2.3-0.2,6.6,0.4,9.6c2.6,8.3,6.7,16.1,11.5,23.3c8.6,13.9,18.9,26.8,29.5,39.3C1053.4,2093.5,1055.2,2096.9,1057.6,2098.4
		L1057.6,2098.4z"/>
	<path class="st19" d="M1125.9,1925.9c9.3,5.9,21.5,15.5,31.2,25.3c5,5.1,7.7,8.9,12.2,14.3c1.5,1.1,3.5-0.9,2.5-2.4
		c-8.7-12.8-18.8-24.2-30.7-34.1c-3.7-3.3-7.7-6.4-11.9-9.1c-1.5-0.9-3-2.2-4.8-1.6C1120,1920.2,1122.2,1924.6,1125.9,1925.9
		L1125.9,1925.9z"/>
	<path class="st19" d="M1192.1,1927.5c2.3,2.1,5.6-1.5,3.2-3.6c-6.6-6.1-13.6-11.7-20.7-17.2c-2.1-2.1-5.8,0.3-4.8,3.1
		C1176.1,1916.7,1185.2,1921,1192.1,1927.5L1192.1,1927.5z"/>
</g>
<g class="st0">
	<path class="st19" d="M25.9,2600.2c4.3-4.8,5.2-12,3.5-18.3s-5.4-11.7-9.5-16.8c-4.1-5.1-8.5-9.9-11.7-15.5
		c-0.9-1.6-1.7-3.6-0.8-5.2c0.4-0.6,1.1-1.1,1.7-1.5c5.6-3.1,12.8-2.2,18.3,1.1c5.5,3.3,9.3,8.8,12.2,14.5c5.1,10.2,7,23,1.2,32.8
		C37.7,2596.8,31.6,2601.1,25.9,2600.2L25.9,2600.2z"/>
	<path class="st19" d="M3.4,2607.5c12.5,6.2,29,2.8,38-7.8c12.1-14.3,9.1-36.3,0.7-53c-8.5-16.7-20.4-31.5-28.6-45.4
		c-34.1-57.8-68.2-115.7-102.4-173.5c-2-3.4-4-6.8-7.1-9.2c-10-7.9-24.5-1.6-35.4,4.9c-4.2,2.5-8.8,5.5-9.9,10.3
		c-0.9,3.9,1,7.9,2.8,11.5c33.5,67.9,67,135.7,100.5,203.6c7,14.2,14.1,28.4,23.2,41.3C-9.8,2597.1-4.1,2603.7,3.4,2607.5
		L3.4,2607.5z M0,2587.1c-1.1-2.1-2.2-4.4-2.7-6.8c-0.8-4.5-1.1-9.1,0.5-13.5c1.2-3.1,2.4-5.7,4.7-8.1c2.2-2.3,4.9-3.6,7.9-4.7
		c0.9-0.3,1.9-0.6,2.9-0.7c1.5-0.2,3.1-0.5,4.6-0.5c3.1,0,5.9,0.7,8.7,2c2.7,1.2,4.8,3.4,6.4,5.9c0.1,0.1,0.2,0.3,0.2,0.5
		c0,0,0,0,0,0c3.8,3.9,5.8,9.3,5.9,14.7c0,1.5-0.3,3.1-0.5,4.6c-0.1,0.6-0.2,1.1-0.4,1.6c-0.7,1.9-1.5,4-2.7,5.8
		c-1.1,1.6-2.3,3.3-3.8,4.7c-1.4,1.3-3,2.6-4.7,3.5c-1.3,0.7-2.7,1.2-4,1.7c-0.4,0.1-0.8,0.3-1.2,0.4c-3,0.6-5.2,0.5-8.2,0.1
		c-1.8-0.3-3.5-1-5.1-1.9c-0.5-0.2-0.9-0.5-1.3-0.8c-1.1-0.8-2.3-1.6-3.3-2.6C2.5,2591.1,1.1,2589.1,0,2587.1L0,2587.1z"/>
	<path class="st19" d="M3.4,2607.5c0.3,0.2,0.6,0.3,1,0.4c-1.9-2.8-3.7-5.7-5.4-8.3c-8.3-12.6-14.1-26.7-20-40.5
		c-10.7-25.1-21-50.3-32.5-75.1c-5.4-11.6-11.9-22.1-18.5-33.1c-3.7-6.2-7.4-12.5-10.8-18.8c-2.9-5.5-5.4-11.3-8.8-16.6
		c-7.1-10.9-13.3-22.3-18.8-34.1c-4.6-9.8-11.2-19.3-13.5-30c-2.5-11.7-0.4-24.8,8.5-33.2c0.9-0.9,1.9-1.7,2.9-2.6
		c-6.5,1.3-13.2,4.6-18.9,8c-4.2,2.5-8.8,5.5-9.9,10.3c-0.9,3.9,1,7.9,2.8,11.5c33.5,67.9,67,135.7,100.5,203.6
		c7,14.2,14.1,28.4,23.2,41.3C-9.8,2597.1-4.1,2603.7,3.4,2607.5L3.4,2607.5z"/>
	<path class="st19" d="M25.5,2537c-23.2-39.4-46.3-78.8-69.5-118.2c-6.2-10.5-12.3-21-19.2-31.1c-4.6-6.8-9.5-13.5-16-18.4
		c2.8,8.9,7.3,17.2,11.8,25.3c11.6,20.9,23.2,41.8,34.8,62.7c9.7,17.6,19.5,35.1,30.2,52.1c7.8,12.4,16.2,24.6,27.6,33.7
		C26.7,2540,26.6,2535.9,25.5,2537L25.5,2537z"/>
</g>
<g class="st0">
	<path class="st20" d="M531.3,1786.6c-6.1-49.2-46.5-88.6-92.2-107.7s-96.4-21.6-145.8-23.8c-52.3-2.4-104.6-4.7-156.9-7.1
		c-36.3-1.6-76.9-1.8-103.6,22.9c-17.9,16.6-25.6,41-32.6,64.3c-17.5,58.1-32.3,124.6-49.8,182.7c-7.2,23.9-17.1,42-6.5,64.6
		c5.2,11.1,14.1,19.9,22.8,28.5c27.9,27.4,60.5,56.6,99.6,55.1c2.1-0.1,4.3-0.3,6-1.6c2.4-1.8,3.1-5.1,3.5-8.1
		c2.1-14.5,4.1-29,6.2-43.5c4.5-31.3,9.1-63.2,22.7-91.8c20.8-43.9,61.3-76.1,105.7-95.8c44.4-19.7,92.9-28.2,141-35.1
		C408.4,1781.9,466.4,1775.8,531.3,1786.6L531.3,1786.6z"/>
	<path class="st20" d="M69.8,2057.8c10.3-90.3,31.5-179.1,52.6-267.5c3.3-13.7,6.7-27.7,14.3-39.6c11.7-18.3,32.3-29.5,53.5-34.4
		s43.2-4.3,65-3.6c50.2,1.5,100.4,3,150.6,4.6c21.2,0.6,42.5,1.3,63.5,4.2c15.2,2.1,30.6,5.7,43.2,14.4c28.9,20,34.2,60.2,34,95.3
		c-0.3,78.3-14.5,156.6-41.6,230c-1.6,4.2-3.2,8.5-6.2,11.8c-5.7,6.2-14.9,7.6-23.3,8.5c-125.8,13.4-252.9,3.6-378.2-13.4
		C86.8,2066.7,75.3,2064.5,69.8,2057.8L69.8,2057.8z"/>
	<path class="st20" d="M411.6,1704.9c-69.4-3.1-138.8-6.3-208.2-9.4c-4.1-0.2-8.4-0.4-12-2.6c-3.5-2.2-5.7-7-3.7-10.6
		c13.1-4.2,27.1-4.1,40.9-3.8c28,0.6,56,1.7,84,2.8c32.8,1.3,66.5,2.8,96.9,15.4c3.7,1.5,7.9,4.2,7.4,8.2
		C414.6,1705.8,412.3,1706.8,411.6,1704.9L411.6,1704.9z"/>
	<path class="st20" d="M395.5,1676.4c-70.7-7.5-141.7-12.9-212.7-16.2c-5.8-0.3-13-1.6-14.4-7.2c15.3-1.2,30.7-1.1,46.1-1
		c54.5,0.5,109.2,1,162.7,11.2c8.7,1.7,18.4,4.3,22.8,12C397.4,1675.9,395,1676.6,395.5,1676.4L395.5,1676.4z"/>
	<path class="st20" d="M33.3,1755.7c-16.5,64.2-32.9,128.5-49.4,192.8c-3,11.8-6.1,24-3.9,36c2.1,12,11,23.7,23.1,25
		c20.3-71.1,40.5-142.3,60.8-213.4c2.6-9,5.1-18.2,4.2-27.6c-0.9-9.3-6.2-18.8-15-21.9S34.8,1749.7,33.3,1755.7L33.3,1755.7z"/>
	<path class="st20" d="M-9.8,1815.7c-4.8,13.4-8.6,27.2-11.6,41.2c-0.9,4.1-1.7,8.5-0.5,12.5c1.7,6,7.2,10,12.4,13.4
		c17.7,11.7,36.2,22.2,55.2,31.4c2.2,1.1,4.8,2.2,7.1,1.2c1.7-0.7,2.8-2.4,3.7-4c9.2-15.8,15.7-33.1,19.1-51
		c0.7-3.4,1.2-6.9,0.4-10.3c-1-4-3.9-7.3-6.9-10c-9-8.1-20.3-13-31.3-17.8c-9.3-4-18.6-8.1-27.9-12.1c-3.9-1.7-8.2-3.4-12.2-2.2
		C-7.8,1809.7-10.3,1816.2-9.8,1815.7L-9.8,1815.7z"/>
	<path class="st20" d="M60.7,1841.7c-5.3,18.9-10.6,37.9-15.9,56.8c-0.6,2.2-1.3,4.5-2.9,6.1c-1.6,1.6-4.5,2.3-6.2,0.8
		c-1.9-1.7-1.3-4.7-0.7-7.2c4.7-16.5,9.4-32.9,14.2-49.4c1.3-4.7,2.8-9.6,6.3-13.1c0.9-0.9,2.2-1.6,3.2-0.9
		C59.8,1838.9,59.8,1843.4,60.7,1841.7L60.7,1841.7z"/>
	<path class="st20" d="M232.6,1736.4c-0.9-7.3-2.2-18.7-7.1-24.2c-1.2-1.3-19.1,0.4-19.9,1.4c17.3,116.8,34.9,235,52.2,351.8
		c0.3,2.2,0.8,4.6,2.4,6.2c1.5,1.5,3.7,1.9,5.8,2.2c6.5,1.1,13,2.2,19.5,3.3C266.1,1963.9,246.7,1850.5,232.6,1736.4L232.6,1736.4z"
		/>
	<path class="st20" d="M272.9,1713.1c24.7,121.3,46.3,243.3,64.7,365.8c0.3,2.3,0.8,4.7,2.5,6.2c1.4,1.2,3.4,1.5,5.3,1.7
		c20.9,2.5,41.8,4.9,62.7,7.4c1.7,0.2,3.6,0.3,4.9-0.8c1.4-1.2,1.5-3.3,1.5-5.2c-0.3-13.5-2.4-27-4.4-40.4
		c-16.5-108.2-33.1-216.5-54.3-323.9c-0.5-2.5-1.1-5.3-3.2-6.8c-1.6-1.2-3.7-1.3-5.6-1.4C321.2,1714.7,295.4,1713.4,272.9,1713.1
		L272.9,1713.1z"/>
	<path class="st20" d="M481.8,1730.3c-0.6-2.3-1.4-4.7-2.1-7c-2.1-0.6-4.2-1-6.3-1.5c-2.5-0.5-5-1-7.5-1.5c-1.1-0.2-2.2-0.4-3.2-0.6
		c-0.7-0.1-1.4-0.2-2.2-0.3c1,0.1,0.8,0.1-0.8-0.1c-0.8-0.1-1.2-0.2-1.3-0.2c-0.6-0.1-1.1-0.1-1.7-0.2c-1.1-0.1-2.2-0.2-3.3-0.3
		c-2.6-0.2-5.1-0.4-7.7-0.6c-2-0.1-3.9-0.1-5.9,0c25.7,89.8,51.3,179.7,77,269.6c2.4,8.3,2.9,12,5.8,20.2c5.3-24.7,11.3-47,15.4-75
		C518.8,1863.4,501.2,1799.7,481.8,1730.3L481.8,1730.3z"/>
	<path class="st20" d="M506.5,2052c1.6,5.7-2.4,11.7-7.7,14.4s-11.4,2.9-17.3,3.1c-115.2,2.8-230.5,0.4-345.5-7.2
		c-28.1-1.8-56.8-4.1-82.4-15.8c-22.5-10.3-41.2-27.2-59.6-43.8c-11-10-22-20-33.1-30c-10.2-9.3-21.4-22.7-15.6-35.2
		c-5-4.7-13.7-2.9-18.6,1.9s-7.1,11.7-9.1,18.3c-6.9,23.1-13.6,49.1-2,70.2c5.1,9.3,13.2,16.5,21.2,23.4
		c43.7,37.9,90.9,75.4,147.3,88.6c26.3,6.2,53.6,6.8,80.6,7.4c106.1,2.3,212.2,4.6,318.2,6.9c4.6,0.1,9.6,0.1,13.4-2.4
		c2.9-1.9,4.8-5.1,6.4-8.2c10.7-20,17.5-42,19.9-64.6c0.7-6.4,0.9-13.1-2.1-18.8C517.8,2054.6,510.5,2050.8,506.5,2052L506.5,2052z"
		/>
	<path class="st20" d="M517.1,2067.7c0-0.2,0-0.4-0.1-0.6c-0.2-0.6,0.1-0.1-0.6-1c-0.3-0.4-0.6-0.7-0.9-1c-1.5-0.1-2.9-0.4-4.3-1.1
		c-1.4-0.8-2.9-1.2-4.5-1.5c-1,0-2.1,0-3.2,0.1c-1.3,1.6-2.9,2.9-4.7,3.8c-3.7,1.9-7.8,2.6-11.9,2.9c7.6,1.9,16,3.2,23,2.2
		c2.8-0.4,5.5-1.2,6.7-2.7c0.6-0.7-0.5,0.4,0.4-0.8C516.6,2068.6,516.9,2067.9,517.1,2067.7L517.1,2067.7z"/>
	<path class="st20" d="M-44.5,1970c13.1,18.9,30.6,35.1,50,47.4c5.3,3.3,10.7,6.4,16.3,9.2c-9.6-7.5-18.7-15.7-27.7-23.9
		c-11-10-22-20-33.1-30c-10.2-9.3-21.4-22.7-15.6-35.2c-2.3-2.1-5.2-2.8-8.3-2.6C-58.3,1947.5-52.2,1959-44.5,1970L-44.5,1970z"/>
	<path class="st20" d="M410.3,2135.5c-64.5,3.9-128.9,4.7-193.6,3.9c-32.3-0.4-64.6-1.1-96.9-2.4c-16.3-0.6-32.6-1.3-48.9-2.3
		c-2-0.1-3.9-0.2-5.9-0.3c6.3,2.1,12.7,4.1,19.3,5.6c26.3,6.2,53.6,6.8,80.6,7.4c106.1,2.3,212.2,4.6,318.2,6.9
		c4.6,0.1,9.6,0.1,13.4-2.4c2.9-1.9,4.8-5.1,6.4-8.2c2.6-4.8,4.9-9.7,7-14.7C476.8,2131.3,443.5,2133.5,410.3,2135.5L410.3,2135.5z"
		/>
	<path class="st20" d="M62.8,2060.7c-3,15.8-6,31.6-8.9,47.4c-0.8,4.1-1.5,8.4-0.1,12.3c0.9,2.4,2.5,4.4,4.3,6.2
		c4.5,4.4,10.3,7.4,16.5,8.4c0.9,0.2,2,0.3,2.8-0.2c1.2-0.6,1.7-2.1,2.1-3.4c3.4-12.5,5.8-25.3,7.2-38.2c1-8.9,1.4-18.2-1.9-26.5
		c-2-5.1-5.8-9.8-11.1-11.2C68.4,2054.2,63.4,2057.5,62.8,2060.7L62.8,2060.7z"/>
	<path class="st20" d="M509,2082.8c-58.2,10.4-117.6,14-176.6,10.9c-7.6-0.4-16.2-1.5-20.6-7.6c13.1-8.3,29.8-7.7,45.3-7.1
		c45,1.7,90.1,1.2,135.1-1.6c7-0.4,15.1-0.5,19.8,4.8C510.4,2083.9,508.8,2085.8,509,2082.8L509,2082.8z"/>
	<path class="st20" d="M38,1674.3c6.9-10.9,22-14,34.4-10.6s22.8,11.7,32.8,19.8c11.1,9.1,22.3,18.2,33.4,27.2
		c4.8,3.9,10.1,9.3,8.3,15.2c-0.8,2.7-3,4.7-5.1,6.6c-4.1,3.6-8.2,7.2-12.4,10.7c-1,0.9-2.1,1.8-3.5,2c-1.5,0.3-3.1-0.4-4.5-1.1
		c-14.5-7.2-26-19.3-37.8-30.3c-12.2-11.4-25.2-22.1-38.8-31.8C41.3,1679.6,36.8,1676.2,38,1674.3L38,1674.3z"/>
</g>
<g class="st0">
	<path class="st20" d="M1950.3,1786.6c-6.1-49.2-46.5-88.6-92.2-107.7s-96.3-21.6-145.8-23.8c-52.3-2.4-104.6-4.7-156.9-7.1
		c-36.3-1.6-76.9-1.8-103.6,22.9c-17.9,16.6-25.6,41-32.6,64.3c-17.5,58.1-32.3,124.6-49.8,182.7c-7.2,23.9-17.1,42-6.5,64.6
		c5.2,11.1,14.1,19.9,22.8,28.5c27.9,27.4,60.5,56.6,99.6,55.1c2.1-0.1,4.3-0.3,6-1.6c2.4-1.8,3.1-5.1,3.5-8.1
		c2.1-14.5,4.1-29,6.2-43.5c4.5-31.3,9.1-63.2,22.7-91.8c20.8-43.9,61.3-76.1,105.7-95.8c44.4-19.7,92.9-28.2,141-35.1
		C1827.4,1781.9,1885.4,1775.8,1950.3,1786.6L1950.3,1786.6z"/>
	<path class="st20" d="M1452.3,1755.7c-16.5,64.2-32.9,128.5-49.4,192.8c-3,11.8-6.1,24-3.9,36c2.2,12,11,23.7,23.1,25
		c20.3-71.1,40.5-142.3,60.8-213.4c2.6-9,5.2-18.2,4.2-27.6c-0.9-9.3-6.2-18.8-15-21.9S1453.8,1749.7,1452.3,1755.7L1452.3,1755.7z"
		/>
	<path class="st20" d="M1409.2,1815.7c-4.8,13.4-8.7,27.2-11.6,41.2c-0.9,4.1-1.7,8.5-0.5,12.5c1.7,6,7.2,10,12.4,13.4
		c17.7,11.7,36.2,22.2,55.2,31.4c2.2,1.1,4.8,2.2,7.1,1.2c1.7-0.7,2.8-2.4,3.7-4c9.2-15.8,15.7-33.1,19.2-51
		c0.7-3.4,1.2-6.9,0.4-10.3c-1-4-3.9-7.3-6.9-10c-9-8.1-20.3-13-31.3-17.8c-9.3-4-18.6-8.1-27.9-12.1c-3.9-1.7-8.2-3.4-12.2-2.2
		C1411.2,1809.7,1408.7,1816.2,1409.2,1815.7L1409.2,1815.7z"/>
	<path class="st20" d="M1925.5,2052c1.6,5.7-2.4,11.7-7.7,14.4s-11.4,2.9-17.3,3.1c-115.2,2.8-230.5,0.4-345.5-7.2
		c-28.1-1.8-56.8-4.1-82.4-15.8c-22.5-10.3-41.2-27.2-59.6-43.8c-11-10-22.1-20-33.1-30c-10.2-9.3-21.4-22.7-15.6-35.2
		c-5.1-4.7-13.7-2.9-18.6,1.9c-4.9,4.8-7.1,11.7-9.1,18.3c-6.9,23.1-13.6,49.1-2,70.2c5.1,9.3,13.2,16.5,21.2,23.4
		c43.7,37.9,90.9,75.4,147.3,88.6c26.3,6.2,53.6,6.8,80.6,7.4c106.1,2.3,212.2,4.6,318.2,6.9c4.6,0.1,9.6,0.1,13.4-2.4
		c2.9-1.9,4.8-5.1,6.4-8.2c10.7-20,17.5-42,19.9-64.6c0.7-6.4,0.9-13.1-2.1-18.8C1936.8,2054.6,1929.5,2050.8,1925.5,2052
		L1925.5,2052z"/>
	<path class="st20" d="M1374.5,1970c13.1,18.9,30.6,35.1,49.9,47.4c5.3,3.3,10.7,6.4,16.3,9.2c-9.6-7.5-18.7-15.7-27.7-23.9
		c-11-10-22.1-20-33.1-30c-10.2-9.3-21.4-22.7-15.6-35.2c-2.3-2.1-5.2-2.8-8.3-2.6C1360.7,1947.5,1366.8,1959,1374.5,1970
		L1374.5,1970z"/>
	<path class="st20" d="M1404.9,2089.8c-21-18.1-39.8-38.6-55.6-61.2c-7.7-11-14.3-22.8-20.4-34.8c-1.1,12,0.2,23.7,5.9,34.2
		c5.1,9.3,13.2,16.5,21.2,23.4c19.2,16.6,39.1,33.1,60.1,47.6C1412.3,2095.9,1408.6,2092.9,1404.9,2089.8L1404.9,2089.8z"/>
	<path class="st20" d="M1353.4,1941.3c0.9,13.2,8,25.9,18.7,33.8c2.1,1.5,4.3,2.9,5.7,5.1c1.3,2.2,1.1,5.6-1.1,6.8
		c-1.1,0.6-2.4,0.6-3.7,0.4c-7.1-1.2-11.7-7.9-15.2-14.2c-3.2-5.7-6.3-11.6-9.1-17.5c-1.6-3.3-3.1-7-2.1-10.6
		C1347.5,1941.7,1353.2,1939.2,1353.4,1941.3L1353.4,1941.3z"/>
</g>
<g class="st0">
	<path class="st21" d="M134.7,523.7c-5.3-6.1-11.6-11.2-18.7-15.1c-5.1-2.8-10.6-5.1-16.4-5.5c-4.7-0.4-9.4,0.4-13.9,1.7
		c-19.1,5.5-34.8,19.8-45.1,36.7c-10.4,16.9-16,36.3-19.8,55.8c-4.5,23.1-6.8,46.8-4,70.1c0.8,6.9,2.1,13.7,3.5,20.4
		c3.7,18,8.9,37,22.8,49c0.7,0.6,1.4,1.2,2.3,1.2c1.7,0,2.6-1.9,3.1-3.5c1.7-5.2,3.3-10.5,4.8-15.8c1.4-4.7,2.7-9.5,2.2-14.4
		c-0.4-4.1-2.1-8-3.5-11.9C40.7,662,43.2,628,52.4,597c2.7-9.2,6-18.3,9.4-27.3c4.6-12.5,9.9-25.9,21.1-33.1
		c10.5-6.8,25.3-6.2,35.2,1.4c1.6,1.2,3.3,2.6,5.3,2.3c1.5-0.2,2.6-1.5,3.6-2.7C130.2,533.1,132.7,528,134.7,523.7L134.7,523.7z"/>
	<path class="st21" d="M48.5,734.3c1.7-5.2,3.3-10.5,4.8-15.8c1.4-4.7,2.7-9.5,2.2-14.4c-0.4-4.1-2.1-8-3.5-11.9
		c-11.3-30.3-8.8-64.4,0.4-95.4c2.7-9.2,6-18.3,9.4-27.3c4.6-12.5,9.8-25.9,21.1-33.1c10.5-6.8,25.3-6.2,35.2,1.4
		c1.6,1.2,3.3,2.6,5.3,2.3c1.5-0.2,2.6-1.5,3.6-2.7c3.4-4.4,5.9-9.5,7.8-13.8c-2.2-2.5-4.6-4.9-7.1-7c-0.2,0.1-0.4,0.2-0.6,0.3
		c-15.6,7.4-34.1,3.7-49.3,12.2c-32.2,18.1-35.3,59-36.6,91.9c-1.6,37.7-1.7,75.5-0.5,113.2c0.8,0.8,1.7,1.6,2.6,2.4
		c0.7,0.6,1.4,1.2,2.3,1.2C47.1,737.9,48,736,48.5,734.3L48.5,734.3z"/>
	<path class="st21" d="M95.4,506.8c-10.6,0.5-20.6,5.1-28.9,11.7c-8.3,6.6-15,15-21,23.6c-4.6,6.6-9,15.3-5,22.3
		c10.6-9.7,14.1-25.3,24-35.8c6.7-7.1,16.2-11.5,25.9-11.9c5.3-0.2,11.2,0.5,15.4-2.7c0.4-0.3,0.9-0.7,1-1.3c0.3-1-0.6-2-1.5-2.6
		C101.6,507.3,97.2,506.7,95.4,506.8L95.4,506.8z"/>
	<path class="st21" d="M24.6,603.4c-0.8,14.9-1.6,29.7-2.4,44.6c-0.3,4.9-0.5,9.8-0.1,14.7c0.5,5.7,2.1,11.4,4.5,16.6
		c2.7-2.5,3.7-6.3,4.4-10c4.3-21.1,4.3-43.1,0.2-64.3c-0.6-2.9-1.3-5.9-3.5-7.8C25.4,599.9,24.3,603.6,24.6,603.4z"/>
	<path class="st21" d="M341.5,638.4c4.2-2.3,5.1-8.2,3.3-12.6c-1.9-4.4-5.7-7.5-9.5-10.4c-42.8-32.6-92.1-55.5-136.8-85.4
		c-14.7-9.9-29-20.5-45.1-28.1c-4.4-2-9.7-3.8-13.7-1.1c-1.4,0.9-2.5,2.3-3.5,3.7c-6.5,8.7-13.1,17.3-18.8,26.5
		c-9.6,15.5-16.7,32.3-23.7,49.1c-24.6,59.2-48.4,119.8-56.4,183.4c-0.6,4.8-1.1,9.9,0.9,14.4c1.7,3.7,4.9,6.5,8,9.1
		c19.5,16.4,39.4,33,62.7,43.4c6.5,2.9,13.6,5.4,20.6,4.5c4.9-0.6,9.5-2.7,13.9-4.9c34.6-17.5,64.4-43,93.9-68.3
		c19.3-16.5,38.7-33.2,54.1-53.4c3.4-4.5,6.7-9.2,11.1-12.8c6.1-5,13.7-7.5,21.1-10.3c12.4-4.8,24.3-11,35.5-18.3
		c3.4-2.2,7.2-5.5,6.5-9.5c-0.5-3-3.3-5-5.8-6.6C353.3,646.4,346.9,642.3,341.5,638.4L341.5,638.4z"/>
	<path class="st21" d="M297.5,700.7c12-15,25.7-31.1,37.6-46.1c0.7-0.9,2.4-1.6,2.6-0.5c0.1,0.3-0.1,0.7-0.2,1
		c-3.3,7.2-6.7,14.3-10,21.5c-1.2,2.6-2.5,5.3-4.5,7.4c-2.8,2.9-6.8,4.3-10.5,6.1C307,692.5,300.2,697.3,297.5,700.7L297.5,700.7z"
		/>
	<path class="st21" d="M140.9,561.9c-36,61.7-70.5,127.5-74.1,198.8c-0.1,2.4-0.2,5,0.9,7.2s3.7,3.8,6,3c2.3-0.8,3.3-3.5,3.9-5.9
		c7.1-26.5,16.5-62.3,26.3-88c19.2-50.5,52.6-100.8,61.6-139.7C168.4,524,145.2,554.6,140.9,561.9L140.9,561.9z"/>
	<path class="st21" d="M193.8,568.9C150.4,634.4,106,702,90.4,779.1c-0.6,3.1-1,6.9,1.4,9c4.5-2,6.6-7,8.4-11.5
		c22.5-56.5,50.2-110.9,82.8-162.3c7.8-12.2,15.8-24.4,21.1-38c1.4-3.5,2.2-8.2-0.8-10.5C199.8,563.2,195.3,566.6,193.8,568.9
		L193.8,568.9z"/>
	<path class="st21" d="M251.6,611.2c-30.7,45.4-64.2,88.9-100.2,130.2c-13.8,15.8-28.1,31.4-39.6,49c-1.2,1.8,1,3.9,2.8,2.7
		c31.1-21.8,55.6-51.9,79.6-81.5c8.5-10.5,17.1-21,25.6-31.6c17.1-21,34.2-42.3,46.4-66.6c2-4,3.4-9.7-0.3-12
		c-3.2-2-7.4,0.4-9.6,3.5C254,608,252.7,611.8,251.6,611.2L251.6,611.2z"/>
	<path class="st21" d="M287.5,647.4c-45,46.2-84.1,98.5-133.5,140c-8.1,6.8-16.6,13.4-22.3,22.2c3.4,3,8.7,0.6,12.4-1.9
		C193,775,234,731.9,274.6,689.2c12.7-13.3,25.6-27.1,33.1-43.9c1.6-3.5,1.5-9.4-2.4-9.4c-1.2,0-2.2,0.7-3.2,1.3
		C295.5,641.8,288.7,646.2,287.5,647.4L287.5,647.4z"/>
	<path class="st21" d="M143.3,500.2c16.2-6.8,34.8-3.5,51.7,1.1c42.8,11.6,84.6,32,113.8,65.3c7.6,8.7,14.3,18.1,20.9,27.5
		c5.8,8.2,11.7,16.6,14.6,26.1c0.7,2.3,0.9,5.3-1.2,6.5c-1.6,0.9-3.5,0-5.1-0.9c-38.8-21.5-72.6-51.4-111.6-72.7
		c-8.4-4.6-17-8.8-25.5-13.1c-16.1-8.2-31.8-17.1-47.1-26.7C148,509.6,141.4,504.3,143.3,500.2L143.3,500.2z"/>
	<path class="st21" d="M258.6,513.4c-2.8,4.6-5.2,9.5-6.9,14.7c-0.4,1.3-0.9,2.8-0.3,4c0.5,1,1.5,1.6,2.4,2.2
		c6.2,3.6,12.5,7,18.9,10.3c0.5,0.2,1,0.5,1.5,0.5c0.7,0,1.4-0.5,2-0.9c4-3.2,7.1-7.4,8.9-12.2c-4.8-2.5-9.2-5.6-13.2-9.2
		c-1.4-1.3-2.8-2.6-4.4-3.7C264.5,517.1,261.9,515.1,258.6,513.4L258.6,513.4z"/>
	<path class="st21" d="M282.7,511.5c-7-4.4-14-8.6-22.3-7.5c-2.7,0.4-6.8,1.9-7.3,4.6c-0.2,1.2,0.1,2.5,0.6,3.5
		c1.7,3.7,5.1,6.2,8.4,8.5c6.4,4.5,12.8,9.1,19.8,12.6c2,1,4.2,1.8,6.3,1.1c3.3-1.2,3.9-5.7,3-9.2
		C289.8,519.1,285.9,513.6,282.7,511.5L282.7,511.5z"/>
	<path class="st21" d="M40.6,772.2c-33.4,10.8-62.4,34.4-80,64.8c-1.1,1.9-2.2,4.1-1.5,6.2c0.4,1.2,1.4,2.2,2.4,3
		c5.8,5.2,11.8,10.2,17.9,15c30,23.6,63.5,42.2,96.9,60.8c5.4,3,10.8,6,16.3,9.1c1.9,1,3.9,2.1,6,1.6c1.7-0.4,3.1-1.8,4.2-3.1
		c19.2-22.4,26.5-52.7,29.3-82.1c0.4-4.4,0.6-9.2-1.9-12.9c-1.1-1.6-2.7-2.9-4.3-4.1C98.5,809.5,69.8,790.2,40.6,772.2z"/>
	<path class="st21" d="M85.3,907.1c-12.9-11.9-26.9-22.7-41.6-32.3c-7.3-4.7-14.9-9-22.5-13.3c-6.4-3.7-13.1-7.4-18.7-12.3
		c-12.1-10.5-16-26.2-9.9-41.1c3-7.3,8.5-14,14.1-19.4c0.3-0.3,0.6-0.5,0.9-0.8c-19.2,12.4-35.6,29.2-47,49
		c-1.1,1.9-2.2,4.1-1.5,6.2c0.4,1.2,1.4,2.2,2.4,3c5.8,5.2,11.8,10.2,17.9,15c30,23.6,63.5,42.2,96.9,60.8c5.4,3,10.8,6,16.3,9.1
		c1.9,1,3.9,2.1,6,1.6c1.7-0.4,3.1-1.8,4.2-3.1c0.7-0.9,1.4-1.8,2.1-2.6C98.7,920,92.2,913.4,85.3,907.1L85.3,907.1z"/>
	<path class="st21" d="M95.5,951.9c5.6-2.5,8.9-9,7.6-15c-1.3-6-6.4-10.3-11.2-14c-39.4-30.9-79.3-62-124.3-84.1
		c-3.8-1.8-7.8-3.7-12-3.2c-4.9,0.6-8.9,4.2-12.4,7.7c-1,1-2,2-2.2,3.4c-0.3,1.8,1.1,3.5,2.3,4.8c10.5,10.8,24.1,18,37.2,25.4
		c28.5,16.2,55.8,34.7,81.4,55.2C72.6,940.7,83.8,949.9,95.5,951.9L95.5,951.9z"/>
	<path class="st21" d="M122.4,838.2c4.8,18.4-2.1,37.5-8.8,55.3c-2.3,6.1-4.8,12.4-9.2,17.1c-2.5-1.8-3.5-5.1-3.4-8.2
		c0.1-3.1,1.2-6,2-9c2.7-9.5,3.1-19.6,1.2-29.2c-1.5-7.3-4.2-14.3-5.1-21.7c-0.4-3.5-0.4-7.2,1.5-10.2c2.8-4.4,9.2-5.6,14-3.5
		C119.3,830.9,121.7,835.5,122.4,838.2L122.4,838.2z"/>
	<path class="st21" d="M-40.2,837.6c20.8,11.2,41.3,23,61.3,35.5c10.1,6.3,20.3,12.9,28.5,21.5c-1.4,1.4-3.8,0.7-5.6-0.2
		c-28.9-13.3-54.3-35.8-85.8-40.5c-4.3-0.6-9.5-1.6-10.8-5.7c-1-3,0.9-6.3,3.5-8.1S-43.2,838-40.2,837.6z"/>
	<path class="st21" d="M290.8,557.6c14.3,15.7,27.7,32.3,40.1,49.6c1.8,2.5,3.7,5.7,2.4,8.6c-9.7-3.9-16.7-12.5-23.3-20.6
		c-7-8.7-14-17.5-21-26.2c-1.6-2-3.2-4-3.9-6.5s-0.2-5.4,1.8-7C288.8,554,292.4,554.8,290.8,557.6L290.8,557.6z"/>
	<path class="st21" d="M281.9,528.1c0.8,0.9,1.7,1.7,2.8,2c1.1,0.3,2.5,0,3.1-1c0.6-1,0.2-2.2-0.1-3.3c-1.8-5.5-3.8-11.5-8.7-14.8
		c-1.4-0.9-3.4-1.6-4.8-0.5c-1,0.8-1.3,2.2-1,3.5C273.5,515.3,278.6,524.5,281.9,528.1L281.9,528.1z"/>
	<path class="st21" d="M305.2,651.9c-2.8,6.4-7.3,11.8-11.8,17.1c-22,25.4-45.9,49.1-70,72.6c-25.9,25.3-52.4,50.7-83.8,68.7
		c3.7,1.2,7.6-0.6,11-2.5c46-24.9,82.5-63.9,118.1-102.2c14.3-15.4,28.9-31.2,37.1-50.5C306.4,653.9,306.7,651.9,305.2,651.9
		L305.2,651.9z"/>
	<path class="st21" d="M342.1,641c6,7.8,12.6,16.2,22.1,18.9c0.4,0.1,0.8,0.2,1.1,0.1c1-0.4,0.6-1.8,0.1-2.7
		c-2.8-4.5-6.7-8.3-11.2-11c-2-1.2-4.2-2.2-6.4-3.2C345.9,642.1,343.9,641.2,342.1,641L342.1,641z"/>
	<path class="st21" d="M255.3,606.2c-18.6,25.9-37.2,51.8-56.5,77.1c-27.4,35.9-56.4,70.7-86.7,104.1c26-37.5,54.7-73.1,83.4-108.7
		c5.6-7,11.3-14,16.9-21c4-5,8.1-10,12.2-15C234.9,630.3,245.5,618.2,255.3,606.2L255.3,606.2z"/>
	<path class="st21" d="M193.4,570.2c-43.5,64.2-85,131.6-103.6,206.8c-0.2,0.7-1.2,0.6-1.2-0.1c-0.2-8,1.3-16,3-23.8
		C107.1,683.2,143.9,618.1,193.4,570.2C193.3,570.2,193.4,570.2,193.4,570.2L193.4,570.2z"/>
	<path class="st21" d="M154.5,543.8c-9.7,6.9-13.9,16.9-19.8,27.3C101.4,630.6,70.8,693.8,65,761.7c0,0.1-0.2,0.1-0.2,0
		c-4.3-28,3.6-56.3,12.4-83.2c8.2-25.2,17.4-50.2,29.9-73.6C119.6,581.5,133.6,560.4,154.5,543.8L154.5,543.8z"/>
</g>
<g class="st0">
	<path class="st21" d="M1454.6,772.2c-33.4,10.8-62.4,34.4-80,64.8c-1.1,1.9-2.2,4.1-1.5,6.2c0.4,1.2,1.4,2.2,2.4,3
		c5.8,5.2,11.8,10.2,17.9,15c30,23.6,63.5,42.2,96.9,60.8c5.4,3,10.8,6,16.3,9.1c1.9,1,3.9,2.1,6,1.6c1.7-0.4,3.1-1.8,4.2-3.1
		c19.2-22.4,26.5-52.7,29.3-82.1c0.4-4.4,0.6-9.2-1.9-12.9c-1.1-1.6-2.7-2.9-4.3-4.1C1512.5,809.5,1483.8,790.2,1454.6,772.2z"/>
	<path class="st21" d="M1499.3,907.1c-12.9-11.9-26.9-22.7-41.6-32.3c-7.3-4.7-14.9-9-22.5-13.3c-6.4-3.7-13.1-7.4-18.7-12.3
		c-12.1-10.5-16-26.2-9.9-41.1c3-7.3,8.5-14,14.1-19.4c0.3-0.3,0.6-0.5,0.9-0.8c-19.2,12.4-35.6,29.2-47,49
		c-1.1,1.9-2.2,4.1-1.5,6.2c0.4,1.2,1.4,2.2,2.4,3c5.8,5.2,11.8,10.2,17.9,15c30,23.6,63.5,42.2,96.9,60.8c5.4,3,10.8,6,16.3,9.1
		c1.9,1,3.9,2.1,6,1.6c1.7-0.4,3.1-1.8,4.2-3.1c0.7-0.9,1.4-1.8,2.1-2.6C1512.7,920,1506.2,913.4,1499.3,907.1L1499.3,907.1z"/>
	<path class="st21" d="M1509.5,951.9c5.6-2.5,8.9-9,7.6-15c-1.3-6-6.4-10.3-11.2-14c-39.4-30.9-79.3-62-124.3-84.1
		c-3.8-1.8-7.8-3.7-12-3.2c-4.9,0.6-8.9,4.2-12.4,7.7c-1,1-2,2-2.2,3.4c-0.3,1.8,1.1,3.5,2.3,4.8c10.5,10.8,24.1,18,37.2,25.4
		c28.5,16.2,55.8,34.7,81.4,55.2C1486.6,940.7,1497.8,949.9,1509.5,951.9L1509.5,951.9z"/>
	<path class="st21" d="M1373.8,837.6c20.8,11.2,41.3,23,61.3,35.5c10.2,6.3,20.3,12.9,28.5,21.5c-1.4,1.4-3.8,0.7-5.6-0.2
		c-28.9-13.3-54.3-35.8-85.8-40.5c-4.3-0.6-9.5-1.6-10.8-5.7c-1-3,0.9-6.3,3.5-8.1S1370.8,838,1373.8,837.6z"/>
</g>
</svg>
