<?xml version="1.0" encoding="UTF-8"?><svg id="Layer_1" xmlns="http://www.w3.org/2000/svg" viewBox="0 0 1420 4388"><defs><style>.cls-1{opacity:.78;}.cls-1,.cls-2,.cls-3,.cls-4,.cls-5,.cls-6,.cls-7,.cls-8,.cls-9,.cls-10,.cls-11,.cls-12,.cls-13,.cls-14,.cls-15,.cls-16,.cls-17,.cls-18,.cls-19,.cls-20{fill:none;stroke:#000;stroke-miterlimit:10;}.cls-1,.cls-19{stroke-width:4.86px;}.cls-2{stroke-width:7.57px;}.cls-3,.cls-4{opacity:.23;}.cls-3,.cls-11{stroke-width:6.56px;}.cls-4,.cls-20{stroke-width:7.38px;}.cls-5{opacity:.52;}.cls-5,.cls-17{stroke-width:7.53px;}.cls-6{stroke-width:6.55px;}.cls-7{opacity:.4;}.cls-7,.cls-12,.cls-13{stroke-width:4.89px;}.cls-8{stroke-width:4.66px;}.cls-9{stroke-width:8.55px;}.cls-10{opacity:.55;}.cls-10,.cls-16{stroke-width:5.24px;}.cls-21{opacity:.03;}.cls-13{opacity:.24;}.cls-14{stroke-width:4.81px;}.cls-15{stroke-width:6.1px;}.cls-18{stroke-width:5.43px;}.cls-22{opacity:.46;}</style></defs><g id="scapula" class="cls-21"><path class="cls-17" d="m891.39,4268.26c33.6-70.35,67.21-140.69,100.81-211.03,48.17-100.83,96.34-201.66,144.51-302.49,6.56-13.73,1-30.17-12.52-37.11-13.55-6.95-30.16-1.85-37.48,11.5l-162.23,296.3-111.26,203.19c-7.66,14-2.15,31.55,12.12,38.65,9.39,4.68,18.79,9.35,28.18,14.03,14.05,6.98,31.1,1.12,37.87-13.04Zm-27.69-76.18c11.82-23.02,26.95-38.83,33.8-35.32,6.85,3.52,2.83,25.03-8.99,48.05-11.82,23.02-26.95,38.83-33.8,35.31-6.85-3.51-2.83-25.03,8.99-48.05Z"/><path class="cls-17" d="m903.83,4171.3c6.85,3.51,2.83,25.03-8.99,48.05-11.82,23.02-26.95,38.83-33.8,35.31-3.08-1.58-3.96-6.82-2.92-14.19,7.7-1.51,20.26-15.93,30.38-35.66,6.5-12.66,10.63-24.86,11.9-33.86,1.28-.25,2.44-.16,3.42.35Z"/><path class="cls-17" d="m1130.51,3732.17c-13.55-6.95-30.16-1.85-37.48,11.5l-162.23,296.3-111.26,203.19c-2.96,5.41-3.95,11.35-3.23,17.02-7.19-8.59-8.85-21.07-3.11-31.55l111.26-203.19,162.23-296.3c7.32-13.35,23.93-18.45,37.48-11.5,8.56,4.39,13.92,12.59,15.05,21.49-2.34-2.8-5.27-5.19-8.71-6.96Z"/><path class="cls-17" d="m1250.98,3710.7l-34.01-12.49h-.02s-14.91-5.5-14.91-5.5l-44.76-16.46-27.98-10.28-67.65-24.87-2.98-1.09v.02s1.91,17.77,1.91,17.77l10.81,100.65c6.05.05,18.32.98,31.41,8.22,9.04,5,15.22,11.23,19.05,15.92.86,1.05,1.61,2.04,2.25,2.92,9.08-5.36,18.15-10.7,27.23-16.06,15.88-9.35,31.73-18.71,47.6-28.06,5.29-3.11,10.58-6.24,15.87-9.36,3.15-1.84,6.29-3.71,9.42-5.56h.02c8.92-5.26,17.84-10.51,26.74-15.77Z"/><path class="cls-17" d="m891.39,4268.26c33.6-70.35,67.21-140.69,100.81-211.03-6.59-3.43-13.32-6.83-20.2-10.19-16.24-7.94-32.1-15.12-47.53-21.61l-111.26,203.19c-7.66,14-2.15,31.55,12.12,38.65,9.39,4.68,18.79,9.35,28.18,14.03,14.05,6.98,31.1,1.12,37.87-13.04Zm-2.88-63.45c-11.82,23.02-26.95,38.83-33.8,35.31-6.85-3.51-2.83-25.03,8.99-48.05,11.82-23.02,26.95-38.83,33.8-35.32,6.85,3.52,2.83,25.03-8.99,48.05Z"/><path class="cls-17" d="m1006.88,3957.11c16.95-33.72,26.05-54.25,38.91-54.21,1.32,0,3.06.04,4.43,1.24,6.47,5.7-7.18,27.5-27.54,68.6-20.16,40.7-28.2,62.6-40.54,61.97-1.06-.05-3.52-.18-5.38-1.95-7.08-6.71,5.48-26.62,30.13-75.66Z"/><path class="cls-17" d="m940.33,4094.24c12.88-25.64,19.8-41.25,29.58-41.21,1,0,2.33.03,3.37.94,4.92,4.33-5.46,20.91-20.94,52.16-15.33,30.95-21.44,47.59-30.82,47.12-.8-.04-2.67-.14-4.09-1.48-5.38-5.1,4.17-20.24,22.9-57.52Z"/><path class="cls-17" d="m1086.69,3840.71c13.36-26.04,21.53-48.51,18.24-50.2-3.29-1.69-16.79,18.05-30.15,44.08-13.36,26.04-21.53,48.51-18.24,50.2,3.29,1.69,16.79-18.05,30.15-44.08Z"/><path class="cls-17" d="m908.42,4162.37c6.85,3.51,2.83,25.03-8.99,48.05-11.82,23.02-26.95,38.83-33.8,35.32-1.96-1.01-3.02-3.49-3.28-7.05,7.6-4.67,17.72-17.43,26.16-33.87,8.44-16.44,12.9-32.1,12.27-41,3.04-1.87,5.68-2.45,7.64-1.45Z"/><path class="cls-17" d="m982.92,4052.65c-16.24-7.94-32.1-15.12-47.53-21.61l-111.26,203.19c-7.18,13.12-2.79,29.37,9.55,37.2-2.78-1.38-5.56-2.77-8.34-4.15-14.27-7.1-19.79-24.65-12.12-38.65l111.26-203.19c15.43,6.49,31.29,13.67,47.53,21.61,6.87,3.37,13.61,6.76,20.2,10.19,0,0,0,.01,0,.02-3.06-1.54-6.15-3.08-9.27-4.61Z"/><path class="cls-17" d="m1318.61,3470c-7.43-3.69-14.88-7.39-22.31-11.08-20.69-10.28-41.39-20.58-62.09-30.84-4.94-2.45-9.87-4.9-14.82-7.35-3-1.5-6-2.97-9-4.47-11.64-5.78-24.02-8.2-36.03-7.66-10.19.45-20.1,3.03-29.12,7.5-15.01,7.45-27.5,20.13-34.35,36.9l-44.15,108.09-9.16,22.42c-7.66,18.76-6.75,39.08,1.07,56.51v.02c.81,1.83,1.73,3.64,2.7,5.42,6.84,12.4,17.35,22.95,30.85,29.88l85.84,44.06c7.03,3.61,14.4,5.99,21.83,7.2,5.06.84,10.16,1.11,15.2.89,3.07-.14,6.12-.49,9.12-1h.02c19.56-3.4,37.47-14.71,48.64-32.55,3.13-5,6.25-9.97,9.38-14.97,22.1-35.29,44.19-70.58,66.3-105.86,22.58-36.07,8.68-83.92-29.95-103.1Zm-161.35-25.9c6.68,2.66,9.96,10.24,7.29,16.95l-26.43,66.43-36.28,91.22c-.16.4-.33.77-.53,1.15-3.03,5.91-10.12,8.66-16.43,6.16-6.68-2.66-9.96-10.24-7.29-16.95l62.71-157.65c.68-1.73,1.7-3.23,2.96-4.45,3.57-3.53,9.03-4.82,14-2.85Zm58.72,30.1c4.45,3.67,6.06,9.96,3.56,15.45l-5.28,11.6-53.28,116.99-11.76,25.82c-.08.19-.17.37-.26.56-3.17,6.17-10.65,8.83-17.01,5.92-.56-.25-1.09-.54-1.59-.86-5.43-3.43-7.62-10.43-4.88-16.42l6.88-15.12,33.3-73.09.02-.03,30.13-66.17c2.99-6.56,10.72-9.46,17.28-6.47,1.07.49,2.05,1.11,2.92,1.83Zm57.96,29.42c6.25,3.58,8.42,11.57,4.83,17.82l-56.86,99.05v.02s-17.18,29.94-17.18,29.94v.02s-10.42,18.13-10.42,18.13c-3.59,6.25-11.56,8.4-17.81,4.81-6.08-3.47-8.3-11.11-5.13-17.28.09-.18.19-.36.3-.54l36.83-64.15v-.02s17.18-29.94,17.18-29.94v-.02s30.46-53.03,30.46-53.03c3.58-6.25,11.56-8.4,17.81-4.81Zm59.46,46.91l-47.7,74.44-43.83,68.41c-3.89,6.07-11.97,7.84-18.04,3.95-5.71-3.66-7.61-11.03-4.57-16.93.2-.38.4-.74.63-1.1l69.24-108.06v-.02s22.3-34.77,22.3-34.77c3.89-6.07,11.97-7.84,18.04-3.95,6.07,3.89,7.84,11.97,3.95,18.04Z"/><path class="cls-5" d="m1130.34,3649.66l2-31.54,5.79-90.65-36.28,91.22c-.16.4-.33.77-.53,1.15-3.03,5.91-10.12,8.66-16.43,6.16-6.68-2.66-9.96-10.24-7.29-16.95l62.71-157.65c.68-1.73,1.7-3.23,2.96-4.45l1.97-30.87c-15.01,7.45-27.5,20.13-34.35,36.9l-44.15,108.09-5.11,80.01-.28,4.34-.79,12.36,10.81,100.65c6.05.05,18.32.98,31.41,8.22,9.04,5,15.22,11.23,19.05,15.92l5.7-89.14,1.74-27.48"/><path class="cls-17" d="m1213.07,3472.37c1.07.49,2.05,1.11,2.92,1.83l3.41-53.47c-3-1.5-6-2.97-9-4.47-11.64-5.78-24.02-8.2-36.03-7.66l-8.7,136.41,30.13-66.17c2.99-6.56,10.72-9.46,17.28-6.47Z"/><path class="cls-17" d="m1198.93,3741.39l.96-14.81,2.15-33.87,2.7-42.25-10.41,18.13c-3.59,6.25-11.56,8.4-17.81,4.81-6.08-3.47-8.3-11.11-5.13-17.28.09-.18.19-.36.3-.54l36.83-64.15v-.02s5.76-90.16,5.76-90.16l-53.28,116.99-3.71,58.01-2.01,31.43-3.94,61.77c15.88-9.35,31.73-18.71,47.6-28.06Z"/><path class="cls-17" d="m1282.26,3678.95l3.45-54-43.83,68.41c-3.89,6.07-11.97,7.84-18.04,3.95-5.71-3.66-7.61-11.03-4.57-16.93.2-.38.4-.74.63-1.1l69.24-108.06v-.02s7.17-112.28,7.17-112.28c-20.69-10.28-41.39-20.58-62.09-30.84l-8.52,133.38,30.45-53.03c3.58-6.25,11.56-8.4,17.81-4.81,6.25,3.58,8.42,11.57,4.83,17.82l-56.86,99.05v.02s-4.97,77.7-4.97,77.7h.02s-1.88,29.27-1.88,29.27l-.29,4.57c3.15-1.84,6.29-3.71,9.42-5.56h.02c19.56-3.4,37.47-14.71,48.64-32.55,3.13-5,6.25-9.97,9.38-14.97Z"/></g><g id="microwave" class="cls-21"><path class="cls-12" d="m1054.88,2902.94l-26.42,292.47c.87.07,1.75.15,2.65.22,16.8,1.33,37.44,1.47,60.74-1.67,17.71-2.38,33.29-6.18,46.39-10.23,0-.01.01-.02.01-.02l98.29-21.91c21.63-4.82,37.78-22.88,40.15-44.91l20.74-192.89c-.04-16.05-4.47-38.98-25.85-55.22l-8.41,1.88-112.69,25.1c-1.89-1.11-3.81-2.06-5.8-2.8-18.39-6.86-52.19-1.43-53.96-1.03-19.44,4.5-35.86,11.01-35.86,11.01Z"/><path class="cls-7" d="m1031.11,3195.64c16.8,1.33,37.44,1.47,60.74-1.67,17.71-2.38,33.29-6.18,46.39-10.23,0-.01.01-.02.01-.02l98.29-21.91c21.63-4.82,37.78-22.88,40.15-44.91l20.74-192.89c-.04-16.05-4.47-38.98-25.85-55.22l-8.41,1.88c.6,48.59-8.5,211.11-57.4,252.13-56.8,47.64-152.92,18.7-152.92,18.7l-21.75,54.15Z"/><path class="cls-12" d="m603.7,2886c.07.13.14.23.2.32,7.49,10.48,70.21-23.8,70.21-23.8.15-.16.29-.31.44-.47l303.06,32.59s8.76.94,35,3.76l5.92.64c65.46,7.04,102.92,2.62,117.99-.16l7.72-1.71c.08-.02.11-.03.11-.03l6.14-1.37,65.42-14.58,55.67-12.4c7.2,5.48,12.48,11.7,16.32,18.17-.71-1.43-12.66-24.79-42.65-31.34-.42-.13-.85-.27-1.28-.4-.59-.18-1.2-.29-1.81-.36l-400.41-43.05c-26.02-2.8-52.34-1.32-77.9,4.37l-82.9,18.48s-.01,0-.02,0l-26.23,5.84c-.41.09-.81.21-1.21.35-.1.04-.18.07-.28.1-.89.33-1.69.74-2.4,1.22-.23.08-.44.14-.66.22-1.16.39-2.3.81-3.41,1.23-2.7,1.02-5.28,2.12-7.71,3.25,0,0-24.61,11.61-34.39,31.45-.67,1.36-2.41,4.98-.96,7.69Z"/><path class="cls-12" d="m590.37,2905.46l-14.89,138.48c-6.05,56.27,33.27,106.65,87.83,112.52l369.48,39.73c24.1,2.59,45.81-15.46,48.49-40.32l23.39-217.52c2.67-24.86-14.7-47.12-38.8-49.71l-418.46-44.99c-15.99-1.72-31.73,5.68-40.88,19.38-6.86,10.27-12.39,22.88-15.54,38.35-.28,1.35-.47,2.73-.62,4.1Z"/><path class="cls-12" d="m589.43,2914.25l-14.34,133.42c-5.83,54.22,32.79,102.83,86.26,108.58l362.11,38.93c23.62,2.54,44.86-14.82,47.44-38.77l22.53-209.58c2.58-23.95-14.49-45.43-38.11-47.97l-410.11-44.09c-15.67-1.69-31.08,5.41-40.02,18.61-6.7,9.89-12.1,22.02-15.16,36.92-.27,1.3-.46,2.63-.6,3.95Z"/><path class="cls-12" d="m662.39,2927.77l-16.73,155.62c-2.54,23.61,14.55,44.82,38.16,47.36l304.8,32.77c22.48,2.42,42.77-12.95,46.86-34.8.21-1.1.37-2.23.5-3.37l16.73-155.62c2.54-23.61-14.55-44.82-38.16-47.36l-304.8-32.77c-16.47-1.77-31.77,6-40.38,18.88-3.74,5.59-6.21,12.14-6.98,19.28Z"/><path class="cls-12" d="m614.17,3030.24c-7.9-.85-14.99,4.87-15.84,12.77-.85,7.9,4.87,14.99,12.77,15.84,7.9.85,14.99-4.87,15.84-12.77.85-7.9-4.87-14.99-12.77-15.84Z"/><path class="cls-12" d="m621.17,2965.1c-10.72-1.15-20.35,6.6-21.5,17.33-1.15,10.72,6.6,20.35,17.33,21.5,10.72,1.15,20.35-6.6,21.5-17.33,1.15-10.72-6.6-20.35-17.33-21.5Z"/><rect class="cls-12" x="593.03" y="2910.07" width="64.13" height="37" rx="5.9" ry="5.9" transform="translate(933.54 5907.18) rotate(-173.86)"/><rect class="cls-12" x="616" y="2960.36" width="6.17" height="48.3" transform="translate(915.54 6018.11) rotate(-173.86)"/><rect class="cls-12" x="598.38" y="2913.15" width="53.44" height="30.83" rx="4.92" ry="4.92" transform="translate(933.52 5907.18) rotate(-173.86)"/><path class="cls-12" d="m935.23,2913.85l49.45,249.25,3.94.42c22.48,2.42,42.77-12.95,46.86-34.8l-41.37-208.54-58.89-6.33Z"/><polygon class="cls-12" points="766.23 2895.68 815.67 3144.93 854.97 3149.15 805.52 2899.91 766.23 2895.68"/><polygon class="cls-12" points="837.17 2903.31 886.62 3152.56 960.73 3160.53 911.28 2911.28 837.17 2903.31"/><path class="cls-12" d="m669.37,2908.49l44.75,225.52,74.12,7.97-49.45-249.25-29.04-3.12c-16.47-1.77-31.77,6-40.38,18.88Z"/><path class="cls-12" d="m1054.33,2983.55s-119.9,50.49-13.91,129.4l13.91-129.4Z"/><path class="cls-12" d="m1264.69,2882.67c3.65,3.46,3.77,9.44,2.73,13.28-3.43,12.6-23.42,16.67-48.88,21.53-22.38,4.27-49.58,9.47-57.15-2.09-.49-.75-2.62-4-1.69-7.49,2.39-8.94,21.66-7.04,49.66-13.33,32.69-7.34,47.64-19.19,55.33-11.91Z"/><path class="cls-12" d="m1116.65,2919.85c1.01,6.16,10.23,9.78,20.59,8.07,10.36-1.7,17.94-8.08,16.93-14.24-1.01-6.16-10.23-9.78-20.59-8.07-10.36,1.7-17.94,8.08-16.93,14.24Z"/><path class="cls-12" d="m1035.13,3008.32c-7.12-2.64-24.36,14.42-27.46,34.26-2.21,14.14,2.87,29.07,11.44,35.42,2.22,1.65,3.35,1.73,4.07,1.43,4.36-1.78-4.3-17.86,1.63-32.94,4.53-11.51,13.54-12.18,14.9-23.2.68-5.51-.56-13.47-4.59-14.96Z"/><path class="cls-13" d="m646.76,2843.61c64.99-3.85,171.22-5.7,256.76,14.12,93.6,21.69,212.48,3.18,274.81-9.73l-336.57-36.19c-26.02-2.8-52.34-1.32-77.9,4.37l-82.9,18.48s-.01,0-.02,0l-26.23,5.84c-.41.09-.81.21-1.21.35-.1.04-.18.07-.28.1-.89.33-1.69.74-2.4,1.22-.23.08-.44.14-.66.22-1.16.39-2.3.81-3.41,1.23Z"/><path class="cls-12" d="m1017.98,2908.29c.45-2.99-26.11-8.1-39.45-10.67-26.78-5.15-34.26-3.17-38.03.19-1.14,1.02-2.32,2.07-2.09,3.34,1.75,9.49,78.8,12.17,79.56,7.13Z"/><path class="cls-12" d="m922.95,2898.07c.39-3-12.74-6.66-19.33-8.5-13.23-3.69-17.11-1.32-19.19,2.22-.63,1.08-1.28,2.19-1.23,3.44.38,9.35,39.1,7.9,39.75,2.85Z"/><path class="cls-12" d="m638.5,2986.6c1.1-10.19-5.86-19.37-15.75-21.25,1.17-.09,2.36-.09,3.56.04,10.72,1.15,18.48,10.78,17.33,21.5-1.15,10.72-10.78,18.48-21.5,17.33-.53-.06-1.06-.15-1.57-.25,9.21-.69,16.92-7.85,17.94-17.37Z"/><path class="cls-12" d="m626.93,3046.08c.79-7.38-4.15-14.06-11.24-15.59.51,0,1.02.02,1.54.08,7.9.85,13.62,7.94,12.77,15.84-.85,7.9-7.94,13.62-15.84,12.77-.52-.06-1.03-.14-1.52-.25,7.26,0,13.51-5.46,14.3-12.85Z"/></g><g id="refrigerator" class="cls-21"><path class="cls-19" d="m-5.15,3400.64l114.84,860.73c3.13,23.43,14.8,43.6,31.47,57.79.01.01.03.03.04.04.04.03.07.07.11.1s.09.08.13.11c52.91,47.01,164.81,34,164.81,34l16.42-19.15,8.47-9.86,140.28-18.72c50.06-6.68,85.22-52.82,78.52-103.05l-114.84-860.73c-.32-2.39-.74-4.76-1.25-7.07-.23-1.05-.48-2.09-.74-3.12-3.28-12.73-9.36-24.16-17.45-33.73,35.9-.9,68.63-5.1,82.62-14.34,0,0-45.87-22.71-144.7-15.8-1.65-.06-3.28-.08-4.94-.04-.05,0-.1-.01-.14,0-.11,0-.24,0-.36.01-.13,0-.26,0-.4.02h-.04c-2.73.1-5.47.33-8.24.7l-271.54,36.23c-.45.06-.88.12-1.33.19-20.32,3.04-37.93,13.08-50.69,27.32-1.93,2.15-3.75,4.41-5.46,6.75-12.46,17.12-18.61,38.92-15.58,61.62Z"/><g class="cls-22"><path class="cls-19" d="m483.76,3289.87c-2.61.77-5.4,1.49-8.37,2.14-.48-.6-.95-1.22-1.45-1.81,3.3-.08,6.58-.19,9.82-.33Z"/></g><path class="cls-19" d="m42.82,3312.38c-.44,3.63,36.68,11.39,90.78,20.74,7.4-6.11,16.56-10.3,26.79-11.67l334.76-44.66c4.18-.56,8.3-.62,12.32-.22,2.85.29,5.66.8,8.38,1.52-18.88-6.39-65.71-18.17-143.64-12.67-1.75-.06-3.48-.08-5.24-.03-.05,0-.1-.01-.15,0-.11,0-.25,0-.38.01-.14,0-.29.01-.43.02h-.04c-2.89.11-5.81.35-8.74.74l-287.8,38.4c-.47.06-.93.12-1.4.2-10.32,1.67-24.95,5.4-25.22,7.62Z"/><path class="cls-19" d="m208.74,3620.14l-.28.35s66.16-11.16.28-.35Z"/><path class="cls-19" d="m157.77,3704.11l80.45,602.98c4.01,30.06,31.63,51.18,61.69,47.17l351.43-46.89c18.99-2.53,32.33-19.99,29.8-38.98l-85.8-643.06c-2.53-18.99-19.99-32.33-38.98-29.8l-351.43,46.89c-30.06,4.01-51.18,31.63-47.17,61.69Z"/><path class="cls-19" d="m114.69,3381.23l28.78,215.71c3.89,29.13,30.65,49.59,59.78,45.71l354.8-47.34c18.06-2.41,30.75-19.01,28.34-37.07l-31.45-235.75c-3.33-24.96-23.46-43.55-47.46-45.92-4.02-.4-8.14-.34-12.32.22l-334.76,44.66c-29.13,3.89-49.59,30.65-45.71,59.78Z"/><path class="cls-19" d="m253.22,3844.52c20.23,46.06,27.47,161.4,34.4,218.93,9.29,77.04,30.57,154.46,11.07,174.53-1.69,1.74-6.65,6.85-12.09,5.58-11.64-2.7-16.04-32.29-17.58-41.92-8.42-52.43-61.06-316.18-42.49-367.65,1.04-2.89,4.02-11.14,9.07-11.65,7.56-.76,15.06,16.33,17.62,22.17Z"/><path class="cls-19" d="m211.53,3757.03c2.42,18.15,11.05,31.97,19.27,30.88,8.22-1.1,12.92-16.7,10.5-34.85-2.42-18.15-11.05-31.97-19.27-30.88-8.22,1.1-12.92,16.7-10.5,34.85Z"/><path class="cls-19" d="m180.33,3440.6c14.97,15.41,14.21,56.74,16.76,77.14,3.42,27.32,17.37,54.03-1.03,62.53-1.6.74-6.28,2.9-10.99,2.78-10.08-.25-12.12-10.69-12.89-14.08-4.17-18.46-34.23-110.69-14.7-130.51,1.1-1.11,4.23-4.29,8.7-4.79,6.7-.75,12.25,4.97,14.15,6.92Z"/><path class="cls-19" d="m145.96,3384.19c1.84,13.82,9.25,24.24,16.55,23.26,7.3-.97,11.72-12.97,9.87-26.79-1.84-13.82-9.25-24.24-16.55-23.26-7.3.97-11.72,12.97-9.87,26.79Z"/><path class="cls-19" d="m136.84,3324.6l23.56-3.14c-29.13,3.89-49.59,30.65-45.71,59.78l28.78,215.71c3.89,29.13,30.65,49.59,59.78,45.71l-23.56,3.14c-29.13,3.89-55.89-16.58-59.78-45.71l-28.78-215.71c-3.89-29.13,16.57-55.89,45.71-59.78Z"/><path class="cls-19" d="m181.38,3645.57l23.56-3.14c-30.06,4.01-51.18,31.63-47.17,61.69l80.45,602.98c4.01,30.06,31.63,51.18,61.69,47.17l-23.56,3.14c-30.06,4.01-57.68-17.11-61.69-47.17l-80.45-602.98c-4.01-30.06,17.11-57.68,47.17-61.69Z"/><path class="cls-1" d="m201.43,3629.01l354.8-47.34c18.06-2.41,30.75-19.01,28.34-37.07l1.82,13.64c2.41,18.06-10.28,34.66-28.34,37.07l-354.8,47.34c-29.13,3.89-55.89-16.58-59.78-45.71l-1.82-13.64c3.89,29.13,30.65,49.59,59.78,45.71Z"/><path class="cls-19" d="m517.37,3535.49c-2.93-4.69-1.51-10.86,3.17-13.79l20.32-12.72c-6.64-61.4-14.89-128.27-18.08-139.63-3.16-2.79-14.18-8.2-24.7-12.07h0c-5.19-1.91-7.85-7.66-5.94-12.84,1.91-5.19,7.65-7.85,12.85-5.95,10.55,3.87,29.09,11.62,34.76,19.98,2.02,2.98,4.31,6.35,13.43,82.06,4.37,36.29,8.22,72.2,8.26,72.56.41,3.81-1.39,7.52-4.64,9.55l-25.63,16.04c-1.25.78-2.61,1.25-3.98,1.44-3.77.5-7.66-1.18-9.81-4.61Zm5.12-167.05h0Z"/><path class="cls-19" d="m539.15,3374.42c3.35,1.32,3.67,7.63,3.8,9.59,1.78,25.38,7.88,50.3,10.09,75.65.15,1.77.59,6.47-1.73,7.81,0,0-.91.53-2.24.29-5.56-.98-9.22-30.87-9.76-35.3-4.3-35.01-7.76-56.38-2.75-58.1.4-.14,1.49-.37,2.58.06Z"/><path class="cls-19" d="m520.54,3521.7l20.32-12.72c-6.64-61.4-14.89-128.27-18.08-139.63-3.16-2.79-14.18-8.2-24.7-12.07-5.19-1.91-7.85-7.66-5.94-12.84,1.56-4.24,5.68-6.79,9.97-6.54-2.79.93-5.16,3.07-6.25,6.05-1.9,5.19.76,10.94,5.94,12.84,10.52,3.87,21.54,9.28,24.7,12.07,3.2,11.36,11.45,78.23,18.08,139.63l-20.32,12.72c-4.69,2.93-6.11,9.11-3.17,13.79,1.8,2.87,4.82,4.5,7.96,4.66-.61.21-1.24.36-1.87.44-3.77.5-7.66-1.18-9.81-4.61-2.93-4.69-1.51-10.86,3.17-13.79Z"/><path class="cls-19" d="m556.08,3825.68c-2.93-4.69-1.51-10.86,3.17-13.79l20.32-12.72c-6.64-61.4-14.89-128.27-18.08-139.63-3.16-2.79-14.18-8.2-24.7-12.07h0c-5.19-1.91-7.85-7.66-5.94-12.84,1.91-5.19,7.65-7.85,12.85-5.95,10.55,3.87,29.09,11.62,34.76,19.98,2.02,2.98,4.31,6.35,13.43,82.06,4.37,36.29,8.22,72.2,8.26,72.56.41,3.81-1.39,7.52-4.64,9.55l-25.63,16.04c-1.25.78-2.61,1.25-3.98,1.44-3.77.5-7.66-1.18-9.81-4.61Zm5.12-167.05h0Z"/><path class="cls-19" d="m577.87,3664.61c3.35,1.32,3.67,7.63,3.8,9.59,1.78,25.38,7.88,50.3,10.09,75.65.15,1.77.59,6.47-1.73,7.81,0,0-.91.53-2.24.29-5.56-.98-9.22-30.87-9.76-35.3-4.3-35.01-7.76-56.38-2.75-58.1.4-.14,1.49-.37,2.58.06Z"/><path class="cls-19" d="m559.26,3811.89l20.32-12.72c-6.64-61.4-14.89-128.27-18.08-139.63-3.16-2.79-14.18-8.2-24.7-12.07-5.19-1.91-7.85-7.66-5.94-12.84,1.56-4.24,5.68-6.79,9.97-6.54-2.79.93-5.16,3.07-6.25,6.05-1.9,5.19.76,10.94,5.94,12.84,10.52,3.87,21.54,9.28,24.7,12.07,3.2,11.36,11.45,78.23,18.08,139.63l-20.32,12.72c-4.69,2.93-6.11,9.11-3.17,13.79,1.8,2.87,4.82,4.5,7.96,4.66-.61.21-1.24.36-1.87.44-3.77.5-7.66-1.18-9.81-4.61-2.93-4.69-1.51-10.86,3.17-13.79Z"/></g><g id="refrigerator-2" class="cls-21"><path class="cls-19" d="m1412.85,3400.64l114.84,860.73c3.13,23.43,14.8,43.6,31.47,57.79.01.01.03.03.04.04.04.03.07.07.11.1s.09.08.13.11c52.91,47.01,164.81,34,164.81,34l16.42-19.15,8.47-9.86,140.28-18.72c50.06-6.68,85.22-52.82,78.52-103.05l-114.84-860.73c-.32-2.39-.74-4.76-1.25-7.07-.23-1.05-.48-2.09-.74-3.12-3.28-12.73-9.36-24.16-17.45-33.73,35.9-.9,68.63-5.1,82.62-14.34,0,0-45.87-22.71-144.7-15.8-1.65-.06-3.28-.08-4.94-.04-.05,0-.1-.01-.14,0-.11,0-.24,0-.36.01-.13,0-.26,0-.4.02h-.04c-2.73.1-5.47.33-8.24.7l-271.54,36.23c-.45.06-.88.12-1.33.19-20.32,3.04-37.93,13.08-50.69,27.32-1.93,2.15-3.75,4.41-5.46,6.75-12.46,17.12-18.61,38.92-15.58,61.62Z"/></g><g id="hodgepodge" class="cls-21"><path class="cls-15" d="m521.16,2336.55v304.14h218.92v-304.14c0-25.37-20.57-45.93-45.93-45.93h-127.06c-25.36,0-45.92,20.56-45.92,45.93Z"/><ellipse class="cls-15" cx="630.62" cy="2640.69" rx="108.72" ry="20.71"/><path class="cls-15" d="m533.61,2287.69c.03,4.03.46,7.58.99,10.49,0,2.45,1.74,4.79,4.93,6.98.88.61,1.86,1.2,2.96,1.77,6.12,3.24,15.54,6.08,27.29,8.29.97.18,1.95.36,2.96.53,8.17,1.42,17.37,2.54,27.28,3.31.98.07,1.96.14,2.96.21,8.65.6,17.8.92,27.29.93h.31c.89,0,1.77,0,2.65,0,9.51-.06,18.67-.43,27.29-1.08,1-.07,1.98-.15,2.96-.24,9.97-.83,19.17-2.03,27.28-3.54,1.01-.18,1.99-.38,2.96-.57,12.24-2.45,21.72-5.6,27.29-9.18,1.16-.75,2.15-1.52,2.96-2.31,1.69-1.63,2.58-3.33,2.58-5.09h.37c.88-2.37,2.06-6.41,1.97-11.54-.08-4.59-1.13-8.22-1.97-10.49h-14.2c-1.32.41-3.09.66-5.03.66s-3.71-.25-5.03-.66h-37.28c-.56.18-1.2.33-1.9.43-.9.14-1.9.22-2.96.23h-.17c-1.94,0-3.71-.25-5.03-.66h-23.47c-.47.15-1.01.28-1.58.37-1.03.19-2.21.29-3.45.29-1.94,0-3.71-.25-5.03-.66h-21.5c-.09.03-.18.05-.27.08-1.28.37-2.95.58-4.76.58-1.94,0-3.71-.25-5.03-.66h-32.34c-1.32.41-3.09.66-5.03.66s-3.71-.25-5.03-.66h-13.21c-.57,3.15-1.03,7.05-.99,11.54Zm143.97-4.47c0-1.36,3.31-2.47,7.4-2.47,2.32,0,4.4.36,5.75.92,1.03.41,1.65.96,1.65,1.55s-.62,1.13-1.65,1.55c-1.35.56-3.43.92-5.75.92-4.08,0-7.4-1.1-7.4-2.47Zm-36.49,3.94c0-1.36,3.31-2.47,7.4-2.47s7.4,1.1,7.4,2.47-3.31,2.47-7.4,2.47-7.4-1.1-7.4-2.47Zm-36.49.99c0-1.36,3.31-2.47,7.4-2.47s7.4,1.1,7.4,2.47-3.31,2.47-7.4,2.47-7.4-1.1-7.4-2.47Zm-37.47-4.93c0-.76,1.03-1.43,2.63-1.88.85-.24,1.85-.41,2.96-.5.57-.05,1.18-.08,1.8-.08,4.08,0,7.4,1.1,7.4,2.47s-3.31,2.47-7.4,2.47c-.62,0-1.23-.03-1.8-.08-1.1-.09-2.11-.27-2.96-.5-1.61-.45-2.63-1.12-2.63-1.88Z"/><path class="cls-15" d="m720.97,2276.15v29.43c1.16-.75,2.15-1.52,2.96-2.31v-27.12h-2.96Z"/><path class="cls-15" d="m692.37,2283.22c0,.59-.62,1.13-1.65,1.55v30.56c1.01-.18,1.99-.38,2.96-.57v-38.61h-2.96v5.52c1.03.41,1.65.96,1.65,1.55Z"/><path class="cls-15" d="m660.49,2276.81v42.29c1-.07,1.98-.15,2.96-.24v-42.28c-.9.14-1.9.22-2.96.23Z"/><path class="cls-15" d="m630.25,2276.53v43.68h.31c.89,0,1.77,0,2.65,0v-44.04h-1.38c-.47.15-1.01.28-1.58.37Z"/><path class="cls-15" d="m600,2276.23v42.84c.98.07,1.96.14,2.96.21v-43.12h-2.69c-.09.03-.18.05-.27.08Z"/><path class="cls-15" d="m569.77,2276.15v5.19c.85-.24,1.85-.41,2.96-.5v-4.68h-2.96Z"/><path class="cls-15" d="m572.73,2285.61c-1.1-.09-2.11-.27-2.96-.5v30.12c.97.18,1.95.36,2.96.53v-30.15Z"/><path class="cls-15" d="m539.53,2276.15v29.01c.88.61,1.86,1.2,2.96,1.77v-30.78h-2.96Z"/><path class="cls-15" d="m534.6,2276.15c0,2.45,1.74,4.79,4.93,6.98.88.61,1.86,1.2,2.96,1.77,6.12,3.25,15.54,6.09,27.29,8.3.97.18,1.95.36,2.96.53,8.17,1.42,17.37,2.54,27.28,3.31.98.07,1.96.14,2.96.21,8.65.6,17.8.92,27.29.93h.31c.89,0,1.77,0,2.65,0,9.51-.06,18.67-.43,27.29-1.08,1-.07,1.98-.15,2.96-.24,9.97-.83,19.17-2.03,27.28-3.54,1.01-.18,1.99-.38,2.96-.57,12.24-2.45,21.72-5.6,27.29-9.19,1.16-.75,2.15-1.52,2.96-2.3,1.69-1.64,2.58-3.34,2.58-5.1,0-12.16-42.96-22.02-95.96-22.02s-95.96,9.86-95.96,22.02Zm165.67-1.8c0-1.36,3.31-2.47,7.4-2.47s7.4,1.1,7.4,2.47c0,.71-.91,1.35-2.37,1.8-1.32.41-3.09.66-5.03.66s-3.71-.25-5.03-.66c-1.46-.45-2.37-1.09-2.37-1.8Zm-22.68,8.88c0-1.36,3.31-2.47,7.4-2.47,2.32,0,4.4.36,5.75.92,1.03.41,1.65.96,1.65,1.55s-.62,1.13-1.65,1.55c-1.35.56-3.43.92-5.75.92-4.08,0-7.4-1.1-7.4-2.47Zm-1.97-16.76c0-1.36,3.31-2.47,7.4-2.47s7.4,1.1,7.4,2.47-3.31,2.47-7.4,2.47-7.4-1.1-7.4-2.47Zm-15.28,10.35c-1.94,0-3.71-.25-5.03-.66-1.46-.45-2.37-1.09-2.37-1.8,0-1.36,3.31-2.47,7.4-2.47s7.4,1.1,7.4,2.47c0,.71-.91,1.35-2.37,1.8-.56.18-1.2.33-1.9.43-.24.03-.48.07-.74.09-.21.03-.41.05-.63.07-.51.04-1.04.07-1.59.07h-.17Zm-19.23,10.35c0-1.36,3.31-2.47,7.4-2.47s7.4,1.1,7.4,2.47-3.31,2.47-7.4,2.47-7.4-1.1-7.4-2.47Zm-2.96-25.64c0-1.36,3.31-2.47,7.4-2.47s7.4,1.1,7.4,2.47-3.31,2.47-7.4,2.47-7.4-1.1-7.4-2.47Zm-18.74,12.82c0-1.36,3.31-2.47,7.4-2.47s7.4,1.1,7.4,2.47c0,.71-.91,1.35-2.37,1.8-.47.15-1.01.28-1.58.37-1.03.19-2.21.29-3.45.29-1.94,0-3.71-.25-5.03-.66-1.46-.45-2.37-1.09-2.37-1.8Zm-14.79,13.81c0-1.36,3.31-2.47,7.4-2.47s7.4,1.1,7.4,2.47-3.31,2.47-7.4,2.47-7.4-1.1-7.4-2.47Zm-.99-26.63c0-1.36,3.31-2.47,7.4-2.47s7.4,1.1,7.4,2.47-3.31,2.47-7.4,2.47-7.4-1.1-7.4-2.47Zm-15.78,12.82c0-1.36,3.31-2.47,7.4-2.47s7.4,1.1,7.4,2.47c0,.71-.91,1.35-2.37,1.8-.09.03-.18.05-.27.08-1.28.37-2.95.58-4.76.58-1.94,0-3.71-.25-5.03-.66-1.46-.45-2.37-1.09-2.37-1.8Zm-11.34-5.42c-4.08,0-7.4-1.1-7.4-2.47s3.31-2.47,7.4-2.47,7.4,1.1,7.4,2.47-3.31,2.47-7.4,2.47Zm-9.37,14.3c0-.76,1.03-1.43,2.63-1.88.27-.08.56-.15.87-.21.16-.04.34-.07.51-.1.29-.05.6-.1.92-.13.22-.03.43-.06.66-.07.57-.05,1.18-.08,1.8-.08,4.08,0,7.4,1.1,7.4,2.47s-3.31,2.47-7.4,2.47c-.62,0-1.23-.03-1.8-.08-.23,0-.44-.04-.66-.07-.32-.03-.63-.08-.92-.13-.18-.03-.36-.06-.51-.1-.31-.06-.6-.13-.87-.21-1.61-.45-2.63-1.12-2.63-1.88Zm-21.69-8.88c0-1.36,3.31-2.47,7.4-2.47s7.4,1.1,7.4,2.47c0,.71-.91,1.35-2.37,1.8-1.32.41-3.09.66-5.03.66s-3.71-.25-5.03-.66c-1.46-.45-2.37-1.09-2.37-1.8Z"/><path class="cls-15" d="m549.76,2416.26v162.89c0,6.34,2.36,12.14,6.24,16.55,4.6,5.22,11.32,8.51,18.82,8.51h111.23c13.84,0,25.06-11.22,25.06-25.06v-162.89c0-13.84-11.22-25.06-25.06-25.06h-111.23c-13.84,0-25.06,11.22-25.06,25.06Z"/><path class="cls-15" d="m674.62,2343.87c-25.62,2.93-44.47-2.5-48.32,5.92-.88,1.93-1.24,5.17,0,7.89,2.04,4.49,7.72,6.05,11.83,6.9,30.81,6.37,66.07-2.96,66.07-2.96,22.05-5.83,26.54-10.32,27.61-14.79.82-3.44-.12-7.96-2.96-10.85-8.03-8.19-23.69,4.39-54.24,7.89Z"/><path class="cls-15" d="m575.65,2350.05c-.7-2.52.41-5.3,1.84-6.94,3.51-4.01,10.39-2.81,18.71-1.35,7.97,1.4,14.02,2.55,16.91,7.57.59,1.02,2.4,4.15,1.24,6.57-3.71,7.71-35.85,4.41-38.7-5.85Z"/><path class="cls-15" d="m655.89,2391.2s43.39.99,44.38,26.63c.55,14.24,4.44,52.21,8.14,89.06,0,0,0,.05,0,.13,0,.02,0,.03,0,.05.94,9.3,1.85,18.53,2.7,27.29v-118.09c0-13.84-11.22-25.06-25.06-25.06h-30.17Z"/><path class="cls-15" d="m556,2595.7c4.6,5.22,11.32,8.51,18.82,8.51h111.23c13.84,0,25.06-11.22,25.06-25.06v-74.08l-2.71,1.81s0,.05,0,.13c0,.02,0,.03,0,.05.09,3.4,1.4,56.17-8.15,69.53-9.86,13.81-9.86,16.76-52.26,19.72-34.36,2.4-66.77,6.74-92-.62Z"/><path class="cls-15" d="m549.76,2416.26v56.15c1.71-16.06,3.91-33.44,6.53-47.68,5.1-27.69,40.46-32.77,58.57-33.53h-40.04c-13.84,0-25.06,11.22-25.06,25.06Z"/><path class="cls-15" d="m576.63,2572.43c4.65-6.64,3.59-19.9,3.22-25.55-3.35-51.47,10.54-86.76-1.13-99.68-1.13-1.26-2.21-2.41-3.57-2.08-12.66,2.97-19.18,124.54-5.91,131.03,2.28,1.11,5.49-.99,7.4-3.72Z"/><path class="cls-15" d="m591.26,2556.87c-8.07-1.77-8.91-79.49,0-82.83.18-.07.76-.29,1.41,0,3.55,1.56,2.45,15.2,2.81,32.54.6,28.13,4.52,41.03-1.41,48.32-.92,1.13-1.79,2.2-2.81,1.97Z"/><path class="cls-15" d="m679.52,2453.37c8.04,2.58,7.4,110.63-1.57,115.16-.18.09-.76.39-1.41-.02-3.52-2.22-2.16-21.16-2.2-45.28-.06-39.12-3.74-57.1,2.32-67.16.94-1.56,1.83-3.03,2.85-2.7Z"/><path class="cls-15" d="m748.66,2271.72l104.17,285.74,205.68-74.98-104.17-285.74c-8.69-23.84-35.06-36.11-58.89-27.42l-119.38,43.52c-23.83,8.69-36.1,35.05-27.41,58.88Z"/><path class="cls-15" d="m853.51,2557.22c3.92,10.75,52.82,2.78,109.24-17.78,56.41-20.56,98.97-45.95,95.05-56.69-3.92-10.75-52.82-2.78-109.24,17.78-56.41,20.57-98.97,45.95-95.05,56.69Z"/><path class="cls-15" d="m743.61,2221.55c1.41,3.78,3.03,6.97,4.52,9.52.84,2.3,3.27,3.91,7.02,4.87,1.03.27,2.16.49,3.38.65,6.86.95,16.68.39,28.48-1.55.97-.16,1.96-.33,2.96-.51,8.17-1.47,17.19-3.56,26.76-6.23.94-.27,1.89-.54,2.85-.82,8.33-2.4,17.04-5.23,25.95-8.47l.29-.1c.83-.3,1.67-.61,2.49-.92,8.91-3.31,17.39-6.8,25.26-10.36.91-.41,1.81-.82,2.7-1.24,9.08-4.19,17.31-8.47,24.41-12.67.88-.51,1.74-1.03,2.58-1.55,10.66-6.49,18.49-12.7,22.49-17.97.84-1.1,1.5-2.16,1.99-3.18,1.03-2.11,1.29-4.02.68-5.67l.35-.13c.01-2.52-.26-6.73-2.1-11.52-1.64-4.28-3.88-7.34-5.45-9.18l-13.34,4.86c-1.1.84-2.67,1.68-4.5,2.34-1.83.67-3.57,1.04-4.95,1.1l-35.02,12.77c-.47.36-1.02.72-1.64,1.06-.8.44-1.71.86-2.7,1.23l-.16.06c-1.82.67-3.57,1.04-4.95,1.1l-22.05,8.04c-.39.3-.85.6-1.35.89-.9.53-1.98,1.03-3.14,1.45-1.83.67-3.57,1.04-4.95,1.1l-20.2,7.36c-.07.06-.15.11-.22.17-1.08.78-2.57,1.56-4.28,2.18-1.83.67-3.57,1.04-4.95,1.1l-30.39,11.08c-1.1.84-2.67,1.68-4.5,2.34-1.83.67-3.57,1.04-4.95,1.1l-12.41,4.53c.54,3.15,1.45,6.98,3.03,11.18Zm133.74-53.51c-.47-1.28,2.27-3.45,6.1-4.85,2.18-.79,4.25-1.17,5.72-1.11,1.11.04,1.87.33,2.08.89.2.56-.2,1.28-1.02,2.02-1.08.99-2.91,2.04-5.09,2.83-3.84,1.4-7.33,1.5-7.79.22Zm-32.93,16.2c-.47-1.28,2.27-3.45,6.1-4.85,3.84-1.4,7.33-1.5,7.79-.22.47,1.28-2.27,3.45-6.1,4.85s-7.33,1.5-7.79.22Zm-33.94,13.42c-.47-1.28,2.27-3.45,6.1-4.85,3.84-1.4,7.33-1.5,7.79-.22.47,1.28-2.27,3.45-6.1,4.85s-7.33,1.5-7.79.22Zm-36.9,8.2c-.26-.71.47-1.69,1.83-2.67.72-.51,1.6-1.02,2.61-1.49.52-.24,1.08-.48,1.67-.69,3.84-1.4,7.33-1.5,7.79-.22.47,1.28-2.27,3.45-6.1,4.85-.58.21-1.17.39-1.72.54-1.07.29-2.07.47-2.95.54-1.67.12-2.86-.15-3.12-.87Z"/><path class="cls-15" d="m915.69,2146.54l10.08,27.65c.84-1.1,1.5-2.16,1.99-3.18l-9.29-25.48-2.78,1.01Z"/><path class="cls-15" d="m891.24,2162.98c.2.56-.2,1.28-1.02,2.02l10.47,28.71c.88-.51,1.74-1.03,2.58-1.55l-13.22-36.27-2.78,1.01,1.89,5.19c1.11.04,1.87.33,2.08.89Z"/><path class="cls-15" d="m859.1,2167.88l14.49,39.74c.91-.41,1.81-.82,2.7-1.24l-14.48-39.73c-.8.44-1.71.86-2.7,1.23Z"/><path class="cls-15" d="m830.58,2177.97l14.96,41.03.29-.1c.83-.3,1.67-.61,2.49-.92l-15.08-41.38-1.3.47c-.39.3-.85.6-1.35.89Z"/><path class="cls-15" d="m802.07,2188.05l14.67,40.25c.94-.27,1.89-.54,2.85-.82l-14.77-40.51-2.53.92c-.07.06-.15.11-.22.17Z"/><path class="cls-15" d="m773.63,2198.33l1.78,4.87c.72-.51,1.6-1.02,2.61-1.49l-1.6-4.4-2.78,1.01Z"/><path class="cls-15" d="m779.65,2206.2c-1.07.29-2.07.47-2.95.54l10.32,28.29c.97-.16,1.96-.33,2.96-.51l-10.32-28.32Z"/><path class="cls-15" d="m745.22,2208.69l9.94,27.26c1.03.27,2.16.49,3.38.65l-10.54-28.92-2.78,1.01Z"/><path class="cls-15" d="m740.59,2210.38c.84,2.3,3.27,3.91,7.02,4.87,1.03.27,2.16.49,3.38.65,6.87.96,16.69.4,28.48-1.54.97-.16,1.96-.33,2.96-.51,8.17-1.47,17.19-3.56,26.76-6.23.94-.27,1.89-.54,2.85-.82,8.33-2.4,17.04-5.23,25.95-8.47l.29-.1c.83-.3,1.67-.61,2.49-.92,8.91-3.31,17.39-6.8,25.26-10.36.91-.41,1.81-.82,2.7-1.24,9.08-4.19,17.31-8.47,24.41-12.67.88-.51,1.74-1.03,2.58-1.55,10.66-6.49,18.49-12.7,22.49-17.98.84-1.1,1.5-2.16,1.99-3.17,1.02-2.12,1.28-4.03.68-5.67-4.16-11.42-47.9-5.98-97.7,12.18-49.79,18.15-86.78,42.13-82.61,53.55Zm155.03-58.44c-.47-1.28,2.27-3.45,6.1-4.85,3.84-1.4,7.33-1.5,7.79-.22.24.67-.39,1.58-1.61,2.51-1.1.84-2.67,1.68-4.5,2.34-1.83.67-3.57,1.04-4.95,1.1-1.53.07-2.6-.22-2.84-.89Zm-18.27,16.11c-.47-1.28,2.27-3.45,6.1-4.85,2.18-.79,4.25-1.17,5.72-1.11,1.11.04,1.87.33,2.08.89.2.56-.2,1.28-1.02,2.02-1.08.99-2.91,2.04-5.09,2.83-3.84,1.4-7.33,1.5-7.79.22Zm-7.59-15.07c-.47-1.28,2.27-3.45,6.1-4.85,3.84-1.4,7.33-1.5,7.79-.22.47,1.28-2.27,3.45-6.1,4.85-3.84,1.4-7.33,1.5-7.79.22Zm-10.81,14.96c-1.82.67-3.57,1.04-4.95,1.1-1.53.07-2.6-.22-2.84-.88-.47-1.28,2.27-3.45,6.1-4.85,3.84-1.4,7.33-1.5,7.79-.22.24.67-.39,1.58-1.61,2.51-.47.36-1.02.72-1.64,1.06-.21.11-.43.23-.66.34-.18.1-.37.19-.57.28-.47.21-.95.42-1.47.61l-.16.06Zm-14.52,16.31c-.47-1.28,2.27-3.45,6.1-4.85,3.84-1.4,7.33-1.5,7.79-.22.47,1.28-2.27,3.45-6.1,4.85s-7.33,1.5-7.79.22Zm-11.56-23.08c-.47-1.28,2.27-3.45,6.1-4.85,3.84-1.4,7.33-1.5,7.79-.22.47,1.28-2.27,3.45-6.1,4.85-3.84,1.4-7.33,1.5-7.79.22Zm-13.21,18.46c-.47-1.28,2.27-3.45,6.1-4.85,3.84-1.4,7.33-1.5,7.79-.22.24.67-.39,1.58-1.61,2.51-.39.3-.85.6-1.35.89-.9.53-1.98,1.03-3.14,1.45-1.83.67-3.57,1.04-4.95,1.1-1.53.07-2.6-.22-2.84-.88Zm-9.17,18.04c-.47-1.28,2.27-3.45,6.1-4.85,3.84-1.4,7.33-1.5,7.79-.22.47,1.28-2.27,3.45-6.1,4.85s-7.33,1.5-7.79.22Zm-10.05-24.68c-.47-1.28,2.27-3.45,6.1-4.85,3.84-1.4,7.33-1.5,7.79-.22.47,1.28-2.27,3.45-6.1,4.85-3.84,1.4-7.33,1.5-7.79.22Zm-10.43,17.45c-.47-1.28,2.27-3.45,6.1-4.85,3.84-1.4,7.33-1.5,7.79-.22.24.67-.39,1.58-1.61,2.51-.07.06-.15.11-.22.17-1.08.78-2.57,1.56-4.28,2.18-1.83.67-3.57,1.04-4.95,1.1-1.53.07-2.6-.22-2.84-.88Zm-12.51-1.21c-3.84,1.4-7.33,1.5-7.79.22-.47-1.28,2.27-3.45,6.1-4.85,3.84-1.4,7.33-1.5,7.79-.22.47,1.28-2.27,3.45-6.1,4.85Zm-3.9,16.64c-.26-.71.47-1.69,1.83-2.67.22-.17.48-.33.74-.49.13-.09.29-.18.45-.27.25-.14.53-.3.82-.43.19-.1.39-.2.6-.29.52-.24,1.08-.48,1.67-.69,3.84-1.4,7.33-1.5,7.79-.22.47,1.28-2.27,3.45-6.1,4.85-.58.21-1.17.39-1.72.54-.22.07-.43.12-.64.16-.31.08-.62.14-.91.19-.18.03-.35.07-.52.08-.31.05-.61.09-.89.1-1.67.12-2.86-.15-3.12-.87Zm-23.42-.91c-.47-1.28,2.27-3.45,6.1-4.85,3.84-1.4,7.33-1.5,7.79-.22.24.67-.39,1.58-1.61,2.51-1.1.84-2.67,1.68-4.5,2.34-1.83.67-3.57,1.04-4.95,1.1-1.53.07-2.6-.22-2.84-.88Z"/><path class="cls-15" d="m802.82,2336.82l55.79,153.04c2.17,5.96,6.37,10.6,11.53,13.41,6.1,3.33,13.55,4.12,20.59,1.55l104.51-38.1c13-4.74,19.7-19.13,14.96-32.12l-55.79-153.04c-4.74-13-19.13-19.7-32.12-14.96l-104.51,38.1c-13,4.74-19.7,19.13-14.96,32.12Z"/><path class="cls-15" d="m895.34,2226.04c-23.07,11.53-42.64,12.89-43.37,22.11-.17,2.12.61,5.28,2.7,7.41,3.46,3.52,9.33,3.04,13.48,2.43,31.13-4.57,61.06-25.41,61.06-25.41,18.72-13.03,21.4-18.79,20.88-23.35-.41-3.51-2.84-7.43-6.49-9.18-10.35-4.94-20.76,12.24-48.25,25.99Z"/><path class="cls-15" d="m804.47,2265.74c-1.52-2.12-1.43-5.12-.65-7.15,1.92-4.97,8.8-6.2,17.12-7.67,7.97-1.42,14.04-2.4,18.48,1.31.91.76,3.68,3.08,3.41,5.75-.85,8.51-32.17,16.42-38.36,7.76Z"/><path class="cls-15" d="m893.95,2276.93s41.1-13.93,50.81,9.82c5.4,13.19,22.05,47.53,38.15,80.88,0,0,.02.05.05.12,0,.02,0,.03.02.05,4.07,8.42,8.09,16.77,11.88,24.71l-40.44-110.95c-4.74-13-19.13-19.7-32.12-14.96l-28.34,10.33Z"/><path class="cls-15" d="m870.14,2503.26c6.1,3.33,13.55,4.12,20.59,1.55l104.51-38.1c13-4.74,19.7-19.13,14.96-32.12l-25.37-69.6-1.93,2.63s.02.05.05.12c0,.02,0,.03.02.05,1.25,3.17,20.55,52.29,16.16,68.12-4.54,16.35-3.52,19.13-42.35,36.43-31.46,14.02-60.43,29.2-86.64,30.92Z"/><path class="cls-15" d="m802.82,2336.82l19.23,52.75c-3.9-15.68-7.78-32.75-10.2-47.03-4.69-27.76,26.79-44.64,43.54-51.56l-37.61,13.71c-13,4.74-19.7,19.13-14.96,32.12Z"/><path class="cls-15" d="m881.55,2474.34c2.09-7.83-3.44-19.93-5.72-25.11-20.77-47.21-19.81-85.12-35.21-93.26-1.5-.79-2.9-1.5-4.07-.73-10.88,7.12,24.63,123.58,39.33,125.13,2.52.27,4.82-2.81,5.68-6.02Z"/><path class="cls-15" d="m889.97,2454.71c-8.19,1.1-35.59-71.63-28.37-77.82.15-.13.61-.53,1.32-.48,3.87.25,7.51,13.44,13.79,29.61,10.2,26.23,18.3,37,15.23,45.88-.48,1.38-.93,2.68-1.97,2.82Z"/><path class="cls-15" d="m937.44,2327.23c8.43-.33,44.84,101.4,37.97,108.74-.14.15-.59.62-1.33.46-4.06-.88-9.28-19.15-17.57-41.79-13.46-36.74-23.07-52.37-20.82-63.89.35-1.79.68-3.47,1.75-3.52Z"/></g><g id="pan_2" class="cls-21"><path class="cls-16" d="m1296.41,1103.98l28.94,165.92c.3,1.74.48,3.49.54,5.24.43,12.3-5.08,24.42-14.84,34.64-11.92,12.51-30.17,22.2-51.62,25.94l-227.64,39.71c-41.49,7.24-79.23-10.5-84.31-39.62l-28.94-165.92,377.86-65.91Z"/><path class="cls-16" d="m1311.05,1309.78c-11.92,12.51-30.17,22.2-51.62,25.94l-227.64,39.71c-41.49,7.24-79.23-10.5-84.31-39.62l-28.94-165.92,28.25-4.93c1.7,12.67,13.42,98.72,30.61,150.82,2.46,7.45,7.27,21,23.78,30.01,19.38,10.58,44.77,9.4,61.65,7.95,64.08-5.51,185.52-30.48,248.23-43.96Z"/><rect class="cls-16" x="1053.01" y="1026.67" width="84.42" height="64.01" transform="translate(-165.62 203.93) rotate(-9.89)"/><path class="cls-16" d="m1306.42,1116.48l-393.44,68.62c-1.29.22-2.51-.64-2.74-1.92l-4.64-26.59c-4.36-24.97,12.36-48.74,37.33-53.1l307.68-53.67c24.97-4.36,48.74,12.36,53.1,37.33l4.64,26.59c.22,1.29-.64,2.51-1.92,2.74Z"/><path class="cls-16" d="m1304.83,1129.7l-385.51,67.24c-6.89,1.2-13.46-3.41-14.66-10.3l-.25-1.42c-1.2-6.89,3.41-13.46,10.3-14.66l385.51-67.24c6.89-1.2,13.46,3.41,14.66,10.3l.25,1.42c1.2,6.89-3.41,13.46-10.3,14.66Z"/><path class="cls-16" d="m1163.21,1015.27c3.7,21.2-26.65,44.2-67.78,51.37-41.13,7.17-77.48-4.19-81.17-25.39-3.7-21.2,26.65-44.2,67.79-51.37,41.13-7.17,77.48,4.19,81.17,25.39Z"/><path class="cls-16" d="m1230.67,1165.87c-11.37,14.69-6.22,30.07-3.93,37.28,18.45,58.05,11.21,88.44,31.52,89.84.39.03,7.42.8,12.55-2.77,8.09-5.63,3.62-21.58-3.77-63.69-8.52-48.49-12.92-70.82-23.36-70.57-5.43.13-10.35,6.48-13,9.91Z"/><path class="cls-16" d="m1195.83,1189.1s9.73,106.67,21.23,100.37c11.5-6.3-6.99-126.78-21.23-100.37Z"/><path class="cls-16" d="m1279.2,1079.54s-151.51,16.51-143.2,29.14c8.31,12.63,179.85-14.47,143.2-29.14Z"/><path class="cls-16" d="m1114.83,1107.16c-17.79-1.68-36.13,4.78-35.69,8.84.33,3.11,11.64,4.52,17.2,4.74,15.85.64,31.2-6.52,30.64-10.11-.37-2.36-7.6-3.04-12.15-3.47Z"/><path class="cls-16" d="m1000.17,1217.54s9.73,106.67,21.23,100.37c11.5-6.3-6.99-126.78-21.23-100.37Z"/><path class="cls-16" d="m1294.13,1155.45s96.6-92,133.93-70.95c37.33,21.04-82.64,48.34-111.62,118.47-14.31,8-29.62,10.92-36.45,5.05-8.58-7.36-6.29-30.67,14.14-52.56Z"/><path class="cls-16" d="m1279.99,1208.02c6.84,5.86,22.15,2.95,36.45-5.05,28.99-70.12,148.96-97.42,111.63-118.46-.09-.05-.17-.1-.27-.14-37.53-20.46-133.66,71.1-133.66,71.1-7.44,7.97-12.48,16.13-15.45,23.64-5.2,13.12-4.14,24.24,1.32,28.93Z"/><path class="cls-16" d="m1278.68,1179.09c4.26,1.16,8.95,1.03,10.69.99,25.68-.67,37.38-22.54,66.73-47.96,28.97-25.08,56.79-37.79,71.7-47.76-37.53-20.46-133.66,71.1-133.66,71.1-7.44,7.97-12.48,16.13-15.45,23.64Z"/><path class="cls-16" d="m1292.21,1188.98c.65,3.73,3.87,6.4,7.62,6.59.63.04,1.27,0,1.92-.11.65-.11,1.27-.3,1.85-.55,3.46-1.44,5.59-5.05,4.94-8.78-.65-3.73-3.87-6.4-7.62-6.59-.63-.04-1.27,0-1.92.11-.65.11-1.27.3-1.85.55-3.46,1.44-5.59,5.05-4.94,8.78Z"/><path class="cls-16" d="m1297.15,1180.2l2.68,15.36c.63.04,1.27,0,1.92-.11.65-.11,1.27-.3,1.85-.55l-2.68-15.36c-.63-.04-1.27,0-1.92.11-.65.11-1.27.3-1.85.55Z"/><path class="cls-16" d="m1104.48,1018.33s-24.47,8.15-57.8,10.08c-5.26.3-19.22-1.7-21.54,3.67-1.15,2.67,1.02,5.96,1.27,6.34,10.63,16.08,84.05-3.56,83.5-15.07-.11-2.2-2.91-3.89-5.43-5.02Z"/><path class="cls-16" d="m1138.25,1018.92c.61,3.47-3.69,7.12-9.58,8.15-5.9,1.03-11.17-.95-11.78-4.42-.61-3.47,3.69-7.12,9.58-8.15,5.9-1.03,11.17.95,11.78,4.42Z"/><path class="cls-10" d="m1159.47,1006.5c-2.33,19.35-30.71,38.79-67.93,45.29-35.02,6.11-66.54-1.23-77.43-16.62-.24,2.04-.21,4.07.15,6.09,3.7,21.2,40.04,32.57,81.17,25.39,41.13-7.17,71.48-30.17,67.78-51.37-.55-3.15-1.84-6.08-3.74-8.77Z"/><path class="cls-16" d="m1017.42,1044.58c-3.58-20.52,25.8-42.79,65.63-49.74,39.82-6.95,75.01,4.06,78.59,24.58.58,3.35.27,6.75-.8,10.12,2.31-4.72,3.2-9.54,2.37-14.28-3.7-21.2-40.04-32.57-81.17-25.39-41.13,7.17-71.48,30.17-67.79,51.37.91,5.24,3.83,9.88,8.32,13.79-2.7-3.12-4.48-6.62-5.15-10.46Z"/><path class="cls-16" d="m1669.25,1007.57c-10.56-19.44-86.01,2.62-116.63,11.58-41.11,12.03-98.17,32.44-164.1,68.76,4.81,11.12,9.63,22.24,14.43,33.36,53.82-12.69,252.73-61.17,266.27-101.74.7-2.09,2.48-7.45.04-11.96Zm-46.55,16.16c-14.33,3.68-26.86,3.05-28.01-1.38-1.14-4.44,9.57-11,23.89-14.68,14.33-3.68,26.87-3.05,28.01,1.38,1.14,4.44-9.57,11-23.89,14.68Z"/><path class="cls-16" d="m1669.25,1007.57c-1.6-2.94-4.69-4.93-8.88-6.16-.18.65-.37,1.2-.51,1.62-13.37,40.09-207.69,87.89-264.25,101.27,2.45,5.66,4.9,11.31,7.34,16.97,53.82-12.69,252.73-61.17,266.27-101.74.7-2.09,2.48-7.45.04-11.96Z"/></g><g id="pan_2-2" class="cls-21"><path class="cls-16" d="m-117.87,1155.45s96.6-92,133.93-70.95c37.33,21.04-82.64,48.34-111.62,118.47-14.31,8-29.62,10.92-36.45,5.05-8.58-7.36-6.29-30.67,14.14-52.56Z"/><path class="cls-16" d="m-132.01,1208.02c6.84,5.86,22.15,2.95,36.45-5.05,28.99-70.12,148.96-97.42,111.63-118.46-.09-.05-.17-.1-.27-.14-37.53-20.46-133.66,71.1-133.66,71.1-7.44,7.97-12.48,16.13-15.45,23.64-5.2,13.12-4.14,24.24,1.32,28.93Z"/><path class="cls-16" d="m-133.32,1179.09c4.26,1.16,8.95,1.03,10.69.99,25.68-.67,37.38-22.54,66.73-47.96,28.97-25.08,56.79-37.79,71.7-47.76-37.53-20.46-133.66,71.1-133.66,71.1-7.44,7.97-12.48,16.13-15.45,23.64Z"/><path class="cls-16" d="m257.25,1007.57c-10.56-19.44-86.01,2.62-116.63,11.58-41.11,12.03-98.17,32.44-164.1,68.76,4.81,11.12,9.63,22.24,14.43,33.36,53.82-12.69,252.73-61.17,266.27-101.74.7-2.09,2.48-7.45.04-11.96Zm-46.55,16.16c-14.33,3.68-26.86,3.05-28.01-1.38-1.14-4.44,9.57-11,23.89-14.68,14.33-3.68,26.87-3.05,28.01,1.38,1.14,4.44-9.57,11-23.89,14.68Z"/><path class="cls-16" d="m257.25,1007.57c-1.6-2.94-4.69-4.93-8.88-6.16-.18.65-.37,1.2-.51,1.62-13.37,40.09-207.69,87.89-264.25,101.27,2.45,5.66,4.9,11.31,7.34,16.97,53.82-12.69,252.73-61.17,266.27-101.74.7-2.09,2.48-7.45.04-11.96Z"/><path class="cls-16" d="m79.42,1047.03s88.13-35.57,93.78-25.44c5.64,10.12-41.33,22.35-75.76,32.4-34.43,10.04-36.88,3.4-18.01-6.96Z"/><path class="cls-16" d="m51.8,1059.24s-34.31,11.16-32.17,15.97c2.13,4.81,60.69-15.77,32.17-15.97Z"/></g><g id="wineglass" class="cls-21"><rect class="cls-20" x="907.84" y="638.73" width="25.22" height="258.56" transform="translate(1941.49 1396.14) rotate(171.76)"/><path class="cls-20" d="m775.18,360.46l31.61,218.25c1.7,11.77,6.49,22.42,13.55,31.47,2.82,3.63,6.01,6.98,9.53,10.06,7.72,6.77,16.99,12.13,27.25,15.71,3.51,1.23,7.14,2.26,10.86,3.05,10.7,2.3,22.19,2.77,33.94,1.06,5.26-.76,10.35-1.92,15.24-3.45,38.38-12,63.8-46.32,58.58-82.38l-31.61-218.25c-.06-.42-.17-.83-.32-1.21-1.17-2.94-4.91-5.3-10.71-7.08-10.29-3.16-27-4.38-46.89-3.33-9.28.47-19.25,1.45-29.58,2.95-46.65,6.76-83.12,21.61-81.45,33.14Z"/><rect class="cls-20" x="920.06" y="637.85" width="12.93" height="258.56" transform="translate(-100.4 140.74) rotate(-8.24)"/><path class="cls-20" d="m793.98,343.72l25.85,178.46c5.89,40.64,48.48,68.11,95.13,61.35,25.42-3.68,46.77-16.77,60.02-34.49l.75,5.2c5.89,40.64-27.16,79.07-73.81,85.82-46.65,6.76-89.24-20.71-95.13-61.35l-31.61-218.26c-.76-5.25,6.4-11.19,18.8-16.74Z"/><path class="cls-20" d="m775.17,360.46c1.67,11.54,40.85,15.43,87.5,8.67,46.65-6.76,83.11-21.6,81.44-33.14-1.67-11.54-40.85-15.43-87.5-8.67-46.65,6.76-83.11,21.6-81.44,33.14Z"/><path class="cls-20" d="m949.59,881.26l90.13,22.3c-21.74,9.77-55.23,22.13-97.89,27.84-38.87,5.2-71.54,3.03-94.09-.03,25.63-15.5,51.26-30.99,76.9-46.49l24.96-3.62Z"/><path class="cls-20" d="m926.1,385.42s21.46,123.25,13.2,124.13c-8.27.88-41.09-166.29-13.2-124.13Z"/><path class="cls-20" d="m937.15,541.67c1.39,9.58,5.31,16.95,8.76,16.45,3.45-.5,5.12-8.67,3.73-18.26-1.39-9.58-5.31-16.95-8.76-16.45s-5.12,8.67-3.73,18.26Z"/><path class="cls-20" d="m921.65,334.42c-6.11,4.1-21.74-.38-42.73,4.35-4.61,1.04-10.8,2.82-15.7,1.97-1.75-.31-3.86-1.04-3.67-2.04.07-.36.65-1.93,11.96-4.5,19.62-4.47,49.17-6.89,51.63-2.67.53.91-.24,2.06-1.5,2.91Z"/><path class="cls-20" d="m826.49,345.13c.28,1.92,6.1,2.66,13,1.66,6.9-1,12.27-3.36,11.99-5.28-.28-1.92-6.1-2.66-12.99-1.66-6.9,1-12.27,3.36-11.99,5.28Z"/><path class="cls-20" d="m1000.65,911.57s-23.38,13.51-63.65,10.64c-2.38-.17-6.41-.58-6.87-2.36-.41-1.58,2.2-3.52,3.09-4.18,9.66-7.18,26.76.1,44.42-6.43,9.91-3.67,15.33-9.97,26.96-9.57,1.75.06,6.35.25,6.94,2.19.89,2.91-7.84,7.95-10.89,9.72Z"/><path class="cls-20" d="m872.05,659.73c1.68,11.62,17.34,18.97,34.97,16.42,17.63-2.55,30.56-14.05,28.88-25.67-.55-3.76-2.56-7.07-5.62-9.73-2.57-2.25-5.89-4.05-9.71-5.28-5.69-1.84-12.51-2.43-19.65-1.39-7.11,1.03-13.45,3.52-18.38,6.87-3.03,2.05-5.53,4.46-7.34,7.04-2.55,3.64-3.75,7.69-3.16,11.74Z"/><path class="cls-20" d="m883.09,686.97c1.06,7.28,13.1,11.57,26.9,9.57,13.8-2,24.13-9.52,23.07-16.81-1.06-7.28-13.1-11.57-26.9-9.57-13.8,2-24.13,9.52-23.07,16.81Z"/><path class="cls-20" d="m896.05,660.96c5.55-.8,9.82-3.08,9.53-5.08-.29-2-5.03-2.97-10.58-2.16-5.55.8-9.82,3.08-9.53,5.08.29,2,5.03,2.97,10.58,2.16Z"/><path class="cls-20" d="m900.21,691.43c4.93-.71,8.71-2.84,8.43-4.74-.28-1.9-4.5-2.86-9.43-2.15-4.93.71-8.71,2.84-8.43,4.74.28,1.9,4.5,2.86,9.43,2.15Z"/><path class="cls-20" d="m819.83,522.19l-24.58-169.72c.44-.2.87-.41,1.33-.61l25.85,178.46c.32,2.23.77,4.41,1.31,6.56-1.84-4.66-3.17-9.57-3.91-14.68Z"/><path class="cls-20" d="m875.22,647.99c9.36,1.54,19.25,1.66,29.31.2,9.17-1.33,17.83-3.89,25.76-7.44-2.57-2.25-5.89-4.05-9.71-5.28-5.9,2.1-12.14,3.66-18.65,4.6-6.57.95-13.06,1.23-19.37.88-3.03,2.05-5.53,4.46-7.34,7.04Z"/><path class="cls-4" d="m867.99,639.01c10.7,2.3,22.19,2.77,33.94,1.06,5.26-.76,10.35-1.92,15.24-3.45l51.73-129.63-12.84-88.64-88.07,220.66Z"/><path class="cls-4" d="m829.87,620.24c7.72,6.77,16.99,12.13,27.25,15.71l95.72-239.82-8.71-60.14c-.06-.42-.17-.83-.32-1.21l-113.93,285.46Z"/><path class="cls-4" d="m800.91,538.09l5.88,40.61c1.7,11.77,6.49,22.42,13.55,31.47l102.31-256.31c-13.53,5.66-32.47,10.83-53.94,14.33l-67.8,169.89Z"/></g><g id="corkscrew" class="cls-21"><path class="cls-6" d="m331.42,204.41c14.03,9.03,27.21,19.76,37.13,32.82,4.87,6.51,8.93,13.72,10.53,21.23.36,1.87.61,3.74.63,5.59,0,1.84-.19,3.65-.6,5.4-.84,3.42-2.7,6.96-4.93,10.11-2.26,3.14-4.97,5.99-8.02,7.99-.74.56-1.55.9-2.32,1.35-.8.3-1.59.74-2.4.9-1.61.55-3.22.58-4.8.47-3.18-.34-6.39-2.16-8.69-4.67-2.36-2.55-3.39-5.63-3.38-9.12.03-3.48,1.15-7.16,2.93-10.51,1.78-3.36,4.22-6.45,7.07-8.99,2.85-2.54,6.15-4.53,9.62-5.55,3.45-1.07,7.06-1.03,10.64-.05,3.58.96,7.03,2.81,10.33,5.11,3.45,2.37,6.44,4.82,9.27,7.75,5.58,5.81,10.14,12.75,13.25,20.2,3.06,7.41,4.77,15.59,3.39,23.03-.36,1.84-.9,3.62-1.66,5.28-.78,1.65-1.78,3.14-2.99,4.54-2.43,2.8-5.63,5.14-9.06,6.7-1.71.81-3.5,1.37-5.27,1.69-1.77.33-3.55.39-5.16.06-1.62-.32-3.1-.91-4.38-1.9-1.29-.98-2.39-2.31-3.26-3.83-1.74-3.05-2.55-6.86-2.27-10.42.23-3.59,1.81-6.72,4.34-9.34,5.21-5.15,13.41-7.76,21.18-8.06,7.77-.25,15.36,2.56,21.36,7.82,3.02,2.57,5.71,5.58,8.05,8.87,2.32,3.31,4.26,6.9,5.85,10.63,1.58,3.73,2.81,7.63,3.51,11.57.72,4.05,1.09,8.13,1.03,12.16-.11,4.01-.69,7.98-2.11,11.4-1.44,3.43-3.89,5.95-7.12,7.31-1.63.69-3.47,1.02-5.32,1.16-1.86.14-3.76.02-5.6-.37-3.68-.7-7.17-2.46-9.32-5.05-2.21-2.56-2.62-5.97-1.65-9.52.97-3.51,3.07-6.93,5.73-9.69,2.67-2.8,5.91-4.68,9.59-5.71,3.68-1.01,7.67-1.14,11.59-.62,7.84,1.09,15.53,4.61,21.37,10,5.88,5.34,9.38,12.81,10.19,20.84.88,7.99-.41,16.33-3.34,23.91-1.47,3.77-3.38,7.43-5.85,10.38-1.22,1.45-2.64,2.73-4,3.34-.68.31-1.22.36-1.85.31-.64-.07-1.38-.31-2.12-.7-1.49-.79-2.95-2.04-4.25-3.44-1.27-1.46-2.43-3.05-3.38-4.75-.91-1.71-1.73-3.5-2.17-5.31-.43-1.79-.56-3.61-.14-5.02.33-1.37,1.41-2.53,2.93-3.53,1.49-.99,3.29-1.74,5.17-2.29,3.79-1.11,7.89-1.48,11.96-1.43,8.13.18,16.38,2.18,23.24,6.37,6.92,4.1,11.68,11.02,14.14,18.72,1.17,3.88,1.82,7.93,2.04,12.02.08,4.1-.17,8.22-.91,12.28-1.47,8.12-4.61,15.93-8.85,23.06l3.67,2.23c4.52-7.52,7.91-15.8,9.53-24.5.82-4.35,1.11-8.79,1.04-13.24-.21-4.45-.89-8.89-2.18-13.2-1.32-4.3-3.35-8.41-6.03-12.1-1.3-1.88-2.91-3.52-4.53-5.13-1.68-1.56-3.53-2.9-5.45-4.12-7.75-4.77-16.7-6.94-25.6-7.2-4.47-.08-8.97.3-13.41,1.56-2.21.64-4.42,1.51-6.51,2.87-1.05.65-2.04,1.52-2.94,2.52-.9,1.03-1.62,2.33-2,3.69-.78,2.71-.49,5.29.05,7.63.57,2.35,1.53,4.48,2.62,6.54,2.31,4.01,5.17,7.74,9.68,10.26,1.14.6,2.45,1.09,3.93,1.25,1.51.17,3.12-.11,4.4-.7,2.55-1.17,4.3-2.91,5.85-4.68,3.03-3.61,5.12-7.64,6.78-11.8,3.25-8.33,4.72-17.35,3.79-26.38-.47-4.5-1.62-8.99-3.61-13.16-1.93-4.2-4.83-7.94-8.15-11.08-6.72-6.23-15.26-10.2-24.31-11.52-4.53-.63-9.25-.53-13.82.7-4.56,1.2-8.96,3.77-12.18,7.17-3.26,3.38-5.84,7.42-7.2,12.14-.65,2.36-.94,4.93-.54,7.55.39,2.61,1.56,5.17,3.22,7.14,3.34,4.02,8.01,6.19,12.66,7.14,2.34.5,4.74.66,7.14.5,2.4-.16,4.82-.58,7.15-1.54,1.15-.49,2.33-1.01,3.36-1.79l1.58-1.11c.48-.42.92-.89,1.37-1.34.97-.86,1.62-1.94,2.37-2.95.68-1.04,1.21-2.15,1.74-3.25,1.88-4.48,2.51-9.12,2.66-13.63.09-4.51-.3-8.98-1.05-13.35-.78-4.48-2.11-8.79-3.84-12.93-3.45-8.26-8.56-15.93-15.52-21.91-.9-.71-1.74-1.49-2.69-2.15l-2.87-1.94-3.07-1.66c-1.02-.56-2.15-.92-3.22-1.38-4.37-1.63-9.15-2.47-13.78-2.31-4.63.12-9.16,1.01-13.55,2.52-4.35,1.58-8.6,3.87-12.1,7.35-1.73,1.76-3.23,3.81-4.34,6.11-.31.55-.48,1.18-.71,1.77-.21.6-.47,1.19-.59,1.81-.32,1.23-.53,2.47-.63,3.71-.39,4.94.61,9.87,3.05,14.27,1.23,2.19,2.88,4.23,4.98,5.86,2.09,1.65,4.67,2.71,7.23,3.21,2.58.52,5.16.41,7.58-.02,2.43-.42,4.75-1.16,6.91-2.16,2.17-.98,4.24-2.16,6.14-3.58,1.91-1.4,3.71-2.97,5.29-4.81,1.59-1.82,3-3.9,4.05-6.11,1.04-2.22,1.76-4.55,2.23-6.9.92-4.71.79-9.44.06-13.97-.7-4.54-2.05-8.9-3.74-13.08-3.44-8.33-8.38-15.95-14.6-22.5-1.58-1.61-3.2-3.2-4.96-4.65-.85-.75-1.79-1.43-2.67-2.12-.86-.64-1.76-1.31-2.69-1.95-3.69-2.58-7.85-4.91-12.53-6.2-2.34-.64-4.79-1.02-7.29-1.04-2.5-.04-4.98.42-7.37,1.07-4.75,1.38-8.93,3.95-12.47,7.06-3.54,3.13-6.5,6.85-8.75,11.02-2.22,4.17-3.79,8.86-3.88,13.95v1.91c.06.64.18,1.29.27,1.93.12,1.29.55,2.56.98,3.82.85,2.54,2.35,4.75,4.03,6.67,3.44,3.77,8.08,6.53,13.43,7.19,2.65.26,5.4.1,7.87-.69,1.28-.3,2.41-.87,3.59-1.34,1.09-.6,2.24-1.14,3.23-1.85,4.12-2.68,7.37-6.15,10.12-9.91,2.7-3.8,4.98-7.91,6.24-12.8.58-2.41.85-4.88.85-7.31-.01-2.43-.31-4.81-.76-7.14-.96-4.63-2.62-8.98-4.69-13.03-2.06-4.06-4.48-7.86-7.15-11.43-10.75-14.27-24.51-25.48-39.09-34.99l-4.49,6.99Z"/><path class="cls-6" d="m258.38,233l18.5,22.41c8.78,10.63,24.51,12.13,35.15,3.35l54.46-44.96c10.63-8.78,12.13-24.51,3.36-35.14l-18.5-22.41c-8.78-10.63-24.51-12.13-35.14-3.36l-54.46,44.96c-10.63,8.78-12.14,24.51-3.36,35.14Z"/><path class="cls-6" d="m258.38,233l4.4,5.33,92.96-76.74-4.4-5.33c-8.78-10.63-24.51-12.13-35.14-3.36l-54.46,44.96c-10.63,8.78-12.14,24.51-3.36,35.14Z"/><path class="cls-6" d="m138.92,281.44c11.95,14.47,33.7,15.59,47.1,2.45,32.61-31.99,69.04-65.2,109.52-98.66,41.19-34.05,81.34-64.04,119.49-90.4,15.44-10.66,18.45-32.24,6.51-46.71h0c-12-14.53-33.87-15.58-47.25-2.3-31.88,31.65-67.71,64.59-107.75,97.76-41.78,34.62-82.48,64.8-120.98,91.05-15.56,10.61-18.64,32.28-6.65,46.8h0Z"/><path class="cls-6" d="m288.91,142.19c-25.22,15.96-102.01,65.83-117.63,98.01-1.49,3.07-5.19,10.69-2.72,13.03,2.58,2.44,11.83-.97,41.09-23.14,36.55-27.69,95.59-78,89.05-87.26-.87-1.24-3.22-2.17-9.79-.63Z"/><path class="cls-6" d="m177.6,273.77c32.61-31.99,69.04-65.2,109.52-98.66,41.19-34.05,81.34-64.04,119.49-90.4,13.61-9.4,17.56-27.3,10.11-41.31,1.73,1.37,3.35,2.95,4.82,4.73h0c11.94,14.47,8.93,36.04-6.51,46.71-38.15,26.35-78.31,56.35-119.49,90.4-40.48,33.46-76.91,66.68-109.52,98.66-13.39,13.14-35.15,12.02-47.1-2.45h0c-1.41-1.71-2.6-3.51-3.6-5.39,12.35,9.8,30.53,9.24,42.28-2.28Z"/></g><g id="cutting_board" class="cls-21"><path class="cls-11" d="m58.85,3096.36l113.7,60.69c51.25,27.35,109.44,16.39,127.27-24.02,17.17-38.92,36.62-79.12,58.72-120.18,20.1-37.35,40.8-72.47,61.69-105.41,23.66-37.31.39-91.77-50.86-119.12l-15.11-8.07c14.75-23.41,29.51-46.83,44.26-70.24,10.61-16.84,1.67-40.69-19.59-52.28l-19.45-10.61c-1.9-1.04-3.85-1.94-5.79-2.71-20.2-7.97-41.91-1.59-49.16,15.43-10.85,25.49-21.7,50.98-32.55,76.48l-16.3-8.7c-51.66-27.58-110.34-16.21-127.63,24.84-15.61,37.04-33.71,75.54-54.77,114.98-20.97,39.27-42.8,75.59-64.8,109.04-24.48,37.21-1.28,92.29,50.39,119.87Zm246.25-423.07c6.4-12,18.04-18.29,25.98-14.05,7.94,4.24,9.19,17.41,2.79,29.4-6.4,12-18.04,18.29-25.98,14.05-7.94-4.24-9.19-17.41-2.79-29.4Z"/><path class="cls-11" d="m30.67,3081.31l113.69,60.69c51.25,27.35,109.44,16.39,127.27-24.02,2.32-5.24,4.67-10.51,7.07-15.8,15.39-33.96,32.53-68.84,51.65-104.37,20.1-37.35,40.8-72.47,61.69-105.41,23.66-37.31.39-91.77-50.86-119.12l-15.11-8.07c14.75-23.41,29.51-46.83,44.26-70.24,10.1-16.03,2.47-38.44-16.65-50.55-.95-.6-1.94-1.18-2.95-1.73l-19.45-10.61c-21.67-11.81-47.01-5.94-54.95,12.73-10.85,25.49-21.7,50.98-32.55,76.48l-16.3-8.7c-51.66-27.58-110.34-16.21-127.63,24.84-2.59,6.15-5.25,12.34-7.99,18.57-3.34,7.63-6.79,15.3-10.35,23.04,0,.02-.02.03-.02.04-11.04,23.98-23.14,48.46-36.41,73.32-20.97,39.27-42.8,75.59-64.8,109.04-24.48,37.21-1.28,92.29,50.39,119.87Zm274.43-408.02c6.4-12,18.04-18.29,25.98-14.05,7.94,4.24,9.19,17.41,2.79,29.4-6.4,12-18.04,18.29-25.98,14.05-7.94-4.24-9.19-17.41-2.79-29.4Z"/><path class="cls-3" d="m30.67,3081.31l113.69,60.69c51.25,27.35,109.44,16.39,127.27-24.02,2.32-5.24,4.67-10.51,7.07-15.8-69.88,17.62-203.45-34.78-224.46-132.76-15.39-71.77,11.42-151.87,27.25-190.33-11.04,23.98-23.14,48.46-36.41,73.32-20.97,39.27-42.8,75.59-64.8,109.04-24.48,37.21-1.28,92.29,50.39,119.87Z"/><path class="cls-11" d="m200.46,2756.26c-6.69-8.8-19.59-8.9-20.9-8.89-26,.16-41.75,36.28-72.46,93.35-55.88,103.84-84.28,133.94-69.35,155.36,6.94,9.96,20.92,14.7,32.54,13.6,31.87-3.03,36.5-49.17,86.13-142.64,31.52-59.37,57.47-93.13,44.04-110.78Z"/><path class="cls-11" d="m234.72,2793.62c-.57-4.92-5.89-1.77-6.43-1.44-10.81,6.62-26.37,37.63-53.36,88.07-49.12,91.78-68.41,121.44-67.58,133.75.38,5.72,4.99,5.78,10.08,2.05,13.96-10.24,27.41-45.97,71.35-128.42,27.91-52.37,47.1-84.15,45.95-94.02Z"/><path class="cls-11" d="m359.78,2860.38c-.57-4.92-5.89-1.77-6.43-1.44-10.81,6.62-26.37,37.63-53.36,88.07-49.12,91.78-68.41,121.44-67.58,133.75.38,5.72,4.99,5.78,10.08,2.05,13.96-10.24,27.41-45.97,71.35-128.41,27.91-52.37,47.09-84.15,45.95-94.02Z"/></g><g id="cutting_board-2" class="cls-21"><path class="cls-11" d="m1474.85,3096.36l113.7,60.69c51.25,27.35,109.44,16.39,127.27-24.02,17.17-38.92,36.62-79.12,58.72-120.18,20.1-37.35,40.8-72.47,61.69-105.41,23.66-37.31.39-91.77-50.86-119.12l-15.11-8.07c14.75-23.41,29.51-46.83,44.26-70.24,10.61-16.84,1.67-40.69-19.59-52.28l-19.45-10.61c-1.9-1.04-3.85-1.94-5.79-2.71-20.2-7.97-41.91-1.59-49.16,15.43-10.85,25.49-21.7,50.98-32.55,76.48l-16.3-8.7c-51.66-27.58-110.34-16.21-127.63,24.84-15.61,37.04-33.71,75.54-54.77,114.98-20.97,39.27-42.8,75.59-64.8,109.04-24.48,37.21-1.28,92.29,50.39,119.87Zm246.25-423.07c6.4-12,18.04-18.29,25.98-14.05,7.94,4.24,9.19,17.41,2.79,29.4-6.4,12-18.04,18.29-25.98,14.05-7.94-4.24-9.19-17.41-2.79-29.4Z"/><path class="cls-11" d="m1446.67,3081.31l113.69,60.69c51.25,27.35,109.44,16.39,127.27-24.02,2.32-5.24,4.67-10.51,7.07-15.8,15.39-33.96,32.53-68.84,51.65-104.37,20.1-37.35,40.8-72.47,61.69-105.41,23.66-37.31.39-91.77-50.86-119.12l-15.11-8.07c14.75-23.41,29.51-46.83,44.26-70.24,10.1-16.03,2.47-38.44-16.65-50.55-.95-.6-1.94-1.18-2.95-1.73l-19.45-10.61c-21.67-11.81-47.01-5.94-54.95,12.73-10.85,25.49-21.7,50.98-32.55,76.48l-16.3-8.7c-51.66-27.58-110.34-16.21-127.63,24.84-2.59,6.15-5.25,12.34-7.99,18.57-3.34,7.63-6.79,15.3-10.35,23.04,0,.02-.02.03-.02.04-11.04,23.98-23.14,48.46-36.41,73.32-20.97,39.27-42.8,75.59-64.8,109.04-24.48,37.21-1.28,92.29,50.39,119.87Zm274.43-408.02c6.4-12,18.04-18.29,25.98-14.05,7.94,4.24,9.19,17.41,2.79,29.4-6.4,12-18.04,18.29-25.98,14.05-7.94-4.24-9.19-17.41-2.79-29.4Z"/><path class="cls-3" d="m1446.67,3081.31l113.69,60.69c51.25,27.35,109.44,16.39,127.27-24.02,2.32-5.24,4.67-10.51,7.07-15.8-69.88,17.62-203.45-34.78-224.46-132.76-15.39-71.77,11.42-151.87,27.25-190.33-11.04,23.98-23.14,48.46-36.41,73.32-20.97,39.27-42.8,75.59-64.8,109.04-24.48,37.21-1.28,92.29,50.39,119.87Z"/></g><g id="whip" class="cls-21"><path class="cls-14" d="m1192.49,740.25c7.12-3.58,13.01-8.01,16.7-10.78,52.4-39.44,53.24-148.53,52.25-181.03l-3.57.11c.98,32.06.21,139.66-50.82,178.06-8.55,6.44-26.35,19.83-44.19,14.68-11.56-3.33-21.39-14.28-27.67-30.83-8.96-23.59,4.65-58.33,39.34-100.46,27.04-32.85,58.03-59.58,63.97-64.61l-2.31-2.73c-13.05,11.05-126.89,109.69-104.34,169.07,6.69,17.62,17.35,29.34,30.02,32.99,10.87,3.14,21.72,0,30.63-4.48Z"/><path class="cls-14" d="m1171.94,744.53c-3.6,1.72-7.1,1.75-10.4.08-5.79-2.93-9.46-8.54-10.93-16.67-7.77-43.04,47.79-149.13,97.05-202.58l4.43-4.8-1.36,6.39c-1.74,8.16-42.94,199.59-78.51,217.45-.09.04-.18.09-.27.13Zm8.68-111.77c-20.25,41.19-29.9,75.65-26.49,94.55,1.26,6.97,4.3,11.72,9.03,14.11,2.29,1.16,4.66,1.12,7.24-.11.07-.04.15-.07.22-.11,9.75-4.9,26.45-28.63,50.95-113.25,11.68-40.37,20.79-79.86,24.2-95.13-22.92,26.13-46.96,62.96-65.15,99.95Z"/><path class="cls-14" d="m1403.28,177.9c-21.14,44.04-42.28,88.08-63.41,132.12-30.3,63.13-60.6,126.25-90.9,189.38-4.12,8.59-.66,18.9,7.8,23.27,8.48,4.37,18.9,1.19,23.5-7.16l102-185.48,69.95-127.2c4.82-8.76,1.38-19.77-7.55-24.23-5.88-2.95-11.76-5.88-17.64-8.82-8.79-4.39-19.49-.74-23.74,8.13Zm17.26,47.77c-7.43,14.41-16.93,24.3-21.22,22.09-4.29-2.21-1.74-15.68,5.69-30.1,7.43-14.41,16.93-24.3,21.22-22.09,4.29,2.21,1.74,15.68-5.69,30.1Z"/><path class="cls-14" d="m1395.37,238.65c-4.29-2.21-1.74-15.68,5.69-30.1,7.43-14.41,16.93-24.3,21.22-22.09,1.93,1,2.47,4.28,1.81,8.9-4.82.94-12.71,9.96-19.08,22.31-4.09,7.93-6.69,15.56-7.5,21.2-.81.16-1.53.1-2.14-.22Z"/><path class="cls-14" d="m1252.82,513.55c8.48,4.37,18.9,1.19,23.5-7.16l102-185.48,69.95-127.2c1.86-3.39,2.49-7.11,2.04-10.66,4.5,5.39,5.52,13.21,1.91,19.78l-69.95,127.2-102,185.48c-4.6,8.36-15.02,11.53-23.5,7.16-5.36-2.76-8.71-7.9-9.4-13.48,1.46,1.76,3.3,3.26,5.45,4.37Z"/><path class="cls-14" d="m1403.28,177.9c-21.14,44.04-42.28,88.08-63.41,132.12,4.13,2.16,8.34,4.29,12.64,6.41,10.16,5,20.1,9.51,29.76,13.6l69.95-127.2c4.82-8.76,1.38-19.77-7.55-24.23-5.88-2.95-11.76-5.88-17.64-8.82-8.79-4.39-19.49-.74-23.74,8.13Zm1.73,39.76c7.43-14.41,16.93-24.3,21.22-22.09,4.29,2.21,1.74,15.68-5.69,30.1-7.43,14.41-16.93,24.3-21.22,22.09-4.29-2.21-1.74-15.68,5.69-30.1Z"/><path class="cls-14" d="m1330.55,372.75c-10.66,21.11-16.39,33.97-24.45,33.92-.82,0-1.92-.03-2.77-.78-4.05-3.58,4.53-17.22,17.34-42.96,12.68-25.48,17.74-39.19,25.48-38.79.66.03,2.2.12,3.37,1.23,4.43,4.22-3.47,16.67-18.97,47.37Z"/><path class="cls-14" d="m1372.41,286.9c-8.1,16.05-12.46,25.82-18.59,25.79-.63,0-1.46-.02-2.11-.59-3.08-2.72,3.45-13.09,13.18-32.66,9.64-19.37,13.49-29.8,19.37-29.49.5.03,1.68.09,2.56.93,3.37,3.2-2.64,12.67-14.42,36.02Z"/><path class="cls-14" d="m1280.41,445.59c-8.4,16.3-13.55,30.37-11.49,31.43,2.06,1.06,10.54-11.29,18.94-27.59,8.4-16.3,13.55-30.37,11.49-31.43-2.06-1.06-10.54,11.29-18.94,27.59Z"/><path class="cls-14" d="m1392.49,244.24c-4.29-2.21-1.74-15.68,5.69-30.1,7.43-14.41,16.93-24.3,21.22-22.09,1.23.63,1.89,2.19,2.05,4.42-4.77,2.92-11.13,10.9-16.43,21.19-5.31,10.29-8.12,20.1-7.73,25.68-1.91,1.17-3.56,1.53-4.79.9Z"/><path class="cls-14" d="m1345.68,312.91c10.16,5,20.1,9.51,29.76,13.6l69.95-127.2c4.52-8.22,1.78-18.4-5.94-23.32,1.74.87,3.48,1.74,5.22,2.61,8.94,4.47,12.37,15.47,7.55,24.23l-69.95,127.2c-9.66-4.08-19.59-8.6-29.76-13.6-4.3-2.12-8.52-4.25-12.64-6.41,0,0,0,0,0-.01,1.92.97,3.85,1.94,5.8,2.9Z"/><path class="cls-14" d="m1282.38,511c-6.99,5.09-16,5.86-23.03,1.96-7.54-4.18-9.59-11.98-9.94-13.42-8.5,19.21-16.99,38.42-25.49,57.64,1.6,2.08,5.63,6.72,12.49,8.94,11.67,3.77,21.66-2.65,23.03-3.56,7.65-17.18,15.29-34.37,22.94-51.55Z"/></g><g id="whip-2" class="cls-21"><path class="cls-14" d="m-16.72,177.9c-21.14,44.04-42.28,88.08-63.41,132.12-30.3,63.13-60.6,126.25-90.9,189.38-4.12,8.59-.66,18.9,7.8,23.27,8.48,4.37,18.9,1.19,23.5-7.16l102-185.48,69.95-127.2c4.82-8.76,1.38-19.77-7.55-24.23-5.88-2.95-11.76-5.88-17.64-8.82-8.79-4.39-19.49-.74-23.74,8.13ZM.54,225.67c-7.43,14.41-16.93,24.3-21.22,22.09-4.29-2.21-1.74-15.68,5.69-30.1,7.43-14.41,16.93-24.3,21.22-22.09,4.29,2.21,1.74,15.68-5.69,30.1Z"/><path class="cls-14" d="m-24.63,238.65c-4.29-2.21-1.74-15.68,5.69-30.1,7.43-14.41,16.93-24.3,21.22-22.09,1.93,1,2.47,4.28,1.81,8.9-4.82.94-12.71,9.96-19.08,22.31-4.09,7.93-6.69,15.56-7.5,21.2-.81.16-1.53.1-2.14-.22Z"/><path class="cls-14" d="m-167.18,513.55c8.48,4.37,18.9,1.19,23.5-7.16l102-185.48L28.27,193.72c1.86-3.39,2.49-7.11,2.04-10.66,4.5,5.39,5.52,13.21,1.91,19.78l-69.95,127.2-102,185.48c-4.6,8.36-15.02,11.53-23.5,7.16-5.36-2.76-8.71-7.9-9.4-13.48,1.46,1.76,3.3,3.26,5.45,4.37Z"/><path class="cls-14" d="m-16.72,177.9c-21.14,44.04-42.28,88.08-63.41,132.12,4.13,2.16,8.34,4.29,12.64,6.41,10.16,5,20.1,9.51,29.76,13.6l69.95-127.2c4.82-8.76,1.38-19.77-7.55-24.23-5.88-2.95-11.76-5.88-17.64-8.82-8.79-4.39-19.49-.74-23.74,8.13Zm1.73,39.76c7.43-14.41,16.93-24.3,21.22-22.09,4.29,2.21,1.74,15.68-5.69,30.1-7.43,14.41-16.93,24.3-21.22,22.09-4.29-2.21-1.74-15.68,5.69-30.1Z"/><path class="cls-14" d="m-27.51,244.24c-4.29-2.21-1.74-15.68,5.69-30.1,7.43-14.41,16.93-24.3,21.22-22.09,1.23.63,1.89,2.19,2.05,4.42-4.77,2.92-11.13,10.9-16.43,21.19-5.31,10.29-8.12,20.1-7.73,25.68-1.91,1.17-3.56,1.53-4.79.9Z"/><path class="cls-14" d="m-74.32,312.91c10.16,5,20.1,9.51,29.76,13.6L25.39,199.31c4.52-8.22,1.78-18.4-5.94-23.32,1.74.87,3.48,1.74,5.22,2.61,8.94,4.47,12.37,15.47,7.55,24.23l-69.95,127.2c-9.66-4.08-19.59-8.6-29.76-13.6-4.3-2.12-8.52-4.25-12.64-6.41,0,0,0,0,0-.01,1.92.97,3.85,1.94,5.8,2.9Z"/></g><g class="cls-21"><path class="cls-18" d="m717.85,1440.51c70,54.22,127.94,122.96,199.31,175.35,8.04,5.9,16.86,12.49,18.95,22.24,1.92,8.97-2.55,18.14-8.37,25.23-5.63,6.86-12.78,12.66-21.14,15.65-13.87,4.97-29.62,1.69-42.54-5.38-12.92-7.08-23.55-17.61-34-28-28.95-28.8-57.9-57.6-86.85-86.4-17.73-17.64-35.6-35.4-56.31-49.43-7.16-4.85-14.62-9.23-22.08-13.61-1.25-.73-2.63-1.67-2.78-3.11-.13-1.26.77-2.37,1.61-3.32,16.1-18.07,33.76-34.75,54.19-49.23Z"/><path class="cls-18" d="m857.5,1653.26c-25.01-23.14-51.43-44.66-75.86-68.45-36.1-35.15-70.53-78.67-59.61-132.59.54-2.67,1.94-4.43,3.71-5.44-2.62-2.1-5.23-4.22-7.89-6.28-20.44,14.47-38.1,31.15-54.19,49.23-.84.95-1.74,2.06-1.61,3.32.15,1.44,1.53,2.38,2.78,3.11,7.46,4.38,14.92,8.76,22.08,13.61,20.71,14.03,38.58,31.79,56.31,49.43l86.85,86.4c10.44,10.39,21.07,20.92,34,28,10.61,5.81,23.12,9.05,34.93,7.28-15.3-7.05-29.53-16.56-41.49-27.62Z"/><path class="cls-18" d="m730.86,1449.03c-36.51-35.65-71.57-72.03-105.92-109.07-27.07-29.2-69.79-90.29-95.46-120.73-12.42-14.73-29.92-34.85-42.34-23.58-31.4,28.49-80.43,59.22-111.83,87.71-1.09.99-2.25,2.1-2.44,3.56-.22,1.65.86,3.15,1.88,4.46,61.18,78.68,128.7,152.42,201.68,220.28,14.12,13.13,28.75,26.24,46.31,34.2,2.07.94,4.32,1.82,6.56,1.45,3.15-.52,5.35-3.28,7.27-5.83,26.6-35.28,58.5-66.56,94.29-92.48Zm-238.51-207.92c-4.01-1.43-7.54-3.87-9.5-7.78-2.08-4.13-2.3-9.07.04-13.16,1.62-2.83,4.48-4.93,7.64-5.93.73-.42,1.5-.74,2.33-.88,5.05-.85,9.83.68,13.32,4.49,2.69,2.93,4.19,6.93,4.04,10.91-.34,9.08-9.16,15.47-17.87,12.35Z"/><path class="cls-18" d="m630.65,1548.67c-27.01-10.8-48.82-31.26-69.84-51.36-63.99-61.2-127.39-123.68-179.93-194.97-3.99-5.41-8.12-11.71-6.91-18.33,9.07,9.34,16.24,20.31,24,30.76,12.91,17.36,27.54,33.36,42.34,49.14,60.6,64.61,124.42,126.19,190.34,184.77Z"/><path class="cls-18" d="m587.48,1296.62c11.66,11.78,22.79,24.07,33.36,36.83-66.91-.03-133.81-.07-200.72-.1-2.2,0-4.48-.02-6.51-.88-2.19-.93-3.85-2.75-5.44-4.52-6.56-7.3-13.13-14.6-19.69-21.9,67.25-1.14,134.49-2.88,198.99-9.43Z"/><path class="cls-18" d="m639.78,1354.6c-68.67,2.14-137.33,4.27-206,6.41,2.07,7.55,11.79,9.34,19.61,9.71,19.65.93,39.33,1.87,58.99,1.22,17.5-.57,34.94-2.4,52.43-3.27,29.71-1.47,59.47-.19,89.19,1.1-5.64-5.22-11.27-10.43-14.22-15.18Z"/><path class="cls-18" d="m700.52,1418.92c-67.16-1.77-134.28,3.54-201.26,8.84,6.66,7.71,13.89,14.92,21.62,21.56,2.13,1.83,4.37,3.66,7.05,4.52,2.43.78,5.03.71,7.58.62,63.35-2.11,126.64-5.69,189.82-10.75-8.89-8.49-17.77-16.99-24.81-24.79Z"/><path class="cls-18" d="m730.68,1494.94c4.57-4.57,11.97-4.56,16.53,0,4.57,4.57,4.57,11.97,0,16.53-4.56,4.56-11.96,4.57-16.53,0s-4.56-11.97,0-16.53Z"/><path class="cls-18" d="m869.53,1626.24c4.57-4.57,11.97-4.56,16.53,0,4.57,4.57,4.57,11.97,0,16.53-4.56,4.56-11.97,4.57-16.53,0-4.56-4.56-4.56-11.97,0-16.53Z"/><path class="cls-18" d="m798.22,1562.48c4.57-4.57,11.97-4.56,16.53,0s4.57,11.97,0,16.53-11.97,4.57-16.53,0-4.56-11.97,0-16.53Z"/><path class="cls-18" d="m920.18,1662.71c5.25-4.08,10.1-9.59,10.53-16.22.59-9.04-6.94-16.32-13.84-22.19-17.78-15.13-35.56-30.25-53.34-45.38-1.34-1.14-2.78-2.33-4.53-2.6-1.74-.26-3.82.83-3.92,2.59,11.71,14.01,24.91,26.78,39.3,38.01,5.84,4.56,11.96,8.94,16.55,14.75,4.6,5.81,7.55,13.43,5.95,20.66-.44,1.96-1.2,3.87-1.34,5.88-.14,2.01.51,4.25,2.24,5.27s4.52,0,2.38-.78Z"/><path class="cls-18" d="m841.52,1557.61c-13.17-12.53-26.51-24.9-39.99-37.09-.73-.66-1.71-1.36-2.6-.95-1.21.56-.82,2.37-.2,3.55,4.9,9.27,12.39,16.86,19.78,24.31,6.37,6.42,13.06,13.05,21.62,15.99,1.91.65,4.89.41,4.9-1.61,0-.59-.3-1.14-.63-1.63-.97-1.46-2.22-2.73-2.87-2.56Z"/></g><g class="cls-21"><path class="cls-9" d="m1133.03,2162.34c25.39,15.72,52.43,29.1,81.48,36.45,1.58.5,3.41.93,5.14.88.39.3.82.52,1.28.67.35.47.72.93,1.03,1.43.15.26.3.53.45.79.07.08.11.13.18.2-.01.07.19.44.79,1.34.16.29.33.59.51.89.74,1.25,19.1,29.12,25.12,39.04,12.65,20.86,41.48,72.89,50.73,83.39,3.07,3.48,9.12-.44,7.24-4.72-6.09-13.84-20.05-39.97-38.81-69.68-8.94-14.16-30.2-49.29-32.4-55.11-.62-1.65-1.44-3.05-1.7-3.23-.41-.75-.83-1.51-1.28-2.24,31.54-62.62,22.45-180.96-12.59-238.88-16.88-28.61-43.61-50.69-73.61-64.52-24.76-9.58-53.24-9.23-78.03.08-19.31,8.1-34.69,23.81-46.47,40.79-17.79,29.28-21.95,66.87-11.24,99.4,19.6,59.59,71.4,100.12,122.19,133.04Zm-78.57-245.85c25.03-20.57,84.63,18.01,107.66,48.05,34.66,42.37,52.06,92.77,58.42,144.78,2.91,19.05,2,46.53.6,61.16-.2,2.6-.47,5.2-.74,7.8-.54-.34-1.07-.69-1.55-1.07-10.4-6.57-22.65-15.83-35.95-25.07-30.6-21.76-60.17-45.56-85.92-72.97-10.84-11.38-24.16-35.28-30.66-52.42-14.95-36.26-31.99-94.01-11.87-110.25Zm86.64-17.21c29.33,12.67,46.81,27.24,63.61,52.52,23.83,35.65,31.72,74.63,35.5,118.13,2.21,32.26.45,57.72-6.28,88.94-1.22,4.68-2.29,8.62-3.43,12.28,3.1-36.1-.57-72.85-8.22-108.12-12.09-47.19-35.04-93.71-70.3-127.85-17.23-15.71-45.89-34.63-72.41-36.86,21.63-6.03,44.04-4.99,61.54.97Zm-103.02,153.3c-10.93-19.99-21.47-42.41-21.4-66.77.09-16.02,3.86-31,12.18-46.47,1.25-2.25,3.11-4.89,5.32-7.68-1.2,7.88-.86,16.2.18,23.87,2.53,18.8,6.56,37.48,13.04,55.33,8.19,23.68,18.04,47.25,32.85,67.62,21.92,28.06,49.1,51.99,77.83,72.87,15.3,10.99,31.5,20.62,47.25,30.93.47.3.96.62,1.44.93-15.45-5.71-33.8-13.02-48.63-21.91-28.61-16.25-51.07-32.56-76.75-56.81-18.44-17.35-29.42-29.19-43.33-51.92Z"/><path class="cls-9" d="m1424.41,2607.49c12.48,6.23,29,2.84,38.02-7.79,12.12-14.29,9.12-36.28.65-53.01-8.46-16.72-20.44-31.5-28.62-45.36-34.12-57.84-68.24-115.67-102.36-173.51-1.98-3.35-4.02-6.78-7.07-9.2-9.98-7.9-24.49-1.55-35.44,4.93-4.22,2.49-8.82,5.51-9.87,10.3-.86,3.93.97,7.89,2.75,11.5,33.51,67.85,67.03,135.7,100.54,203.56,7.01,14.19,14.06,28.45,23.25,41.34,4.9,6.86,10.6,13.48,18.14,17.25Zm-3.45-20.38c-1.14-2.11-2.23-4.41-2.67-6.77-.83-4.5-1.09-9.14.54-13.51,1.16-3.1,2.4-5.66,4.7-8.11,2.18-2.33,4.93-3.64,7.87-4.7.94-.34,1.91-.55,2.89-.71,1.51-.24,3.08-.49,4.62-.47,3.11.02,5.94.73,8.74,2.01,2.68,1.22,4.84,3.4,6.41,5.86.1.15.16.33.25.48,0,0,.01,0,.01.01,3.82,3.89,5.84,9.27,5.93,14.68.03,1.54-.26,3.12-.49,4.63-.09.55-.18,1.09-.37,1.62-.68,1.95-1.45,4.03-2.65,5.75-1.12,1.61-2.32,3.32-3.79,4.66-1.43,1.31-3.01,2.6-4.73,3.51-1.28.68-2.67,1.2-4.02,1.68-.4.14-.81.27-1.23.35-2.97.6-5.21.54-8.16.05-1.78-.3-3.52-1.03-5.09-1.89-.46-.25-.9-.54-1.33-.84-1.12-.8-2.32-1.63-3.3-2.62-1.63-1.65-3.03-3.65-4.13-5.69Z"/><path class="cls-9" d="m1424.41,2607.49c.32.16.65.28.97.43-1.93-2.78-3.68-5.7-5.4-8.33-8.29-12.65-14.09-26.68-20.01-40.53-10.73-25.11-20.99-50.34-32.47-75.12-5.38-11.61-11.89-22.11-18.46-33.06-3.73-6.21-7.39-12.46-10.83-18.84-2.95-5.49-5.42-11.33-8.81-16.56-7.1-10.95-13.28-22.31-18.82-34.11-4.59-9.79-11.21-19.26-13.48-29.97-2.48-11.69-.4-24.8,8.53-33.24.93-.87,1.92-1.74,2.92-2.61-6.52,1.3-13.22,4.63-18.95,8.02-4.22,2.49-8.82,5.51-9.87,10.3-.86,3.93.97,7.89,2.75,11.5,33.51,67.85,67.03,135.7,100.54,203.56,7.01,14.19,14.06,28.45,23.25,41.34,4.9,6.86,10.6,13.48,18.14,17.25Z"/><path class="cls-9" d="m1446.47,2537.04c-23.18-39.39-46.35-78.77-69.53-118.16-6.17-10.49-12.35-20.98-19.15-31.07-4.58-6.78-9.53-13.48-16.05-18.43,2.75,8.92,7.31,17.17,11.83,25.34,11.59,20.91,23.18,41.83,34.77,62.74,9.74,17.57,19.48,35.15,30.18,52.15,7.77,12.35,16.22,24.57,27.58,33.73,1.56-3.38,1.46-7.48.38-6.3Z"/><path class="cls-9" d="m1302.84,2384.04c2.16-3.08,4.45-6.18,7.26-8.73,2.75-2.5,5.91-4.47,8.98-6.54,9.16-6.16,19.42-10.06,30.17-11.88l-17.15-29.07c-1.98-3.35-4.02-6.78-7.07-9.2-9.98-7.9-24.49-1.55-35.44,4.93-4.22,2.49-8.82,5.51-9.87,10.3-.86,3.93.97,7.89,2.75,11.5l19.63,39.75c.25-.35.49-.71.74-1.06Z"/><path class="cls-9" d="m1308.41,2377.03c-4.3-8.29-9.39-16.52-11.32-25.64-2.48-11.69-.4-24.8,8.53-33.24.93-.87,1.92-1.74,2.92-2.61-6.52,1.3-13.22,4.63-18.95,8.02-4.22,2.49-8.82,5.51-9.87,10.3-.86,3.93,1.69,9.25,3.47,12.86,6.34,12.83,12.67,25.66,19.01,38.49,2.2-2.37,3.9-5.91,6.21-8.16Z"/><path class="cls-9" d="m1231.11,2190.19c7.85-19.12,14.64-38.91,17.71-59.41,3.01-27.61,1.43-55.57.25-83.26-.03-1.84-2.56-2.77-3.76-1.33-1.04,1.24-.28,2.95-.29,4.4.92,29.85,4.26,59.84-.96,88.47-3.57,17.66-8.54,33.78-15.29,49.95-.77,1.46,1.6,2.73,2.35,1.17Z"/><path class="cls-9" d="m1137.41,2132.91c1.39,1.29,3.46-.93,1.99-2.22-23.92-24.58-47.24-46.71-64.51-75.43-1.89-1.49-4.88.25-4.68,2.62.5,2.41,2.61,4.23,3.75,6.39,10.58,16.9,24.87,31.03,38.66,45.29,7.9,8.17,16.31,15.78,24.78,23.34Z"/><path class="cls-9" d="m1057.6,2098.43c1.37.32,2.55-1.34,1.74-2.53-17.41-23.89-37.26-45.87-43.51-73.83-.6-2.05-3.19-2.96-4.96-1.79-3.26,2.34-.2,6.61.37,9.64,2.62,8.31,6.66,16.07,11.5,23.29,8.61,13.95,18.88,26.78,29.45,39.28,1.21,1.01,2.99,4.39,5.42,5.94Z"/><path class="cls-9" d="m1125.88,1925.92c9.34,5.9,21.52,15.49,31.25,25.27,5,5.14,7.67,8.86,12.21,14.26,1.47,1.13,3.53-.86,2.47-2.39-8.67-12.75-18.81-24.22-30.65-34.13-3.73-3.33-7.68-6.4-11.87-9.14-1.46-.92-3.01-2.25-4.85-1.58-4.43,1.94-2.2,6.35,1.42,7.71Z"/><path class="cls-9" d="m1192.11,1927.46c2.29,2.13,5.59-1.53,3.24-3.59-6.58-6.1-13.58-11.74-20.7-17.2-2.13-2.05-5.8.34-4.84,3.12,6.26,6.93,15.41,11.22,22.3,17.67Z"/></g><g class="cls-21"><path class="cls-9" d="m25.86,2600.24c4.34-4.81,5.17-12.04,3.52-18.3-1.65-6.26-5.43-11.73-9.49-16.78-4.05-5.05-8.47-9.87-11.7-15.48-.92-1.6-1.73-3.63-.75-5.19.41-.65,1.06-1.1,1.73-1.47,5.58-3.12,12.81-2.2,18.26,1.14,5.46,3.34,9.34,8.76,12.18,14.49,5.06,10.22,7.01,22.96,1.25,32.81-3.14,5.37-9.23,9.64-15.01,8.77Z"/><path class="cls-9" d="m3.41,2607.49c12.48,6.23,29,2.84,38.02-7.79,12.12-14.29,9.12-36.28.65-53.01-8.46-16.72-20.44-31.5-28.62-45.36-34.12-57.84-68.24-115.67-102.36-173.51-1.98-3.35-4.02-6.78-7.07-9.2-9.98-7.9-24.49-1.55-35.44,4.93-4.22,2.49-8.82,5.51-9.87,10.3-.86,3.93.97,7.89,2.75,11.5,33.51,67.85,67.03,135.7,100.54,203.56,7.01,14.19,14.06,28.45,23.25,41.34,4.9,6.86,10.6,13.48,18.14,17.25Zm-3.45-20.38c-1.14-2.11-2.23-4.41-2.67-6.77-.83-4.5-1.09-9.14.54-13.51,1.16-3.1,2.4-5.66,4.7-8.11,2.18-2.33,4.93-3.64,7.87-4.7.94-.34,1.91-.55,2.89-.71,1.51-.24,3.08-.49,4.62-.47,3.11.02,5.94.73,8.74,2.01,2.68,1.22,4.84,3.4,6.41,5.86.1.15.16.33.25.48,0,0,.01,0,.01.01,3.82,3.89,5.84,9.27,5.93,14.68.03,1.54-.26,3.12-.49,4.63-.09.55-.18,1.09-.37,1.62-.68,1.95-1.45,4.03-2.65,5.75-1.12,1.61-2.32,3.32-3.79,4.66-1.43,1.31-3.01,2.6-4.73,3.51-1.28.68-2.67,1.2-4.02,1.68-.4.14-.81.27-1.23.35-2.97.6-5.21.54-8.16.05-1.78-.3-3.52-1.03-5.09-1.89-.46-.25-.9-.54-1.33-.84-1.12-.8-2.32-1.63-3.3-2.62-1.63-1.65-3.03-3.65-4.13-5.69Z"/><path class="cls-9" d="m3.41,2607.49c.32.16.65.28.97.43-1.93-2.78-3.68-5.7-5.4-8.33-8.29-12.65-14.09-26.68-20.01-40.53-10.73-25.11-20.99-50.34-32.47-75.12-5.38-11.61-11.89-22.11-18.46-33.06-3.73-6.21-7.39-12.46-10.83-18.84-2.95-5.49-5.42-11.33-8.81-16.56-7.1-10.95-13.28-22.31-18.82-34.11-4.59-9.79-11.21-19.26-13.48-29.97-2.48-11.69-.4-24.8,8.53-33.24.93-.87,1.92-1.74,2.92-2.61-6.52,1.3-13.22,4.63-18.95,8.02-4.22,2.49-8.82,5.51-9.87,10.3-.86,3.93.97,7.89,2.75,11.5,33.51,67.85,67.03,135.7,100.54,203.56,7.01,14.19,14.06,28.45,23.25,41.34,4.9,6.86,10.6,13.48,18.14,17.25Z"/><path class="cls-9" d="m25.47,2537.04c-23.18-39.39-46.35-78.77-69.53-118.16-6.17-10.49-12.35-20.98-19.15-31.07-4.58-6.78-9.53-13.48-16.05-18.43,2.75,8.92,7.31,17.17,11.83,25.34,11.59,20.91,23.18,41.83,34.77,62.74,9.74,17.57,19.48,35.15,30.18,52.15,7.77,12.35,16.22,24.57,27.58,33.73,1.56-3.38,1.46-7.48.38-6.3Z"/></g><g class="cls-21"><path class="cls-2" d="m531.27,1786.55c-6.06-49.15-46.53-88.56-92.22-107.66-45.69-19.1-96.35-21.59-145.82-23.83-52.29-2.37-104.58-4.73-156.87-7.1-36.32-1.64-76.89-1.82-103.57,22.88-17.87,16.55-25.61,41.03-32.64,64.34-17.53,58.12-32.27,124.61-49.81,182.72-7.21,23.88-17.06,41.99-6.53,64.6,5.17,11.09,14.07,19.92,22.79,28.5,27.87,27.39,60.53,56.63,99.57,55.06,2.11-.08,4.33-.31,6.03-1.55,2.45-1.8,3.07-5.14,3.49-8.15,2.07-14.5,4.14-29,6.21-43.5,4.47-31.33,9.11-63.2,22.68-91.78,20.84-43.89,61.33-76.11,105.72-95.84,44.4-19.73,92.87-28.22,140.96-35.12,57.11-8.19,115.15-14.37,179.99-3.57Z"/><path class="cls-2" d="m69.81,2057.81c10.27-90.35,31.47-179.06,52.62-267.5,3.28-13.72,6.68-27.72,14.28-39.61,11.73-18.33,32.34-29.5,53.54-34.41,21.2-4.91,43.23-4.28,64.98-3.62,50.19,1.52,100.38,3.03,150.57,4.55,21.21.64,42.46,1.29,63.47,4.25,15.17,2.13,30.62,5.66,43.21,14.4,28.87,20.04,34.15,60.16,34.02,95.31-.3,78.32-14.47,156.56-41.65,230-1.56,4.2-3.22,8.51-6.25,11.81-5.72,6.25-14.9,7.62-23.33,8.52-125.75,13.36-252.9,3.63-378.21-13.45-10.3-1.4-21.73-3.52-27.25-10.25Z"/><path class="cls-2" d="m411.61,1704.86c-69.4-3.14-138.79-6.28-208.19-9.41-4.12-.19-8.45-.43-11.96-2.61-3.5-2.19-5.73-7-3.67-10.58,13.1-4.21,27.14-4.12,40.9-3.84,28.01.56,56.01,1.7,84,2.84,32.84,1.33,66.48,2.84,96.86,15.38,3.67,1.52,7.92,4.25,7.41,8.19-2.32.99-4.64,1.98-5.34.04Z"/><path class="cls-2" d="m395.5,1676.42c-70.72-7.51-141.67-12.92-212.71-16.22-5.78-.27-13-1.63-14.42-7.23,15.31-1.23,30.7-1.09,46.06-.96,54.45.47,109.25.97,162.73,11.23,8.7,1.67,18.36,4.29,22.75,11.99-2.46.69-4.91,1.39-4.43,1.2Z"/><path class="cls-2" d="m33.28,1755.68c-16.46,64.25-32.91,128.5-49.37,192.76-3.02,11.79-6.06,24.03-3.91,36.01,2.15,11.99,11.01,23.68,23.11,25,20.27-71.13,40.54-142.26,60.81-213.39,2.56-8.99,5.15-18.25,4.22-27.55-.93-9.31-6.2-18.8-15.01-21.92-8.81-3.12-18.31,3.09-19.85,9.08Z"/><path class="cls-2" d="m-9.75,1815.71c-4.77,13.45-8.65,27.22-11.6,41.19-.87,4.13-1.66,8.47-.5,12.53,1.71,6,7.21,10.01,12.42,13.45,17.69,11.67,36.15,22.16,55.23,31.37,2.24,1.08,4.83,2.16,7.13,1.2,1.72-.72,2.8-2.41,3.74-4.03,9.17-15.76,15.68-33.07,19.15-50.97.66-3.4,1.21-6.93.37-10.29-1.01-4-3.87-7.27-6.93-10.03-8.98-8.07-20.27-13.01-31.35-17.81-9.3-4.04-18.6-8.07-27.89-12.11-3.87-1.68-8.16-3.39-12.2-2.17-5.64,1.7-8.13,8.13-7.55,7.68Z"/><path class="cls-2" d="m60.66,1841.65c-5.3,18.95-10.59,37.89-15.89,56.83-.61,2.2-1.29,4.5-2.89,6.12-1.6,1.63-4.45,2.26-6.16.75-1.89-1.68-1.35-4.71-.65-7.15,4.72-16.47,9.44-32.94,14.15-49.4,1.35-4.7,2.81-9.61,6.26-13.07.86-.86,2.23-1.64,3.21-.93,1.09,4.15,1.15,8.57,1.97,6.84Z"/><path class="cls-2" d="m232.65,1736.39c-.9-7.27-2.18-18.72-7.08-24.17-1.16-1.29-19.13.44-19.94,1.39,17.34,116.85,34.87,234.99,52.21,351.84.33,2.23.75,4.63,2.36,6.2,1.5,1.47,3.7,1.89,5.77,2.24,6.49,1.11,12.97,2.21,19.46,3.32-19.35-113.33-38.7-226.71-52.79-340.81Z"/><path class="cls-2" d="m272.87,1713.1c24.74,121.35,46.33,243.33,64.73,365.8.34,2.26.79,4.72,2.52,6.2,1.43,1.21,3.41,1.48,5.27,1.71,20.91,2.47,41.83,4.94,62.74,7.41,1.7.2,3.61.34,4.92-.75,1.43-1.19,1.53-3.31,1.49-5.17-.32-13.54-2.37-26.98-4.42-40.37-16.53-108.21-33.07-216.46-54.27-323.86-.5-2.51-1.14-5.26-3.22-6.76-1.59-1.15-3.67-1.28-5.63-1.38-25.8-1.27-51.6-2.55-74.14-2.82Z"/><path class="cls-2" d="m481.78,1730.35c-.65-2.32-1.35-4.69-2.15-7.03-2.08-.55-4.19-1.01-6.29-1.46-2.5-.53-5.02-1.03-7.54-1.49-1.08-.2-2.16-.38-3.24-.56-.72-.11-1.44-.22-2.17-.32,1.02.13.76.1-.8-.11-.75-.1-1.19-.16-1.34-.18-.56-.07-1.11-.14-1.67-.2-1.09-.12-2.19-.24-3.29-.35-2.56-.25-5.12-.45-7.69-.57-1.96-.09-3.93-.07-5.9-.03,25.66,89.85,51.33,179.7,76.99,269.55,2.38,8.33,2.92,12.03,5.84,20.17,5.28-24.65,11.34-46.97,15.43-74.96-19.13-69.41-36.73-133.15-56.18-202.46Z"/><path class="cls-2" d="m506.5,2051.97c1.58,5.68-2.43,11.72-7.66,14.45-5.23,2.73-11.36,2.94-17.26,3.08-115.21,2.75-230.54.36-345.53-7.16-28.08-1.84-56.82-4.15-82.42-15.83-22.52-10.27-41.24-27.18-59.57-43.82-11.02-10.01-22.05-20.02-33.07-30.03-10.2-9.26-21.37-22.67-15.56-35.16-5.05-4.66-13.67-2.9-18.59,1.9-4.92,4.8-7.07,11.69-9.05,18.27-6.92,23.06-13.58,49.09-2.01,70.21,5.09,9.29,13.21,16.48,21.21,23.42,43.73,37.93,90.95,75.37,147.31,88.62,26.31,6.18,53.56,6.8,80.58,7.38,106.08,2.3,212.16,4.6,318.23,6.89,4.63.1,9.58.11,13.44-2.45,2.93-1.95,4.78-5.11,6.44-8.2,10.7-19.98,17.49-42.04,19.88-64.57.67-6.35.93-13.11-2.06-18.76-2.99-5.64-10.31-9.46-14.32-8.25Z"/><path class="cls-2" d="m517.1,2067.7c-.02-.2-.05-.4-.12-.56-.23-.58.08-.13-.58-1.03-.26-.36-.59-.66-.92-.96-1.45-.05-2.91-.4-4.28-1.15-1.39-.76-2.9-1.18-4.45-1.46-1.05-.03-2.11,0-3.17.06-1.33,1.55-2.94,2.89-4.73,3.82-3.67,1.91-7.78,2.58-11.94,2.86,7.59,1.88,16.03,3.24,23.03,2.25,2.83-.4,5.5-1.25,6.74-2.74.59-.71-.49.45.43-.79-.47.64-.21-.07,0-.31Z"/><path class="cls-2" d="m-44.53,1970c13.11,18.87,30.56,35.14,49.95,47.43,5.27,3.34,10.74,6.38,16.33,9.15-9.59-7.48-18.69-15.71-27.69-23.88-11.02-10.01-22.05-20.02-33.07-30.03-10.2-9.26-21.37-22.67-15.56-35.16-2.26-2.09-5.25-2.83-8.29-2.64,4.54,12.63,10.67,24.13,18.33,35.14Z"/><path class="cls-2" d="m410.29,2135.47c-64.54,3.88-128.93,4.69-193.57,3.85-32.31-.42-64.6-1.13-96.89-2.39-16.3-.64-32.6-1.33-48.88-2.28-1.96-.11-3.93-.21-5.92-.3,6.31,2.15,12.72,4.05,19.27,5.59,26.31,6.18,53.56,6.8,80.58,7.38,106.08,2.3,212.16,4.6,318.23,6.89,4.63.1,9.58.11,13.44-2.45,2.93-1.95,4.78-5.11,6.44-8.2,2.57-4.79,4.88-9.71,6.99-14.72-33.21,2.47-66.45,4.64-99.7,6.64Z"/><path class="cls-2" d="m62.76,2060.72c-2.97,15.79-5.95,31.58-8.92,47.37-.77,4.08-1.52,8.39-.1,12.28.87,2.37,2.48,4.4,4.29,6.16,4.49,4.37,10.32,7.35,16.5,8.4.94.16,1.96.27,2.82-.16,1.22-.61,1.71-2.07,2.06-3.38,3.4-12.51,5.82-25.29,7.23-38.17.97-8.91,1.41-18.21-1.92-26.53-2.02-5.05-5.79-9.81-11.05-11.17-5.26-1.37-10.3,1.97-10.91,5.2Z"/><path class="cls-2" d="m509.02,2082.82c-58.19,10.39-117.58,14.04-176.61,10.86-7.59-.41-16.21-1.47-20.65-7.64,13.12-8.31,29.76-7.73,45.27-7.15,45.03,1.7,90.15,1.17,135.13-1.6,7.03-.43,15.14-.51,19.81,4.77-1.57,1.84-3.14,3.69-2.95.75Z"/><path class="cls-2" d="m38.02,1674.32c6.89-10.86,22-13.96,34.42-10.63,12.42,3.33,22.79,11.67,32.75,19.8,11.13,9.08,22.26,18.16,33.39,27.25,4.76,3.89,10.05,9.33,8.28,15.22-.82,2.71-3.01,4.74-5.12,6.62-4.09,3.64-8.23,7.2-12.43,10.71-1.04.87-2.14,1.76-3.47,1.99-1.53.27-3.06-.4-4.46-1.09-14.53-7.24-25.97-19.27-37.83-30.34-12.23-11.42-25.2-22.05-38.8-31.8-3.41-2.45-7.92-5.85-6.73-7.72Z"/></g><g class="cls-21"><path class="cls-2" d="m1950.27,1786.55c-6.06-49.15-46.53-88.56-92.22-107.66-45.69-19.1-96.35-21.59-145.82-23.83-52.29-2.37-104.58-4.73-156.87-7.1-36.32-1.64-76.89-1.82-103.57,22.88-17.87,16.55-25.61,41.03-32.64,64.34-17.53,58.12-32.27,124.61-49.81,182.72-7.21,23.88-17.06,41.99-6.53,64.6,5.17,11.09,14.07,19.92,22.79,28.5,27.87,27.39,60.53,56.63,99.57,55.06,2.11-.08,4.33-.31,6.03-1.55,2.45-1.8,3.07-5.14,3.49-8.15,2.07-14.5,4.14-29,6.21-43.5,4.47-31.33,9.11-63.2,22.68-91.78,20.84-43.89,61.33-76.11,105.72-95.84,44.4-19.73,92.87-28.22,140.96-35.12,57.11-8.19,115.15-14.37,179.99-3.57Z"/><path class="cls-2" d="m1452.28,1755.68c-16.46,64.25-32.91,128.5-49.37,192.76-3.02,11.79-6.06,24.03-3.91,36.01,2.15,11.99,11.01,23.68,23.11,25,20.27-71.13,40.54-142.26,60.81-213.39,2.56-8.99,5.15-18.25,4.22-27.55-.93-9.31-6.2-18.8-15.01-21.92-8.81-3.12-18.31,3.09-19.85,9.08Z"/><path class="cls-2" d="m1409.25,1815.71c-4.77,13.45-8.65,27.22-11.6,41.19-.87,4.13-1.66,8.47-.5,12.53,1.71,6,7.21,10.01,12.42,13.45,17.69,11.67,36.15,22.16,55.23,31.37,2.24,1.08,4.83,2.16,7.13,1.2,1.72-.72,2.8-2.41,3.74-4.03,9.17-15.76,15.68-33.07,19.15-50.97.66-3.4,1.21-6.93.37-10.29-1.01-4-3.87-7.27-6.93-10.03-8.98-8.07-20.27-13.01-31.35-17.81-9.3-4.04-18.6-8.07-27.89-12.11-3.87-1.68-8.16-3.39-12.2-2.17-5.64,1.7-8.13,8.13-7.55,7.68Z"/><path class="cls-2" d="m1925.5,2051.97c1.58,5.68-2.43,11.72-7.66,14.45-5.23,2.73-11.36,2.94-17.26,3.08-115.21,2.75-230.54.36-345.53-7.16-28.08-1.84-56.82-4.15-82.42-15.83-22.52-10.27-41.24-27.18-59.57-43.82-11.02-10.01-22.05-20.02-33.07-30.03-10.2-9.26-21.37-22.67-15.56-35.16-5.05-4.66-13.67-2.9-18.59,1.9-4.92,4.8-7.07,11.69-9.05,18.27-6.92,23.06-13.58,49.09-2.01,70.21,5.09,9.29,13.21,16.48,21.21,23.42,43.73,37.93,90.95,75.37,147.31,88.62,26.31,6.18,53.56,6.8,80.58,7.38,106.08,2.3,212.16,4.6,318.23,6.89,4.63.1,9.58.11,13.44-2.45,2.93-1.95,4.78-5.11,6.44-8.2,10.7-19.98,17.49-42.04,19.88-64.57.67-6.35.93-13.11-2.06-18.76-2.99-5.64-10.31-9.46-14.32-8.25Z"/><path class="cls-2" d="m1374.47,1970c13.11,18.87,30.56,35.14,49.95,47.43,5.27,3.34,10.74,6.38,16.33,9.15-9.59-7.48-18.69-15.71-27.69-23.88-11.02-10.01-22.05-20.02-33.07-30.03-10.2-9.26-21.37-22.67-15.56-35.16-2.26-2.09-5.25-2.83-8.29-2.64,4.54,12.63,10.67,24.13,18.33,35.14Z"/><path class="cls-2" d="m1404.92,2089.75c-20.96-18.07-39.75-38.56-55.63-61.24-7.71-11.02-14.32-22.84-20.45-34.81-1.06,11.97.18,23.69,5.94,34.2,5.09,9.29,13.21,16.48,21.21,23.42,19.18,16.64,39.05,33.14,60.05,47.57-3.77-2.98-7.49-6.01-11.13-9.14Z"/><path class="cls-2" d="m1353.38,1941.34c.95,13.25,7.99,25.94,18.73,33.76,2.07,1.51,4.35,2.92,5.65,5.14,1.29,2.22,1.13,5.55-1.09,6.84-1.1.63-2.45.64-3.71.44-7.09-1.15-11.7-7.9-15.22-14.16-3.23-5.74-6.26-11.58-9.1-17.52-1.59-3.32-3.14-7.03-2.13-10.57,1.01-3.53,6.72-6.11,6.87-3.92Z"/></g><g class="cls-21"><path class="cls-8" d="m134.67,523.67c-5.29-6.06-11.63-11.21-18.65-15.15-5.07-2.84-10.59-5.08-16.38-5.55-4.69-.38-9.4.43-13.92,1.73-19.06,5.48-34.75,19.76-45.14,36.66-10.39,16.9-15.96,36.32-19.8,55.78-4.55,23.06-6.84,46.77-4.03,70.11.82,6.86,2.09,13.66,3.47,20.44,3.67,18,8.9,37.05,22.84,49.02.67.58,1.44,1.16,2.32,1.18,1.69.02,2.63-1.91,3.14-3.52,1.67-5.23,3.27-10.49,4.8-15.76,1.36-4.7,2.68-9.54,2.19-14.4-.41-4.12-2.09-7.98-3.53-11.86-11.3-30.32-8.82-64.37.39-95.39,2.74-9.23,6.05-18.27,9.36-27.31,4.58-12.52,9.85-25.91,21.06-33.11,10.53-6.76,25.27-6.19,35.24,1.38,1.57,1.19,3.31,2.62,5.26,2.3,1.5-.24,2.62-1.47,3.55-2.68,3.39-4.41,5.87-9.52,7.81-13.85Z"/><path class="cls-8" d="m48.53,734.35c1.67-5.23,3.27-10.49,4.8-15.76,1.36-4.7,2.68-9.54,2.19-14.4-.41-4.12-2.09-7.98-3.53-11.86-11.3-30.32-8.82-64.37.39-95.39,2.74-9.23,6.05-18.27,9.36-27.31,4.58-12.52,9.85-25.91,21.06-33.11,10.53-6.76,25.27-6.19,35.24,1.38,1.57,1.19,3.31,2.62,5.26,2.3,1.5-.24,2.62-1.47,3.55-2.68,3.39-4.41,5.87-9.52,7.81-13.85-2.19-2.52-4.58-4.87-7.11-7.05-.19.11-.38.23-.58.33-15.62,7.43-34.14,3.72-49.31,12.25-32.2,18.09-35.27,59.02-36.63,91.9-1.56,37.74-1.73,75.47-.53,113.22.82.82,1.67,1.62,2.56,2.38.67.58,1.44,1.16,2.32,1.18,1.69.02,2.63-1.91,3.14-3.52Z"/><path class="cls-8" d="m95.4,506.75c-10.56.46-20.63,5.15-28.92,11.72-8.29,6.57-14.95,14.95-21,23.62-4.61,6.61-9.01,15.3-5.02,22.3,10.65-9.71,14.09-25.26,23.96-35.76,6.68-7.11,16.18-11.48,25.92-11.94,5.3-.25,11.15.46,15.4-2.72.45-.34.89-.74,1.04-1.29.27-1.04-.63-1.99-1.49-2.63-3.69-2.71-8.08-3.38-9.88-3.31Z"/><path class="cls-8" d="m24.59,603.39c-.81,14.86-1.63,29.72-2.44,44.57-.27,4.89-.53,9.81-.08,14.69.53,5.73,2.07,11.36,4.52,16.57,2.72-2.5,3.7-6.33,4.43-9.95,4.26-21.14,4.32-43.11.18-64.27-.56-2.86-1.31-5.91-3.5-7.82-2.3,2.7-3.37,6.41-3.11,6.21Z"/><path class="cls-8" d="m341.54,638.43c4.19-2.27,5.13-8.22,3.27-12.61-1.86-4.39-5.74-7.54-9.53-10.43-42.76-32.64-92.11-55.49-136.8-85.44-14.72-9.87-29.03-20.55-45.08-28.07-4.35-2.04-9.7-3.77-13.71-1.13-1.43.94-2.49,2.33-3.52,3.7-6.53,8.65-13.06,17.31-18.76,26.52-9.56,15.45-16.68,32.28-23.66,49.06-24.64,59.24-48.37,119.75-56.43,183.4-.61,4.82-1.09,9.93.92,14.36,1.69,3.71,4.91,6.46,8.03,9.08,19.54,16.39,39.4,33,62.68,43.42,6.51,2.91,13.55,5.36,20.63,4.52,4.9-.58,9.48-2.71,13.88-4.94,34.62-17.52,64.43-43.04,93.88-68.3,19.28-16.54,38.71-33.24,54.14-53.42,3.43-4.49,6.71-9.2,11.07-12.8,6.06-5,13.74-7.49,21.07-10.34,12.42-4.83,24.33-10.97,35.47-18.28,3.41-2.24,7.17-5.51,6.49-9.54-.5-2.98-3.27-4.95-5.8-6.59-6.45-4.16-12.89-8.33-18.23-12.18Z"/><path class="cls-8" d="m297.5,700.66c11.95-15.03,25.68-31.1,37.62-46.12.69-.87,2.35-1.58,2.6-.49.07.32-.07.65-.21.95-3.34,7.15-6.68,14.3-10.02,21.45-1.22,2.62-2.48,5.29-4.5,7.36-2.83,2.91-6.82,4.3-10.46,6.07-5.51,2.67-12.3,7.43-15.04,10.79Z"/><path class="cls-8" d="m140.93,561.92c-35.96,61.72-70.48,127.46-74.13,198.8-.13,2.44-.19,4.99.88,7.19,1.07,2.2,3.65,3.85,5.96,3.04,2.33-.82,3.27-3.55,3.91-5.93,7.13-26.47,16.53-62.32,26.26-87.95,19.16-50.47,52.63-100.81,61.56-139.67,3.08-13.41-20.2,17.25-24.43,24.52Z"/><path class="cls-8" d="m193.84,568.9c-43.46,65.48-87.83,133.12-103.4,210.15-.63,3.14-1.02,6.93,1.39,9.04,4.46-1.99,6.63-6.98,8.43-11.52,22.49-56.52,50.23-110.94,82.76-162.33,7.75-12.25,15.83-24.44,21.05-37.96,1.36-3.53,2.22-8.23-.81-10.5-3.48-2.61-7.91.82-9.43,3.12Z"/><path class="cls-8" d="m251.56,611.22c-30.69,45.41-64.18,88.93-100.23,130.21-13.81,15.81-28.08,31.43-39.55,48.96-1.19,1.82.99,3.94,2.77,2.68,31.06-21.83,55.58-51.93,79.57-81.53,8.53-10.52,17.05-21.05,25.58-31.57,17.06-21.05,34.25-42.32,46.36-66.56,1.97-3.95,3.38-9.66-.34-12.04-3.17-2.03-7.42.44-9.58,3.53-2.16,3.09-3.41,6.91-4.57,6.32Z"/><path class="cls-8" d="m287.52,647.44c-45.03,46.24-84.1,98.51-133.52,140.02-8.07,6.78-16.55,13.41-22.34,22.23,3.37,3.03,8.67.64,12.43-1.89,48.92-32.82,89.92-75.9,130.49-118.6,12.69-13.35,25.61-27.06,33.13-43.87,1.58-3.53,1.52-9.42-2.35-9.41-1.18,0-2.24.68-3.21,1.35-6.68,4.56-13.43,8.94-14.64,10.18Z"/><path class="cls-8" d="m143.29,500.17c16.21-6.8,34.77-3.53,51.73,1.07,42.84,11.63,84.58,31.96,113.84,65.34,7.59,8.66,14.26,18.09,20.9,27.5,5.78,8.19,11.66,16.56,14.62,26.13.71,2.28.94,5.35-1.17,6.48-1.6.86-3.54-.02-5.13-.9-38.84-21.52-72.58-51.41-111.56-72.67-8.4-4.58-17.02-8.75-25.53-13.11-16.06-8.22-31.77-17.14-47.06-26.72-5.93-3.71-12.54-8.95-10.65-13.13Z"/><path class="cls-8" d="m258.6,513.43c-2.84,4.61-5.18,9.54-6.95,14.66-.45,1.3-.85,2.76-.27,4,.47.99,1.47,1.61,2.41,2.16,6.19,3.62,12.49,7.05,18.9,10.28.47.24.97.48,1.51.49.74,0,1.41-.45,1.99-.91,4.01-3.15,7.12-7.42,8.91-12.2-4.77-2.5-9.23-5.6-13.23-9.2-1.43-1.28-2.81-2.64-4.42-3.68-2.96-1.91-5.58-3.88-8.85-5.6Z"/><path class="cls-8" d="m282.66,511.5c-7.05-4.42-14.03-8.58-22.27-7.45-2.68.37-6.75,1.92-7.3,4.57-.25,1.2.1,2.45.62,3.55,1.71,3.66,5.13,6.17,8.41,8.52,6.36,4.55,12.76,9.12,19.78,12.57,1.96.96,4.21,1.84,6.26,1.1,3.31-1.21,3.86-5.72,3.05-9.15-1.46-6.13-5.27-11.65-8.55-13.71Z"/><path class="cls-8" d="m40.59,772.15c-33.37,10.84-62.44,34.39-79.97,64.78-1.1,1.9-2.18,4.13-1.46,6.21.43,1.24,1.44,2.17,2.42,3.04,5.79,5.18,11.75,10.17,17.87,14.97,30.03,23.57,63.53,42.25,96.88,60.84,5.42,3.02,10.84,6.04,16.26,9.06,1.86,1.04,3.93,2.1,6,1.64,1.74-.39,3.05-1.78,4.21-3.13,19.22-22.43,26.54-52.71,29.3-82.12.41-4.42.64-9.25-1.91-12.89-1.14-1.63-2.73-2.86-4.31-4.07-27.41-20.95-56.07-40.28-85.29-58.33Z"/><path class="cls-8" d="m85.3,907.08c-12.91-11.86-26.92-22.73-41.64-32.27-7.32-4.74-14.91-8.96-22.46-13.31-6.45-3.72-13.08-7.39-18.73-12.29-12.08-10.49-15.97-26.21-9.91-41.06,2.97-7.3,8.53-13.98,14.13-19.43.3-.29.62-.55.92-.84-19.22,12.37-35.57,29.24-46.99,49.05-1.1,1.9-2.18,4.13-1.46,6.21.43,1.24,1.44,2.17,2.42,3.04,5.79,5.18,11.75,10.17,17.87,14.97,30.03,23.57,63.53,42.25,96.88,60.84,5.42,3.02,10.84,6.04,16.26,9.06,1.86,1.04,3.93,2.1,6,1.64,1.74-.39,3.05-1.78,4.21-3.13.74-.86,1.42-1.75,2.13-2.63-6.23-6.9-12.77-13.55-19.61-19.84Z"/><path class="cls-8" d="m95.54,951.91c5.55-2.45,8.92-9.05,7.63-14.99-1.3-5.99-6.43-10.26-11.25-14.04-39.43-30.94-79.3-62.01-124.29-84.1-3.77-1.85-7.83-3.68-12-3.2-4.94.57-8.87,4.23-12.43,7.7-.98.96-2.01,2.02-2.21,3.37-.27,1.83,1.06,3.48,2.35,4.81,10.5,10.81,24.09,17.95,37.19,25.4,28.53,16.23,55.77,34.71,81.4,55.22,10.71,8.57,21.87,17.83,33.61,19.82Z"/><path class="cls-8" d="m122.39,838.18c4.78,18.37-2.07,37.53-8.83,55.27-2.32,6.1-4.76,12.36-9.25,17.09-2.51-1.77-3.5-5.09-3.37-8.16.13-3.07,1.19-6,2.03-8.96,2.68-9.47,3.08-19.58,1.15-29.23-1.46-7.29-4.21-14.31-5.14-21.69-.44-3.46-.4-7.21,1.48-10.15,2.81-4.41,9.19-5.56,14-3.51,4.82,2.05,7.24,6.67,7.94,9.33Z"/><path class="cls-8" d="m-40.19,837.61c20.81,11.2,41.27,23.05,61.35,35.52,10.15,6.31,20.31,12.86,28.51,21.55-1.43,1.39-3.78.68-5.59-.15-28.9-13.27-54.35-35.77-85.8-40.45-4.27-.64-9.49-1.61-10.84-5.71-.99-3,.87-6.35,3.5-8.1,2.63-1.75,5.87-2.27,8.87-2.66Z"/><path class="cls-8" d="m290.84,557.62c14.34,15.7,27.73,32.27,40.06,49.6,1.81,2.55,3.68,5.74,2.43,8.6-9.73-3.94-16.74-12.46-23.31-20.64-7.01-8.73-14.02-17.46-21.03-26.19-1.59-1.98-3.22-4.04-3.92-6.48-.7-2.44-.24-5.4,1.77-6.96,2.01-1.55,5.6-.78,3.99,2.07Z"/><path class="cls-8" d="m281.88,528.06c.8.86,1.7,1.7,2.83,2.03,1.13.33,2.53.02,3.12-1,.56-.97.24-2.19-.1-3.27-1.75-5.55-3.81-11.55-8.67-14.75-1.43-.94-3.41-1.56-4.78-.53-1.02.76-1.31,2.23-1.03,3.47.28,1.25,5.37,10.53,8.64,14.04Z"/><path class="cls-8" d="m305.24,651.9c-2.75,6.38-7.28,11.81-11.83,17.06-22.01,25.42-45.91,49.14-69.97,72.64-25.91,25.3-52.38,50.65-83.76,68.73,3.67,1.18,7.57-.62,10.96-2.45,46-24.86,82.46-63.87,118.05-102.19,14.29-15.39,28.85-31.19,37.13-50.49.57-1.34.87-3.34-.58-3.29Z"/><path class="cls-8" d="m342.13,640.97c5.99,7.85,12.63,16.16,22.12,18.89.36.1.75.2,1.1.06.97-.37.63-1.82.07-2.7-2.81-4.48-6.7-8.28-11.25-10.98-2.04-1.22-4.21-2.21-6.37-3.2-1.94-.89-3.89-1.79-5.68-2.07Z"/><path class="cls-8" d="m255.33,606.16c-18.57,25.88-37.15,51.77-56.49,77.08-27.42,35.91-56.36,70.66-86.71,104.14,26.03-37.53,54.74-73.11,83.41-108.66,5.64-7,11.29-14,16.94-21,4.03-5,8.07-10,12.16-14.96,10.27-12.43,20.9-24.55,30.69-36.6Z"/><path class="cls-8" d="m193.36,570.24c-43.52,64.16-85.01,131.64-103.55,206.84-.17.7-1.2.6-1.22-.12-.19-7.99,1.29-15.99,3.02-23.82,15.46-69.96,52.26-135.06,101.7-182.94.03-.02.07,0,.05.04Z"/><path class="cls-8" d="m154.53,543.82c-9.71,6.92-13.93,16.9-19.76,27.3-33.35,59.47-63.94,122.67-69.73,190.58,0,.11-.17.12-.19,0-4.27-27.95,3.64-56.27,12.42-83.18,8.23-25.2,17.37-50.23,29.86-73.62,12.5-23.39,26.49-44.49,47.39-61.1Z"/></g><g class="cls-21"><path class="cls-8" d="m1454.59,772.15c-33.37,10.84-62.44,34.39-79.97,64.78-1.1,1.9-2.18,4.13-1.46,6.21.43,1.24,1.44,2.17,2.42,3.04,5.79,5.18,11.75,10.17,17.87,14.97,30.03,23.57,63.53,42.25,96.88,60.84,5.42,3.02,10.84,6.04,16.26,9.06,1.86,1.04,3.93,2.1,6,1.64,1.74-.39,3.05-1.78,4.21-3.13,19.22-22.43,26.54-52.71,29.3-82.12.41-4.42.64-9.25-1.91-12.89-1.14-1.63-2.73-2.86-4.31-4.07-27.41-20.95-56.07-40.28-85.29-58.33Z"/><path class="cls-8" d="m1499.3,907.08c-12.91-11.86-26.92-22.73-41.64-32.27-7.32-4.74-14.91-8.96-22.46-13.31-6.45-3.72-13.08-7.39-18.73-12.29-12.08-10.49-15.97-26.21-9.91-41.06,2.97-7.3,8.53-13.98,14.13-19.43.3-.29.62-.55.92-.84-19.22,12.37-35.57,29.24-46.99,49.05-1.1,1.9-2.18,4.13-1.46,6.21.43,1.24,1.44,2.17,2.42,3.04,5.79,5.18,11.75,10.17,17.87,14.97,30.03,23.57,63.53,42.25,96.88,60.84,5.42,3.02,10.84,6.04,16.26,9.06,1.86,1.04,3.93,2.1,6,1.64,1.74-.39,3.05-1.78,4.21-3.13.74-.86,1.42-1.75,2.13-2.63-6.23-6.9-12.77-13.55-19.61-19.84Z"/><path class="cls-8" d="m1509.54,951.91c5.55-2.45,8.92-9.05,7.63-14.99-1.3-5.99-6.43-10.26-11.25-14.04-39.43-30.94-79.3-62.01-124.29-84.1-3.77-1.85-7.83-3.68-12-3.2-4.94.57-8.87,4.23-12.43,7.7-.98.96-2.01,2.02-2.21,3.37-.27,1.83,1.06,3.48,2.35,4.81,10.5,10.81,24.09,17.95,37.19,25.4,28.53,16.23,55.77,34.71,81.4,55.22,10.71,8.57,21.87,17.83,33.61,19.82Z"/><path class="cls-8" d="m1373.81,837.61c20.81,11.2,41.27,23.05,61.35,35.52,10.15,6.31,20.31,12.86,28.51,21.55-1.43,1.39-3.78.68-5.59-.15-28.9-13.27-54.35-35.77-85.8-40.45-4.27-.64-9.49-1.61-10.84-5.71-.99-3,.87-6.35,3.5-8.1,2.63-1.75,5.87-2.27,8.87-2.66Z"/></g></svg>